<svg width="36" height="38" viewBox="0 0 36 38" fill="none" xmlns="http://www.w3.org/2000/svg">
<path d="M6.0498 0H30.018V10.6401C30.018 17.2587 24.6525 22.6242 18.0339 22.6242C11.4153 22.6242 6.0498 17.2587 6.0498 10.6401V0Z" fill="white"/>
<path d="M32.7042 12.3201V13.6641H3.13602V12.3201H32.7042ZM34.4962 10.5281V4.03206H1.34401V10.5281C1.34401 11.5178 2.14632 12.3201 3.13602 12.3201V13.6641L3.05508 13.663C1.38741 13.6208 0.0433434 12.2767 0.00109376 10.609L0 10.5281V2.68805H35.8402V10.5281C35.8402 12.2601 34.4362 13.6641 32.7042 13.6641V12.3201C33.6939 12.3201 34.4962 11.5178 34.4962 10.5281Z" fill="white"/>
<path d="M28.6705 37.8563L7.16639 37.8563C7.16639 34.8872 9.57332 32.4803 12.5424 32.4803L23.2945 32.4803C26.2636 32.4803 28.6705 34.8872 28.6705 37.8563Z" fill="white"/>
<path d="M16.3505 37.4083L16.3505 15.9041L19.4865 15.9041L19.4865 37.4083L16.3505 37.4083Z" fill="white"/>
</svg>
