<svg width="16" height="13" viewBox="0 0 16 13" fill="none" xmlns="http://www.w3.org/2000/svg">
<path d="M5.72361 1.96179C5.98757 1.03423 7.30939 1.05418 7.54588 1.98914L8.41404 5.42078C8.50906 5.79645 8.82366 6.07654 9.20798 6.12585L13.2041 6.6366C13.7303 6.70394 13.7617 7.45407 13.2431 7.56531L9.47459 8.37195C9.13591 8.44443 8.864 8.69681 8.76658 9.02917L7.80173 12.3221C7.53871 13.2191 6.27114 13.2279 5.99509 12.3348L5.06834 9.33679C4.97334 9.02946 4.72801 8.79157 4.41795 8.70593L0.34568 7.58093C-0.145167 7.44488 -0.101642 6.73491 0.402321 6.66003L3.95994 6.13269C4.32653 6.07829 4.62706 5.81436 4.72849 5.45789L5.72361 1.96179ZM12.7373 0.275269C12.8426 -0.0974685 13.3684 -0.0896166 13.4629 0.286011L13.8086 1.66687C13.8464 1.81806 13.9728 1.93126 14.126 1.95105L15.7168 2.15613C15.9264 2.18322 15.9391 2.48548 15.7324 2.53015L14.2314 2.85437C14.0965 2.88355 13.988 2.98533 13.9492 3.11902L13.5654 4.44324C13.4607 4.80411 12.9557 4.80829 12.8457 4.4491L12.4765 3.24304C12.4387 3.11955 12.341 3.0237 12.2178 2.98914L10.5947 2.53601C10.3995 2.48102 10.4174 2.19593 10.6181 2.16589L12.0351 1.95398C12.1809 1.932 12.3003 1.82566 12.3408 1.6825L12.7373 0.275269Z" fill="#0E0E0E"/>
</svg>
