<svg width="128" height="120" viewBox="0 0 128 120" fill="none" xmlns="http://www.w3.org/2000/svg">
<path d="M17.6113 49.1895C30.3217 34.9233 44.1856 31.4308 56.7793 33.1553C69.4247 34.8868 80.8614 41.8912 88.584 48.7432C90.9785 50.8677 92.2556 53.9721 92.25 57.2129C92.2069 82.2775 85.7157 97.6446 77.6768 106.676C69.6395 115.705 60.0008 118.466 53.5 118.236C36.9168 117.13 27.0344 107.219 21.3848 94.7344C15.7192 82.2147 14.349 67.1658 14.8428 56.0518C14.9557 53.5103 15.9242 51.0832 17.6113 49.1895Z" fill="black" stroke="black" stroke-width="1.5"/>
<path d="M66.6299 26.8613C79.3638 30.6525 86.2753 38.7449 89.6152 47.4277C92.9683 56.1448 92.7238 65.4722 91.0811 71.6377C91.069 71.6828 91.0546 71.7104 91.0449 71.7266C91.0343 71.7208 91.0199 71.7111 91.0049 71.6934C90.9803 71.6643 90.9427 71.602 90.9346 71.4854C89.4038 49.446 71.2057 37.2067 60.6562 33.2012C60.4587 33.1259 60.4312 32.9051 60.5352 32.7881C62.1478 30.9736 64.5936 28.3767 66.4346 26.8906C66.4738 26.859 66.5491 26.8373 66.6299 26.8613Z" fill="white"/>
<path d="M66.6299 26.8613C79.3638 30.6525 86.2753 38.7449 89.6152 47.4277C92.9683 56.1448 92.7238 65.4722 91.0811 71.6377C91.069 71.6828 91.0546 71.7104 91.0449 71.7266C91.0343 71.7208 91.0199 71.7111 91.0049 71.6934C90.9803 71.6643 90.9427 71.602 90.9346 71.4854C89.4038 49.446 71.2057 37.2067 60.6562 33.2012C60.4587 33.1259 60.4312 32.9051 60.5352 32.7881C62.1478 30.9736 64.5936 28.3767 66.4346 26.8906C66.4738 26.859 66.5491 26.8373 66.6299 26.8613Z" fill="url(#paint0_linear_339_4)" fill-opacity="0.5"/>
<path d="M66.6299 26.8613C79.3638 30.6525 86.2753 38.7449 89.6152 47.4277C92.9683 56.1448 92.7238 65.4722 91.0811 71.6377C91.069 71.6828 91.0546 71.7104 91.0449 71.7266C91.0343 71.7208 91.0199 71.7111 91.0049 71.6934C90.9803 71.6643 90.9427 71.602 90.9346 71.4854C89.4038 49.446 71.2057 37.2067 60.6562 33.2012C60.4587 33.1259 60.4312 32.9051 60.5352 32.7881C62.1478 30.9736 64.5936 28.3767 66.4346 26.8906C66.4738 26.859 66.5491 26.8373 66.6299 26.8613Z" stroke="black" stroke-width="1.5"/>
<path d="M71.9746 17.791C72.445 17.8987 73.1938 18.2203 74.1768 18.8105C75.2482 19.4539 76.5283 20.372 77.9141 21.5381C80.6857 23.8705 83.8463 27.1687 86.5752 31.1846C92.0358 39.2205 95.7121 50.0344 91.2695 61.751C91.2388 61.832 91.2046 61.8544 91.1963 61.8594C91.1843 61.8664 91.17 61.8696 91.1533 61.8672C91.1364 61.8647 91.1194 61.8575 91.1055 61.8428C91.0948 61.8315 91.0669 61.796 91.0586 61.708C90.7389 58.2685 90.4983 54.541 89.2822 50.5166C88.0604 46.4732 85.8625 42.1464 81.6562 37.4219C81.5938 37.3517 81.5238 37.2851 81.4502 37.2256C74.6215 31.7002 68.4473 28.2753 65.3555 26.8496C65.1871 26.772 65.1392 26.5792 65.2109 26.4512L67.4951 22.377C67.5176 22.3369 67.5759 22.2697 67.7461 22.2021C67.919 22.1335 68.1418 22.0903 68.3965 22.0605C69.7629 21.901 71.1001 20.6608 71.9746 17.791Z" fill="white"/>
<path d="M71.9746 17.791C72.445 17.8987 73.1938 18.2203 74.1768 18.8105C75.2482 19.4539 76.5283 20.372 77.9141 21.5381C80.6857 23.8705 83.8463 27.1687 86.5752 31.1846C92.0358 39.2205 95.7121 50.0344 91.2695 61.751C91.2388 61.832 91.2046 61.8544 91.1963 61.8594C91.1843 61.8664 91.17 61.8696 91.1533 61.8672C91.1364 61.8647 91.1194 61.8575 91.1055 61.8428C91.0948 61.8315 91.0669 61.796 91.0586 61.708C90.7389 58.2685 90.4983 54.541 89.2822 50.5166C88.0604 46.4732 85.8625 42.1464 81.6562 37.4219C81.5938 37.3517 81.5238 37.2851 81.4502 37.2256C74.6215 31.7002 68.4473 28.2753 65.3555 26.8496C65.1871 26.772 65.1392 26.5792 65.2109 26.4512L67.4951 22.377C67.5176 22.3369 67.5759 22.2697 67.7461 22.2021C67.919 22.1335 68.1418 22.0903 68.3965 22.0605C69.7629 21.901 71.1001 20.6608 71.9746 17.791Z" fill="url(#paint1_linear_339_4)" fill-opacity="0.5"/>
<path d="M71.9746 17.791C72.445 17.8987 73.1938 18.2203 74.1768 18.8105C75.2482 19.4539 76.5283 20.372 77.9141 21.5381C80.6857 23.8705 83.8463 27.1687 86.5752 31.1846C92.0358 39.2205 95.7121 50.0344 91.2695 61.751C91.2388 61.832 91.2046 61.8544 91.1963 61.8594C91.1843 61.8664 91.17 61.8696 91.1533 61.8672C91.1364 61.8647 91.1194 61.8575 91.1055 61.8428C91.0948 61.8315 91.0669 61.796 91.0586 61.708C90.7389 58.2685 90.4983 54.541 89.2822 50.5166C88.0604 46.4732 85.8625 42.1464 81.6562 37.4219C81.5938 37.3517 81.5238 37.2851 81.4502 37.2256C74.6215 31.7002 68.4473 28.2753 65.3555 26.8496C65.1871 26.772 65.1392 26.5792 65.2109 26.4512L67.4951 22.377C67.5176 22.3369 67.5759 22.2697 67.7461 22.2021C67.919 22.1335 68.1418 22.0903 68.3965 22.0605C69.7629 21.901 71.1001 20.6608 71.9746 17.791Z" stroke="black" stroke-width="1.5"/>
<path d="M71.127 6.30957C83.2916 12.7367 99.8667 28.3991 94.0459 52.7461C94.0214 52.8482 93.9853 52.8707 93.9814 52.873C93.9718 52.8793 93.9463 52.8906 93.9033 52.8838C93.8602 52.8769 93.8173 52.8538 93.7852 52.8184C93.758 52.7884 93.7215 52.7311 93.7178 52.6182C93.5146 46.3192 92.5085 41.9605 91.0762 38.5107C89.648 35.0711 87.807 32.5678 86.0264 30.0205C85.9738 29.9452 85.9141 29.8734 85.8496 29.8066C80.395 24.1652 74.5286 19.6415 71.8662 17.792C71.7943 17.7419 71.7522 17.666 71.748 17.5801C71.6248 14.9553 71.203 10.6215 70.2705 7.30273C70.2333 7.17 70.2953 6.85254 70.5947 6.55469C70.9049 6.24623 71.1041 6.2975 71.127 6.30957Z" fill="white"/>
<path d="M71.127 6.30957C83.2916 12.7367 99.8667 28.3991 94.0459 52.7461C94.0214 52.8482 93.9853 52.8707 93.9814 52.873C93.9718 52.8793 93.9463 52.8906 93.9033 52.8838C93.8602 52.8769 93.8173 52.8538 93.7852 52.8184C93.758 52.7884 93.7215 52.7311 93.7178 52.6182C93.5146 46.3192 92.5085 41.9605 91.0762 38.5107C89.648 35.0711 87.807 32.5678 86.0264 30.0205C85.9738 29.9452 85.9141 29.8734 85.8496 29.8066C80.395 24.1652 74.5286 19.6415 71.8662 17.792C71.7943 17.7419 71.7522 17.666 71.748 17.5801C71.6248 14.9553 71.203 10.6215 70.2705 7.30273C70.2333 7.17 70.2953 6.85254 70.5947 6.55469C70.9049 6.24623 71.1041 6.2975 71.127 6.30957Z" fill="url(#paint2_linear_339_4)" fill-opacity="0.5"/>
<path d="M71.127 6.30957C83.2916 12.7367 99.8667 28.3991 94.0459 52.7461C94.0214 52.8482 93.9853 52.8707 93.9814 52.873C93.9718 52.8793 93.9463 52.8906 93.9033 52.8838C93.8602 52.8769 93.8173 52.8538 93.7852 52.8184C93.758 52.7884 93.7215 52.7311 93.7178 52.6182C93.5146 46.3192 92.5085 41.9605 91.0762 38.5107C89.648 35.0711 87.807 32.5678 86.0264 30.0205C85.9738 29.9452 85.9141 29.8734 85.8496 29.8066C80.395 24.1652 74.5286 19.6415 71.8662 17.792C71.7943 17.7419 71.7522 17.666 71.748 17.5801C71.6248 14.9553 71.203 10.6215 70.2705 7.30273C70.2333 7.17 70.2953 6.85254 70.5947 6.55469C70.9049 6.24623 71.1041 6.2975 71.127 6.30957Z" stroke="black" stroke-width="1.5"/>
<path d="M106.599 91.7943L102.666 95.1371L99.6289 91.7201L103.754 88.3812L106.599 91.7943Z" fill="white"/>
<path d="M106.599 91.7943L102.666 95.1371L99.6289 91.7201L103.754 88.3812L106.599 91.7943Z" fill="url(#paint3_linear_339_4)" fill-opacity="0.5"/>
<path d="M106.599 91.7943L102.666 95.1371L99.6289 91.7201L103.754 88.3812L106.599 91.7943Z" stroke="black" stroke-width="1.5"/>
<path d="M115.195 97.3438L106.227 104.742L100.372 97.8037L109.561 90.4082L115.195 97.3438Z" fill="white"/>
<path d="M115.195 97.3438L106.227 104.742L100.372 97.8037L109.561 90.4082L115.195 97.3438Z" fill="url(#paint4_linear_339_4)" fill-opacity="0.5"/>
<path d="M115.195 97.3438L106.227 104.742L100.372 97.8037L109.561 90.4082L115.195 97.3438Z" stroke="black" stroke-width="1.5"/>
<path d="M122.529 106.447L113.562 113.845L106.442 105.391L115.633 97.9934L122.529 106.447Z" fill="white"/>
<path d="M122.529 106.447L113.562 113.845L106.442 105.391L115.633 97.9934L122.529 106.447Z" fill="url(#paint5_linear_339_4)" fill-opacity="0.5"/>
<path d="M122.529 106.447L113.562 113.845L106.442 105.391L115.633 97.9934L122.529 106.447Z" stroke="black" stroke-width="1.5"/>
<path d="M126.443 112.27L119.124 118.394L118.58 117.748L126.015 111.68L126.443 112.27Z" fill="white"/>
<path d="M126.443 112.27L119.124 118.394L118.58 117.748L126.015 111.68L126.443 112.27Z" fill="url(#paint6_linear_339_4)" fill-opacity="0.5"/>
<path d="M126.443 112.27L119.124 118.394L118.58 117.748L126.015 111.68L126.443 112.27Z" stroke="black" stroke-width="1.5"/>
<path d="M101.333 89.3564L94 80" stroke="black" stroke-width="1.5"/>
<path d="M121.816 114.391L118.781 110.598" stroke="black" stroke-width="1.5"/>
<path d="M33.8701 6.99902C44.6073 1.07283 55.2523 -0.802567 62.5879 2.08105C62.6478 2.10461 62.6646 2.12962 62.6689 2.13672C62.6754 2.14738 62.6818 2.1655 62.6797 2.19141C62.6775 2.21772 62.6669 2.24764 62.6455 2.27441C62.6262 2.29854 62.5902 2.32985 62.5215 2.35059C52.1691 5.47277 33.8086 12.1786 21.3848 24.3154C15.1593 30.3971 10.3954 37.8711 8.90625 46.9619C7.52273 55.4088 8.98154 65.1715 14.5967 76.4111C10.5755 73.4551 6.01538 68.7472 3.26367 62.6904C-0.0389279 55.4211 -0.759561 46.1701 5.26758 35.5518C12.5283 22.7603 23.1682 12.9059 33.8701 6.99902Z" fill="white"/>
<path d="M33.8701 6.99902C44.6073 1.07283 55.2523 -0.802567 62.5879 2.08105C62.6478 2.10461 62.6646 2.12962 62.6689 2.13672C62.6754 2.14738 62.6818 2.1655 62.6797 2.19141C62.6775 2.21772 62.6669 2.24764 62.6455 2.27441C62.6262 2.29854 62.5902 2.32985 62.5215 2.35059C52.1691 5.47277 33.8086 12.1786 21.3848 24.3154C15.1593 30.3971 10.3954 37.8711 8.90625 46.9619C7.52273 55.4088 8.98154 65.1715 14.5967 76.4111C10.5755 73.4551 6.01538 68.7472 3.26367 62.6904C-0.0389279 55.4211 -0.759561 46.1701 5.26758 35.5518C12.5283 22.7603 23.1682 12.9059 33.8701 6.99902Z" fill="url(#paint7_linear_339_4)" fill-opacity="0.5"/>
<path d="M33.8701 6.99902C44.6073 1.07283 55.2523 -0.802567 62.5879 2.08105C62.6478 2.10461 62.6646 2.12962 62.6689 2.13672C62.6754 2.14738 62.6818 2.1655 62.6797 2.19141C62.6775 2.21772 62.6669 2.24764 62.6455 2.27441C62.6262 2.29854 62.5902 2.32985 62.5215 2.35059C52.1691 5.47277 33.8086 12.1786 21.3848 24.3154C15.1593 30.3971 10.3954 37.8711 8.90625 46.9619C7.52273 55.4088 8.98154 65.1715 14.5967 76.4111C10.5755 73.4551 6.01538 68.7472 3.26367 62.6904C-0.0389279 55.4211 -0.759561 46.1701 5.26758 35.5518C12.5283 22.7603 23.1682 12.9059 33.8701 6.99902Z" stroke="black" stroke-width="1.5"/>
<path d="M63.8008 0.80957C65.6054 1.56516 69.4166 3.76032 72.1748 7.36523C71.9458 7.54695 71.4799 7.78111 70.7051 8.05859C69.1164 8.62754 66.6452 9.24807 63.5283 10.0635C57.3397 11.6825 48.7937 14.0247 40.4561 18.127C32.1177 22.2296 23.938 28.1166 18.5254 36.8535C13.1026 45.607 10.5049 57.1453 13.2021 72.4482C13.2195 72.5474 13.2012 72.6125 13.1826 72.6504C13.1621 72.692 13.1344 72.7143 13.1162 72.7236C13.1129 72.7253 13.1095 72.7248 13.1074 72.7256C13.0963 72.7172 13.0773 72.6988 13.0527 72.6611C7.96385 64.8453 3.33072 48.5185 15.3086 28.1943C20.4507 21.0536 29.4844 15.0068 38.8184 10.3301C48.1471 5.65599 57.6792 2.39752 63.6875 0.803711C63.7333 0.791558 63.7667 0.795372 63.8008 0.80957Z" fill="white"/>
<path d="M63.8008 0.80957C65.6054 1.56516 69.4166 3.76032 72.1748 7.36523C71.9458 7.54695 71.4799 7.78111 70.7051 8.05859C69.1164 8.62754 66.6452 9.24807 63.5283 10.0635C57.3397 11.6825 48.7937 14.0247 40.4561 18.127C32.1177 22.2296 23.938 28.1166 18.5254 36.8535C13.1026 45.607 10.5049 57.1453 13.2021 72.4482C13.2195 72.5474 13.2012 72.6125 13.1826 72.6504C13.1621 72.692 13.1344 72.7143 13.1162 72.7236C13.1129 72.7253 13.1095 72.7248 13.1074 72.7256C13.0963 72.7172 13.0773 72.6988 13.0527 72.6611C7.96385 64.8453 3.33072 48.5185 15.3086 28.1943C20.4507 21.0536 29.4844 15.0068 38.8184 10.3301C48.1471 5.65599 57.6792 2.39752 63.6875 0.803711C63.7333 0.791558 63.7667 0.795372 63.8008 0.80957Z" fill="url(#paint8_linear_339_4)" fill-opacity="0.5"/>
<path d="M63.8008 0.80957C65.6054 1.56516 69.4166 3.76032 72.1748 7.36523C71.9458 7.54695 71.4799 7.78111 70.7051 8.05859C69.1164 8.62754 66.6452 9.24807 63.5283 10.0635C57.3397 11.6825 48.7937 14.0247 40.4561 18.127C32.1177 22.2296 23.938 28.1166 18.5254 36.8535C13.1026 45.607 10.5049 57.1453 13.2021 72.4482C13.2195 72.5474 13.2012 72.6125 13.1826 72.6504C13.1621 72.692 13.1344 72.7143 13.1162 72.7236C13.1129 72.7253 13.1095 72.7248 13.1074 72.7256C13.0963 72.7172 13.0773 72.6988 13.0527 72.6611C7.96385 64.8453 3.33072 48.5185 15.3086 28.1943C20.4507 21.0536 29.4844 15.0068 38.8184 10.3301C48.1471 5.65599 57.6792 2.39752 63.6875 0.803711C63.7333 0.791558 63.7667 0.795372 63.8008 0.80957Z" stroke="black" stroke-width="1.5"/>
<path d="M72.2656 7.87793C72.3583 7.85471 72.4323 7.88654 72.4766 7.94434C73.5689 9.3766 74.9084 11.6574 75.6621 14.2441C76.4155 16.8302 76.5657 19.6543 75.3857 22.248C75.2636 22.5166 75.0156 22.784 74.5586 23.041C74.0976 23.3002 73.468 23.5236 72.6592 23.7188C71.0359 24.1103 68.861 24.3506 66.2412 24.6211C61.0425 25.1578 54.2506 25.8013 47.3164 28.0625C40.369 30.3281 33.256 34.2227 27.4023 41.2725C21.5501 48.3206 17.0004 58.4685 15.0869 73.166C15.0658 73.328 14.9755 73.3735 14.9463 73.3809C14.9393 73.3721 14.9286 73.3567 14.917 73.3301C12.5404 67.8654 10.7219 56.43 17.3281 41.1211C22.0563 30.1644 31.6571 22.872 42.1943 17.7998C52.7297 12.7286 64.1021 9.92269 72.2656 7.87793Z" fill="white"/>
<path d="M72.2656 7.87793C72.3583 7.85471 72.4323 7.88654 72.4766 7.94434C73.5689 9.3766 74.9084 11.6574 75.6621 14.2441C76.4155 16.8302 76.5657 19.6543 75.3857 22.248C75.2636 22.5166 75.0156 22.784 74.5586 23.041C74.0976 23.3002 73.468 23.5236 72.6592 23.7188C71.0359 24.1103 68.861 24.3506 66.2412 24.6211C61.0425 25.1578 54.2506 25.8013 47.3164 28.0625C40.369 30.3281 33.256 34.2227 27.4023 41.2725C21.5501 48.3206 17.0004 58.4685 15.0869 73.166C15.0658 73.328 14.9755 73.3735 14.9463 73.3809C14.9393 73.3721 14.9286 73.3567 14.917 73.3301C12.5404 67.8654 10.7219 56.43 17.3281 41.1211C22.0563 30.1644 31.6571 22.872 42.1943 17.7998C52.7297 12.7286 64.1021 9.92269 72.2656 7.87793Z" fill="url(#paint9_linear_339_4)" fill-opacity="0.5"/>
<path d="M72.2656 7.87793C72.3583 7.85471 72.4323 7.88654 72.4766 7.94434C73.5689 9.3766 74.9084 11.6574 75.6621 14.2441C76.4155 16.8302 76.5657 19.6543 75.3857 22.248C75.2636 22.5166 75.0156 22.784 74.5586 23.041C74.0976 23.3002 73.468 23.5236 72.6592 23.7188C71.0359 24.1103 68.861 24.3506 66.2412 24.6211C61.0425 25.1578 54.2506 25.8013 47.3164 28.0625C40.369 30.3281 33.256 34.2227 27.4023 41.2725C21.5501 48.3206 17.0004 58.4685 15.0869 73.166C15.0658 73.328 14.9755 73.3735 14.9463 73.3809C14.9393 73.3721 14.9286 73.3567 14.917 73.3301C12.5404 67.8654 10.7219 56.43 17.3281 41.1211C22.0563 30.1644 31.6571 22.872 42.1943 17.7998C52.7297 12.7286 64.1021 9.92269 72.2656 7.87793Z" stroke="black" stroke-width="1.5"/>
<path d="M68.3682 24.7607C68.4661 24.7594 68.5273 24.8055 68.5576 24.8564C68.5732 24.8827 68.579 24.9091 68.5791 24.9316C68.5791 24.9516 68.5745 24.9812 68.5498 25.0205C64.9343 30.7902 55.0403 40.9795 38.3457 44.1846C38.262 44.2006 38.176 44.2227 38.0908 44.2529C29.5175 47.2978 21.4046 55.4001 17.1816 64.8838C17.7424 61.0172 18.3997 57.6274 19.4785 54.4287C21.2793 49.0896 24.2641 44.2624 30.0137 38.7217C41.609 27.5475 54.8926 24.9458 68.3682 24.7607Z" fill="white"/>
<path d="M68.3682 24.7607C68.4661 24.7594 68.5273 24.8055 68.5576 24.8564C68.5732 24.8827 68.579 24.9091 68.5791 24.9316C68.5791 24.9516 68.5745 24.9812 68.5498 25.0205C64.9343 30.7902 55.0403 40.9795 38.3457 44.1846C38.262 44.2006 38.176 44.2227 38.0908 44.2529C29.5175 47.2978 21.4046 55.4001 17.1816 64.8838C17.7424 61.0172 18.3997 57.6274 19.4785 54.4287C21.2793 49.0896 24.2641 44.2624 30.0137 38.7217C41.609 27.5475 54.8926 24.9458 68.3682 24.7607Z" fill="url(#paint10_linear_339_4)" fill-opacity="0.5"/>
<path d="M68.3682 24.7607C68.4661 24.7594 68.5273 24.8055 68.5576 24.8564C68.5732 24.8827 68.579 24.9091 68.5791 24.9316C68.5791 24.9516 68.5745 24.9812 68.5498 25.0205C64.9343 30.7902 55.0403 40.9795 38.3457 44.1846C38.262 44.2006 38.176 44.2227 38.0908 44.2529C29.5175 47.2978 21.4046 55.4001 17.1816 64.8838C17.7424 61.0172 18.3997 57.6274 19.4785 54.4287C21.2793 49.0896 24.2641 44.2624 30.0137 38.7217C41.609 27.5475 54.8926 24.9458 68.3682 24.7607Z" stroke="black" stroke-width="1.5"/>
<defs>
<linearGradient id="paint0_linear_339_4" x1="78.7337" y1="48.5032" x2="58.4641" y2="18.2674" gradientUnits="userSpaceOnUse">
<stop stop-color="white" stop-opacity="0"/>
<stop offset="1" stop-color="white"/>
</linearGradient>
<linearGradient id="paint1_linear_339_4" x1="81.4121" y1="38.603" x2="61.3821" y2="11.1413" gradientUnits="userSpaceOnUse">
<stop stop-color="white" stop-opacity="0"/>
<stop offset="1" stop-color="white"/>
</linearGradient>
<linearGradient id="paint2_linear_339_4" x1="84.2513" y1="28.7535" x2="60.2942" y2="1.99908" gradientUnits="userSpaceOnUse">
<stop stop-color="white" stop-opacity="0"/>
<stop offset="1" stop-color="white"/>
</linearGradient>
<linearGradient id="paint3_linear_339_4" x1="103.831" y1="91.3167" x2="100.957" y2="84.8329" gradientUnits="userSpaceOnUse">
<stop stop-color="white" stop-opacity="0"/>
<stop offset="1" stop-color="white"/>
</linearGradient>
<linearGradient id="paint4_linear_339_4" x1="109.138" y1="96.7541" x2="103.809" y2="84.7042" gradientUnits="userSpaceOnUse">
<stop stop-color="white" stop-opacity="0"/>
<stop offset="1" stop-color="white"/>
</linearGradient>
<linearGradient id="paint5_linear_339_4" x1="115.942" y1="105.023" x2="110.058" y2="91.932" gradientUnits="userSpaceOnUse">
<stop stop-color="white" stop-opacity="0"/>
<stop offset="1" stop-color="white"/>
</linearGradient>
<linearGradient id="paint6_linear_339_4" x1="123.289" y1="114.581" x2="120.586" y2="107.92" gradientUnits="userSpaceOnUse">
<stop stop-color="white" stop-opacity="0"/>
<stop offset="1" stop-color="white"/>
</linearGradient>
<linearGradient id="paint7_linear_339_4" x1="37.7262" y1="36.0051" x2="7.80441" y2="-17.3256" gradientUnits="userSpaceOnUse">
<stop stop-color="white" stop-opacity="0"/>
<stop offset="1" stop-color="white"/>
</linearGradient>
<linearGradient id="paint8_linear_339_4" x1="45.3066" y1="34.2048" x2="17.8933" y2="-18.0178" gradientUnits="userSpaceOnUse">
<stop stop-color="white" stop-opacity="0"/>
<stop offset="1" stop-color="white"/>
</linearGradient>
<linearGradient id="paint9_linear_339_4" x1="49.7262" y1="38.0544" x2="26.0132" y2="-10.9479" gradientUnits="userSpaceOnUse">
<stop stop-color="white" stop-opacity="0"/>
<stop offset="1" stop-color="white"/>
</linearGradient>
<linearGradient id="paint10_linear_339_4" x1="46.9221" y1="47.4033" x2="30.3559" y2="8.96619" gradientUnits="userSpaceOnUse">
<stop stop-color="white" stop-opacity="0"/>
<stop offset="1" stop-color="white"/>
</linearGradient>
</defs>
</svg>
