<svg width="118" height="146" viewBox="0 0 118 146" fill="none" xmlns="http://www.w3.org/2000/svg">
<path d="M15.2061 35.0818C20.4406 34.8624 27.6326 36.6676 36.0605 43.4568C45.1995 50.8188 50.71 62.8063 53.7354 74.5857C56.7588 86.3578 57.2651 97.7844 56.502 103.889C56.2599 105.826 55.5781 107.113 54.6641 107.958C53.7438 108.808 52.5138 109.278 51.0596 109.438C48.1208 109.763 44.4652 108.801 41.3037 107.509C39.1718 106.637 37.4786 104.966 36.5195 102.855C36.0839 101.896 35.6154 100.787 35.1611 99.5759C34.9029 98.8876 34.4509 98.3872 33.8398 98.0896C33.2524 97.8035 32.5736 97.7316 31.8828 97.7722C30.5142 97.8527 28.8463 98.3966 27.127 99.0779C25.3988 99.7626 23.504 100.634 21.709 101.408C19.8898 102.192 18.158 102.882 16.6689 103.255C15.3143 103.593 14.5377 103.292 14.0264 102.775C13.455 102.197 13.0833 101.221 12.8643 99.9695C12.6487 98.7378 12.6005 97.3648 12.5762 96.1023C12.553 94.895 12.5548 93.6927 12.4082 92.9597C12.0603 91.2204 10.5975 90.7025 9.7666 90.3464C9.28946 90.1419 9.02868 90.0035 8.88184 89.8396C8.79596 89.7436 8.68979 89.5782 8.7832 89.1111C8.95803 88.2369 8.7292 87.5257 8.36816 86.948C8.03675 86.4177 7.55063 85.9467 7.24121 85.6091C6.88438 85.2198 6.71632 84.9676 6.67188 84.741C6.63947 84.5753 6.64751 84.2766 7.08008 83.7361C7.69929 82.9624 7.97704 82.1238 7.88867 81.2722C7.80203 80.4377 7.37461 79.6926 6.78223 79.0632C5.61001 77.818 3.64315 76.8613 1.49805 76.325C1.0392 76.2102 0.866923 76.0824 0.807617 76.0144C0.778014 75.9804 0.730981 75.9161 0.757812 75.6941C0.788024 75.4446 0.903816 75.0916 1.13379 74.5876C1.35988 74.0922 1.66743 73.5106 2.04199 72.8103C3.53659 70.0161 5.91288 65.6619 7.23047 59.074C8.17996 54.3264 8.44906 49.9723 8.37793 46.3503C8.32423 43.6159 8.79533 40.8038 9.91504 38.6765C11.0199 36.5775 12.7236 35.1858 15.2061 35.0818Z" fill="black" stroke="white" stroke-width="1.5"/>
<path d="M34.665 1.14062C44.0188 -0.0112442 54.3349 1.4051 63.7178 5.0791C82.5001 12.4336 97.3214 28.7088 93.5176 51.2793C91.6494 62.3637 89.0886 72.4921 86.6445 81.5146C84.2053 90.5196 81.8698 98.4655 80.4746 105.115C79.0845 111.741 78.5848 117.256 79.9512 121.357C80.6434 123.435 81.8151 125.154 83.5762 126.458C85.3278 127.755 87.619 128.611 90.5068 129.045C92.2191 129.302 93.8261 129.603 95.1357 130.425C96.9006 131.532 97.4223 132.444 97.4893 133.072C97.5548 133.688 97.2136 134.338 96.4658 135.002C95.7327 135.653 94.7373 136.197 93.8438 136.581C93.4018 136.771 92.9983 136.916 92.6836 137.013C92.5259 137.061 92.396 137.096 92.2988 137.117C92.1871 137.142 92.1597 137.14 92.1855 137.14C92.088 137.14 91.9768 137.156 91.9043 137.167C91.8147 137.181 91.7041 137.2 91.5801 137.223C91.3149 137.27 91.0143 137.327 90.6016 137.4C89.8043 137.543 88.7261 137.723 87.4668 137.874C84.9415 138.178 81.7119 138.364 78.5654 137.924C75.4128 137.482 72.4214 136.422 70.2832 134.299C68.1673 132.198 66.7893 128.959 67.04 123.944C67.8104 108.536 67.4489 78.8633 67.1172 63.0879C67.0673 60.7174 66.4461 58.4047 65.2764 56.3359C62.7409 51.8521 59.3951 46.1645 56.3545 41.501C54.8355 39.1713 53.3835 37.083 52.1416 35.5244C51.5215 34.7462 50.9414 34.0854 50.4229 33.5889C49.9308 33.1177 49.4042 32.7047 48.8896 32.5576C48.6261 32.4823 48.3115 32.4595 47.9941 32.459C47.6648 32.4585 47.2788 32.4823 46.8486 32.5244C45.9877 32.6087 44.9014 32.7713 43.6465 32.9893C41.1356 33.4253 37.8869 34.0927 34.2852 34.8301C27.0633 36.3087 18.4006 38.0725 11.2002 38.8721C8.31341 39.1926 5.48369 38.4672 4.36816 36.2275C2.02413 31.5207 3.08828 23.1673 11.4512 12.5303C16.971 6.00582 25.3091 2.29285 34.665 1.14062Z" fill="white"/>
<path d="M34.665 1.14062C44.0188 -0.0112442 54.3349 1.4051 63.7178 5.0791C82.5001 12.4336 97.3214 28.7088 93.5176 51.2793C91.6494 62.3637 89.0886 72.4921 86.6445 81.5146C84.2053 90.5196 81.8698 98.4655 80.4746 105.115C79.0845 111.741 78.5848 117.256 79.9512 121.357C80.6434 123.435 81.8151 125.154 83.5762 126.458C85.3278 127.755 87.619 128.611 90.5068 129.045C92.2191 129.302 93.8261 129.603 95.1357 130.425C96.9006 131.532 97.4223 132.444 97.4893 133.072C97.5548 133.688 97.2136 134.338 96.4658 135.002C95.7327 135.653 94.7373 136.197 93.8438 136.581C93.4018 136.771 92.9983 136.916 92.6836 137.013C92.5259 137.061 92.396 137.096 92.2988 137.117C92.1871 137.142 92.1597 137.14 92.1855 137.14C92.088 137.14 91.9768 137.156 91.9043 137.167C91.8147 137.181 91.7041 137.2 91.5801 137.223C91.3149 137.27 91.0143 137.327 90.6016 137.4C89.8043 137.543 88.7261 137.723 87.4668 137.874C84.9415 138.178 81.7119 138.364 78.5654 137.924C75.4128 137.482 72.4214 136.422 70.2832 134.299C68.1673 132.198 66.7893 128.959 67.04 123.944C67.8104 108.536 67.4489 78.8633 67.1172 63.0879C67.0673 60.7174 66.4461 58.4047 65.2764 56.3359C62.7409 51.8521 59.3951 46.1645 56.3545 41.501C54.8355 39.1713 53.3835 37.083 52.1416 35.5244C51.5215 34.7462 50.9414 34.0854 50.4229 33.5889C49.9308 33.1177 49.4042 32.7047 48.8896 32.5576C48.6261 32.4823 48.3115 32.4595 47.9941 32.459C47.6648 32.4585 47.2788 32.4823 46.8486 32.5244C45.9877 32.6087 44.9014 32.7713 43.6465 32.9893C41.1356 33.4253 37.8869 34.0927 34.2852 34.8301C27.0633 36.3087 18.4006 38.0725 11.2002 38.8721C8.31341 39.1926 5.48369 38.4672 4.36816 36.2275C2.02413 31.5207 3.08828 23.1673 11.4512 12.5303C16.971 6.00582 25.3091 2.29285 34.665 1.14062Z" fill="white" fill-opacity="0.2"/>
<path d="M34.665 1.14062C44.0188 -0.0112442 54.3349 1.4051 63.7178 5.0791C82.5001 12.4336 97.3214 28.7088 93.5176 51.2793C91.6494 62.3637 89.0886 72.4921 86.6445 81.5146C84.2053 90.5196 81.8698 98.4655 80.4746 105.115C79.0845 111.741 78.5848 117.256 79.9512 121.357C80.6434 123.435 81.8151 125.154 83.5762 126.458C85.3278 127.755 87.619 128.611 90.5068 129.045C92.2191 129.302 93.8261 129.603 95.1357 130.425C96.9006 131.532 97.4223 132.444 97.4893 133.072C97.5548 133.688 97.2136 134.338 96.4658 135.002C95.7327 135.653 94.7373 136.197 93.8438 136.581C93.4018 136.771 92.9983 136.916 92.6836 137.013C92.5259 137.061 92.396 137.096 92.2988 137.117C92.1871 137.142 92.1597 137.14 92.1855 137.14C92.088 137.14 91.9768 137.156 91.9043 137.167C91.8147 137.181 91.7041 137.2 91.5801 137.223C91.3149 137.27 91.0143 137.327 90.6016 137.4C89.8043 137.543 88.7261 137.723 87.4668 137.874C84.9415 138.178 81.7119 138.364 78.5654 137.924C75.4128 137.482 72.4214 136.422 70.2832 134.299C68.1673 132.198 66.7893 128.959 67.04 123.944C67.8104 108.536 67.4489 78.8633 67.1172 63.0879C67.0673 60.7174 66.4461 58.4047 65.2764 56.3359C62.7409 51.8521 59.3951 46.1645 56.3545 41.501C54.8355 39.1713 53.3835 37.083 52.1416 35.5244C51.5215 34.7462 50.9414 34.0854 50.4229 33.5889C49.9308 33.1177 49.4042 32.7047 48.8896 32.5576C48.6261 32.4823 48.3115 32.4595 47.9941 32.459C47.6648 32.4585 47.2788 32.4823 46.8486 32.5244C45.9877 32.6087 44.9014 32.7713 43.6465 32.9893C41.1356 33.4253 37.8869 34.0927 34.2852 34.8301C27.0633 36.3087 18.4006 38.0725 11.2002 38.8721C8.31341 39.1926 5.48369 38.4672 4.36816 36.2275C2.02413 31.5207 3.08828 23.1673 11.4512 12.5303C16.971 6.00582 25.3091 2.29285 34.665 1.14062Z" stroke="black" stroke-width="1.5"/>
<path d="M21.6035 17.736C27.3931 16.0275 33.9488 15.8073 40.7051 18.1305C47.4619 20.4539 54.4685 25.3382 61.1279 33.9186C74.4179 51.0422 74.6891 68.1547 72.8867 83.3463C72.4354 87.1501 71.8554 90.8254 71.3164 94.359C70.7785 97.8857 70.2814 101.274 70.0039 104.473C69.4504 110.855 69.7561 116.616 72.4629 121.353C74.7521 125.359 77.7625 127.629 81.123 128.619C84.4615 129.602 88.0713 129.302 91.5518 128.317C91.8806 128.224 92.1677 128.051 92.3848 127.793C92.5978 127.539 92.7078 127.245 92.7578 126.961C92.8533 126.418 92.7458 125.813 92.5977 125.278C92.303 124.214 91.6968 122.953 91.418 122.255C90.9504 121.086 90.566 118.799 90.5898 116.205C90.6136 113.619 91.0425 110.847 92.1064 108.689C93.1574 106.557 94.7913 105.078 97.2705 104.856C99.8185 104.629 103.425 105.71 108.421 109.169C113.307 112.552 115.808 116.935 116.456 121.452C117.107 125.983 115.901 130.706 113.269 134.749C108.011 142.823 97.1033 148.118 84.2393 143.578C71.2316 138.987 59.8205 128.372 51.4551 116.661C43.084 104.941 37.8527 92.2506 37.0918 83.6276C36.721 79.4248 37.0084 74.6704 37.2637 69.8483C37.5173 65.0573 37.7385 60.2007 37.1982 55.9069C36.6578 51.612 35.3429 47.7617 32.4238 45.0787C29.4935 42.3855 25.0811 40.9892 18.6162 41.3121C16.8294 41.4014 15.1392 41.9696 13.5781 42.5924C13.3022 42.7025 13.0209 42.8098 12.7354 42.9137C9.74613 44.0018 6.45272 44.6442 4.0918 43.9791C2.94712 43.6566 2.04848 43.0356 1.47363 42.0133C0.888036 40.9719 0.587967 39.4247 0.838867 37.1666C1.20115 33.9072 3.43793 29.9146 7.11914 26.2731C10.7837 22.6481 15.8072 19.4464 21.6035 17.736Z" fill="white"/>
<path d="M21.6035 17.736C27.3931 16.0275 33.9488 15.8073 40.7051 18.1305C47.4619 20.4539 54.4685 25.3382 61.1279 33.9186C74.4179 51.0422 74.6891 68.1547 72.8867 83.3463C72.4354 87.1501 71.8554 90.8254 71.3164 94.359C70.7785 97.8857 70.2814 101.274 70.0039 104.473C69.4504 110.855 69.7561 116.616 72.4629 121.353C74.7521 125.359 77.7625 127.629 81.123 128.619C84.4615 129.602 88.0713 129.302 91.5518 128.317C91.8806 128.224 92.1677 128.051 92.3848 127.793C92.5978 127.539 92.7078 127.245 92.7578 126.961C92.8533 126.418 92.7458 125.813 92.5977 125.278C92.303 124.214 91.6968 122.953 91.418 122.255C90.9504 121.086 90.566 118.799 90.5898 116.205C90.6136 113.619 91.0425 110.847 92.1064 108.689C93.1574 106.557 94.7913 105.078 97.2705 104.856C99.8185 104.629 103.425 105.71 108.421 109.169C113.307 112.552 115.808 116.935 116.456 121.452C117.107 125.983 115.901 130.706 113.269 134.749C108.011 142.823 97.1033 148.118 84.2393 143.578C71.2316 138.987 59.8205 128.372 51.4551 116.661C43.084 104.941 37.8527 92.2506 37.0918 83.6276C36.721 79.4248 37.0084 74.6704 37.2637 69.8483C37.5173 65.0573 37.7385 60.2007 37.1982 55.9069C36.6578 51.612 35.3429 47.7617 32.4238 45.0787C29.4935 42.3855 25.0811 40.9892 18.6162 41.3121C16.8294 41.4014 15.1392 41.9696 13.5781 42.5924C13.3022 42.7025 13.0209 42.8098 12.7354 42.9137C9.74613 44.0018 6.45272 44.6442 4.0918 43.9791C2.94712 43.6566 2.04848 43.0356 1.47363 42.0133C0.888036 40.9719 0.587967 39.4247 0.838867 37.1666C1.20115 33.9072 3.43793 29.9146 7.11914 26.2731C10.7837 22.6481 15.8072 19.4464 21.6035 17.736Z" fill="white" fill-opacity="0.2"/>
<path d="M21.6035 17.736C27.3931 16.0275 33.9488 15.8073 40.7051 18.1305C47.4619 20.4539 54.4685 25.3382 61.1279 33.9186C74.4179 51.0422 74.6891 68.1547 72.8867 83.3463C72.4354 87.1501 71.8554 90.8254 71.3164 94.359C70.7785 97.8857 70.2814 101.274 70.0039 104.473C69.4504 110.855 69.7561 116.616 72.4629 121.353C74.7521 125.359 77.7625 127.629 81.123 128.619C84.4615 129.602 88.0713 129.302 91.5518 128.317C91.8806 128.224 92.1677 128.051 92.3848 127.793C92.5978 127.539 92.7078 127.245 92.7578 126.961C92.8533 126.418 92.7458 125.813 92.5977 125.278C92.303 124.214 91.6968 122.953 91.418 122.255C90.9504 121.086 90.566 118.799 90.5898 116.205C90.6136 113.619 91.0425 110.847 92.1064 108.689C93.1574 106.557 94.7913 105.078 97.2705 104.856C99.8185 104.629 103.425 105.71 108.421 109.169C113.307 112.552 115.808 116.935 116.456 121.452C117.107 125.983 115.901 130.706 113.269 134.749C108.011 142.823 97.1033 148.118 84.2393 143.578C71.2316 138.987 59.8205 128.372 51.4551 116.661C43.084 104.941 37.8527 92.2506 37.0918 83.6276C36.721 79.4248 37.0084 74.6704 37.2637 69.8483C37.5173 65.0573 37.7385 60.2007 37.1982 55.9069C36.6578 51.612 35.3429 47.7617 32.4238 45.0787C29.4935 42.3855 25.0811 40.9892 18.6162 41.3121C16.8294 41.4014 15.1392 41.9696 13.5781 42.5924C13.3022 42.7025 13.0209 42.8098 12.7354 42.9137C9.74613 44.0018 6.45272 44.6442 4.0918 43.9791C2.94712 43.6566 2.04848 43.0356 1.47363 42.0133C0.888036 40.9719 0.587967 39.4247 0.838867 37.1666C1.20115 33.9072 3.43793 29.9146 7.11914 26.2731C10.7837 22.6481 15.8072 19.4464 21.6035 17.736Z" stroke="black" stroke-width="1.5"/>
</svg>
