<svg width="135" height="113" viewBox="0 0 135 113" fill="none" xmlns="http://www.w3.org/2000/svg">
<path d="M0 74.9727H45.5011C40.6907 83.9728 36.0975 103.742 56.2083 110.818C77.6225 116.87 87.8641 95.9214 80.8812 77.3003H134.5" stroke="black" stroke-width="1.5"/>
<path d="M57.142 68.9207C61.2386 36.52 81.1942 11.0402 90.6599 2.35034C93.4542 4.21245 90.6599 5.60903 83.2103 14.9196C65.5203 47.5065 65.9858 58.2136 74.3653 81.9555C82.7448 105.697 57.142 113.611 50.6246 98.2489C44.1072 82.8865 54.3488 78.6968 57.142 68.9207Z" fill="black" stroke="black" stroke-width="1.5"/>
<path d="M82.2734 58.6652C90.715 58.6652 93.0323 51.8467 93.1357 48.4375C93.1357 55.8526 100.17 58.3456 103.688 58.6652C95.4944 58.6652 93.2392 66.1229 93.1357 69.8517C93.1357 62.181 85.8942 59.1979 82.2734 58.6652Z" stroke="black" stroke-width="1.5"/>
<path d="M27.3438 33.5268C35.7853 33.5268 38.1026 26.7083 38.206 23.2991C38.206 30.7142 45.2407 33.2072 48.758 33.5268C40.5647 33.5268 38.3095 40.9845 38.206 44.7133C38.206 37.0425 30.9645 34.0595 27.3438 33.5268Z" stroke="black" stroke-width="1.5"/>
<path d="M59 6.69294C64.5054 6.69294 66.0166 2.24612 66.0841 0.0227051C66.0841 4.85863 70.6719 6.4845 72.9658 6.69294C67.6224 6.69294 66.1516 11.5567 66.0841 13.9885C66.0841 8.98584 61.3614 7.04035 59 6.69294Z" stroke="black" stroke-width="1.5"/>
</svg>
