<svg width="107" height="134" viewBox="0 0 107 134" fill="none" xmlns="http://www.w3.org/2000/svg">
<path d="M29.1191 1.32629C34.1717 1.36621 40.0291 3.20827 46.5488 8.47375C58.4919 18.1193 65.8493 36.2179 69.9541 54.0743C74.0535 71.9074 74.8616 89.2828 73.8633 97.2911C73.5287 99.9743 72.5555 101.749 71.2305 102.896C69.8958 104.05 68.1218 104.639 66.0625 104.787C61.9169 105.086 56.8512 103.583 52.6934 101.759C50.5704 100.827 48.8716 99.1581 47.875 97.0568C47.1784 95.588 46.38 93.7605 45.6123 91.7081C45.2955 90.8613 44.7456 90.2539 44.0039 89.8917C43.2858 89.5411 42.4442 89.4474 41.5654 89.4991C39.8211 89.602 37.6769 90.3 35.4375 91.1896C33.189 92.0828 30.7291 93.218 28.3818 94.2325C26.0106 95.2575 23.7393 96.1661 21.7793 96.6573C19.9542 97.1147 18.8539 96.7145 18.1191 95.9698C17.324 95.1639 16.8299 93.8298 16.542 92.1808C16.2577 90.5519 16.1947 88.7425 16.1631 87.0929C16.1325 85.4983 16.134 83.9589 15.9482 83.0275C15.5221 80.8914 13.7461 80.2539 12.6396 79.7784C12.0251 79.5144 11.6366 79.3168 11.4062 79.0587C11.2364 78.8684 11.0907 78.5735 11.2236 77.9073C11.4375 76.8352 11.1596 75.9658 10.7129 75.2491C10.2956 74.5799 9.68695 73.9899 9.26953 73.5333C8.80499 73.0252 8.54335 72.6541 8.47168 72.2882C8.41194 71.9828 8.46054 71.5246 9.05078 70.7853C9.82685 69.8131 10.1625 68.7764 10.0547 67.7345C9.94854 66.7094 9.42324 65.7808 8.67383 64.9825C7.18756 63.3996 4.67103 62.1651 1.89746 61.4698C1.28184 61.3155 1.00417 61.1329 0.881836 60.9923C0.789008 60.8855 0.721349 60.7301 0.761719 60.3947C0.805448 60.032 0.968395 59.5438 1.27051 58.88C1.56874 58.2248 1.97347 57.4578 2.46094 56.5441C4.40708 52.8963 7.49009 47.2326 9.2002 38.6603C10.6979 31.1522 10.8927 24.3989 10.5752 19.1906C10.2398 13.6882 11.7912 7.85575 16.2373 5.16223C19.7138 3.05634 24.0549 1.28631 29.1191 1.32629Z" fill="black" stroke="black" stroke-width="1.5"/>
<path d="M26.9336 0.751953C28.1454 0.738372 28.9532 0.792344 29.7559 0.857422C30.5645 0.922988 31.3879 1.00177 32.5928 1.03125C32.6918 1.03367 32.7644 1.0708 32.8076 1.11133C32.8472 1.14846 32.8712 1.19506 32.8721 1.25977C33.0242 12.5949 34.982 107.022 35.1689 116.03C35.1695 116.059 35.1654 116.074 35.1631 116.081C35.1609 116.087 35.1582 116.092 35.1543 116.097C35.1472 116.105 35.1157 116.136 35.0322 116.154C34.0436 116.371 32.0428 116.724 29.3311 116.779C29.3082 116.78 29.2912 116.776 29.2783 116.773C28.6222 108.879 26.2011 37.9524 26.71 0.96582C26.7116 0.849623 26.7977 0.753615 26.9336 0.751953Z" fill="white"/>
<path d="M26.9336 0.751953C28.1454 0.738372 28.9532 0.792344 29.7559 0.857422C30.5645 0.922988 31.3879 1.00177 32.5928 1.03125C32.6918 1.03367 32.7644 1.0708 32.8076 1.11133C32.8472 1.14846 32.8712 1.19506 32.8721 1.25977C33.0242 12.5949 34.982 107.022 35.1689 116.03C35.1695 116.059 35.1654 116.074 35.1631 116.081C35.1609 116.087 35.1582 116.092 35.1543 116.097C35.1472 116.105 35.1157 116.136 35.0322 116.154C34.0436 116.371 32.0428 116.724 29.3311 116.779C29.3082 116.78 29.2912 116.776 29.2783 116.773C28.6222 108.879 26.2011 37.9524 26.71 0.96582C26.7116 0.849623 26.7977 0.753615 26.9336 0.751953Z" fill="url(#paint0_linear_277_904)" fill-opacity="0.5"/>
<path d="M26.9336 0.751953C28.1454 0.738372 28.9532 0.792344 29.7559 0.857422C30.5645 0.922988 31.3879 1.00177 32.5928 1.03125C32.6918 1.03367 32.7644 1.0708 32.8076 1.11133C32.8472 1.14846 32.8712 1.19506 32.8721 1.25977C33.0242 12.5949 34.982 107.022 35.1689 116.03C35.1695 116.059 35.1654 116.074 35.1631 116.081C35.1609 116.087 35.1582 116.092 35.1543 116.097C35.1472 116.105 35.1157 116.136 35.0322 116.154C34.0436 116.371 32.0428 116.724 29.3311 116.779C29.3082 116.78 29.2912 116.776 29.2783 116.773C28.6222 108.879 26.2011 37.9524 26.71 0.96582C26.7116 0.849623 26.7977 0.753615 26.9336 0.751953Z" stroke="black" stroke-width="1.5"/>
<path d="M31.9336 0.751953C33.1454 0.738372 33.9532 0.792344 34.7559 0.857422C35.5645 0.922988 36.3879 1.00177 37.5928 1.03125C37.6918 1.03367 37.7644 1.0708 37.8076 1.11133C37.8472 1.14846 37.8712 1.19506 37.8721 1.25977C38.0242 12.5949 39.982 107.022 40.1689 116.03C40.1695 116.059 40.1654 116.074 40.1631 116.081C40.1609 116.087 40.1582 116.092 40.1543 116.097C40.1472 116.105 40.1157 116.136 40.0322 116.154C39.0436 116.371 37.0428 116.724 34.3311 116.779C34.3082 116.78 34.2912 116.776 34.2783 116.773C33.6222 108.879 31.2011 37.9524 31.71 0.96582C31.7116 0.849623 31.7977 0.753615 31.9336 0.751953Z" fill="white"/>
<path d="M31.9336 0.751953C33.1454 0.738372 33.9532 0.792344 34.7559 0.857422C35.5645 0.922988 36.3879 1.00177 37.5928 1.03125C37.6918 1.03367 37.7644 1.0708 37.8076 1.11133C37.8472 1.14846 37.8712 1.19506 37.8721 1.25977C38.0242 12.5949 39.982 107.022 40.1689 116.03C40.1695 116.059 40.1654 116.074 40.1631 116.081C40.1609 116.087 40.1582 116.092 40.1543 116.097C40.1472 116.105 40.1157 116.136 40.0322 116.154C39.0436 116.371 37.0428 116.724 34.3311 116.779C34.3082 116.78 34.2912 116.776 34.2783 116.773C33.6222 108.879 31.2011 37.9524 31.71 0.96582C31.7116 0.849623 31.7977 0.753615 31.9336 0.751953Z" fill="url(#paint1_linear_277_904)" fill-opacity="0.5"/>
<path d="M31.9336 0.751953C33.1454 0.738372 33.9532 0.792344 34.7559 0.857422C35.5645 0.922988 36.3879 1.00177 37.5928 1.03125C37.6918 1.03367 37.7644 1.0708 37.8076 1.11133C37.8472 1.14846 37.8712 1.19506 37.8721 1.25977C38.0242 12.5949 39.982 107.022 40.1689 116.03C40.1695 116.059 40.1654 116.074 40.1631 116.081C40.1609 116.087 40.1582 116.092 40.1543 116.097C40.1472 116.105 40.1157 116.136 40.0322 116.154C39.0436 116.371 37.0428 116.724 34.3311 116.779C34.3082 116.78 34.2912 116.776 34.2783 116.773C33.6222 108.879 31.2011 37.9524 31.71 0.96582C31.7116 0.849623 31.7977 0.753615 31.9336 0.751953Z" stroke="black" stroke-width="1.5"/>
<path d="M36.9336 0.751953C38.1454 0.738372 38.9532 0.792344 39.7559 0.857422C40.5645 0.922988 41.3879 1.00177 42.5928 1.03125C42.6918 1.03367 42.7644 1.0708 42.8076 1.11133C42.8472 1.14846 42.8712 1.19506 42.8721 1.25977C43.0242 12.5949 44.982 107.022 45.1689 116.03C45.1695 116.059 45.1654 116.074 45.1631 116.081C45.1609 116.087 45.1582 116.092 45.1543 116.097C45.1472 116.105 45.1157 116.136 45.0322 116.154C44.0436 116.371 42.0428 116.724 39.3311 116.779C39.3082 116.78 39.2912 116.776 39.2783 116.773C38.6222 108.879 36.2011 37.9524 36.71 0.96582C36.7116 0.849623 36.7977 0.753615 36.9336 0.751953Z" fill="white"/>
<path d="M36.9336 0.751953C38.1454 0.738372 38.9532 0.792344 39.7559 0.857422C40.5645 0.922988 41.3879 1.00177 42.5928 1.03125C42.6918 1.03367 42.7644 1.0708 42.8076 1.11133C42.8472 1.14846 42.8712 1.19506 42.8721 1.25977C43.0242 12.5949 44.982 107.022 45.1689 116.03C45.1695 116.059 45.1654 116.074 45.1631 116.081C45.1609 116.087 45.1582 116.092 45.1543 116.097C45.1472 116.105 45.1157 116.136 45.0322 116.154C44.0436 116.371 42.0428 116.724 39.3311 116.779C39.3082 116.78 39.2912 116.776 39.2783 116.773C38.6222 108.879 36.2011 37.9524 36.71 0.96582C36.7116 0.849623 36.7977 0.753615 36.9336 0.751953Z" fill="url(#paint2_linear_277_904)" fill-opacity="0.5"/>
<path d="M36.9336 0.751953C38.1454 0.738372 38.9532 0.792344 39.7559 0.857422C40.5645 0.922988 41.3879 1.00177 42.5928 1.03125C42.6918 1.03367 42.7644 1.0708 42.8076 1.11133C42.8472 1.14846 42.8712 1.19506 42.8721 1.25977C43.0242 12.5949 44.982 107.022 45.1689 116.03C45.1695 116.059 45.1654 116.074 45.1631 116.081C45.1609 116.087 45.1582 116.092 45.1543 116.097C45.1472 116.105 45.1157 116.136 45.0322 116.154C44.0436 116.371 42.0428 116.724 39.3311 116.779C39.3082 116.78 39.2912 116.776 39.2783 116.773C38.6222 108.879 36.2011 37.9524 36.71 0.96582C36.7116 0.849623 36.7977 0.753615 36.9336 0.751953Z" stroke="black" stroke-width="1.5"/>
<path d="M41.9336 0.751953C43.1454 0.738372 43.9532 0.792344 44.7559 0.857422C45.5645 0.922988 46.3879 1.00177 47.5928 1.03125C47.6918 1.03367 47.7644 1.0708 47.8076 1.11133C47.8472 1.14846 47.8712 1.19506 47.8721 1.25977C48.0242 12.5949 49.982 107.022 50.1689 116.03C50.1695 116.059 50.1654 116.074 50.1631 116.081C50.1609 116.087 50.1582 116.092 50.1543 116.097C50.1472 116.105 50.1157 116.136 50.0322 116.154C49.0436 116.371 47.0428 116.724 44.3311 116.779C44.3082 116.78 44.2912 116.776 44.2783 116.773C43.6222 108.879 41.2011 37.9524 41.71 0.96582C41.7116 0.849623 41.7977 0.753615 41.9336 0.751953Z" fill="white"/>
<path d="M41.9336 0.751953C43.1454 0.738372 43.9532 0.792344 44.7559 0.857422C45.5645 0.922988 46.3879 1.00177 47.5928 1.03125C47.6918 1.03367 47.7644 1.0708 47.8076 1.11133C47.8472 1.14846 47.8712 1.19506 47.8721 1.25977C48.0242 12.5949 49.982 107.022 50.1689 116.03C50.1695 116.059 50.1654 116.074 50.1631 116.081C50.1609 116.087 50.1582 116.092 50.1543 116.097C50.1472 116.105 50.1157 116.136 50.0322 116.154C49.0436 116.371 47.0428 116.724 44.3311 116.779C44.3082 116.78 44.2912 116.776 44.2783 116.773C43.6222 108.879 41.2011 37.9524 41.71 0.96582C41.7116 0.849623 41.7977 0.753615 41.9336 0.751953Z" fill="url(#paint3_linear_277_904)" fill-opacity="0.5"/>
<path d="M41.9336 0.751953C43.1454 0.738372 43.9532 0.792344 44.7559 0.857422C45.5645 0.922988 46.3879 1.00177 47.5928 1.03125C47.6918 1.03367 47.7644 1.0708 47.8076 1.11133C47.8472 1.14846 47.8712 1.19506 47.8721 1.25977C48.0242 12.5949 49.982 107.022 50.1689 116.03C50.1695 116.059 50.1654 116.074 50.1631 116.081C50.1609 116.087 50.1582 116.092 50.1543 116.097C50.1472 116.105 50.1157 116.136 50.0322 116.154C49.0436 116.371 47.0428 116.724 44.3311 116.779C44.3082 116.78 44.2912 116.776 44.2783 116.773C43.6222 108.879 41.2011 37.9524 41.71 0.96582C41.7116 0.849623 41.7977 0.753615 41.9336 0.751953Z" stroke="black" stroke-width="1.5"/>
<path d="M47.9336 0.751953C49.1454 0.738372 49.9532 0.792344 50.7559 0.857422C51.5645 0.922988 52.3879 1.00177 53.5928 1.03125C53.6918 1.03367 53.7644 1.0708 53.8076 1.11133C53.8472 1.14846 53.8712 1.19506 53.8721 1.25977C54.0242 12.5949 55.982 107.022 56.1689 116.03C56.1695 116.059 56.1654 116.074 56.1631 116.081C56.1609 116.087 56.1582 116.092 56.1543 116.097C56.1472 116.105 56.1157 116.136 56.0322 116.154C55.0436 116.371 53.0428 116.724 50.3311 116.779C50.3082 116.78 50.2912 116.776 50.2783 116.773C49.6222 108.879 47.2011 37.9524 47.71 0.96582C47.7116 0.849623 47.7977 0.753615 47.9336 0.751953Z" fill="white"/>
<path d="M47.9336 0.751953C49.1454 0.738372 49.9532 0.792344 50.7559 0.857422C51.5645 0.922988 52.3879 1.00177 53.5928 1.03125C53.6918 1.03367 53.7644 1.0708 53.8076 1.11133C53.8472 1.14846 53.8712 1.19506 53.8721 1.25977C54.0242 12.5949 55.982 107.022 56.1689 116.03C56.1695 116.059 56.1654 116.074 56.1631 116.081C56.1609 116.087 56.1582 116.092 56.1543 116.097C56.1472 116.105 56.1157 116.136 56.0322 116.154C55.0436 116.371 53.0428 116.724 50.3311 116.779C50.3082 116.78 50.2912 116.776 50.2783 116.773C49.6222 108.879 47.2011 37.9524 47.71 0.96582C47.7116 0.849623 47.7977 0.753615 47.9336 0.751953Z" fill="url(#paint4_linear_277_904)" fill-opacity="0.5"/>
<path d="M47.9336 0.751953C49.1454 0.738372 49.9532 0.792344 50.7559 0.857422C51.5645 0.922988 52.3879 1.00177 53.5928 1.03125C53.6918 1.03367 53.7644 1.0708 53.8076 1.11133C53.8472 1.14846 53.8712 1.19506 53.8721 1.25977C54.0242 12.5949 55.982 107.022 56.1689 116.03C56.1695 116.059 56.1654 116.074 56.1631 116.081C56.1609 116.087 56.1582 116.092 56.1543 116.097C56.1472 116.105 56.1157 116.136 56.0322 116.154C55.0436 116.371 53.0428 116.724 50.3311 116.779C50.3082 116.78 50.2912 116.776 50.2783 116.773C49.6222 108.879 47.2011 37.9524 47.71 0.96582C47.7116 0.849623 47.7977 0.753615 47.9336 0.751953Z" stroke="black" stroke-width="1.5"/>
<path d="M53.9336 0.751953C55.1454 0.738372 55.9532 0.792344 56.7559 0.857422C57.5645 0.922988 58.3879 1.00177 59.5928 1.03125C59.6918 1.03367 59.7644 1.0708 59.8076 1.11133C59.8472 1.14846 59.8712 1.19506 59.8721 1.25977C60.0242 12.5949 61.982 107.022 62.1689 116.03C62.1695 116.059 62.1654 116.074 62.1631 116.081C62.1609 116.087 62.1582 116.092 62.1543 116.097C62.1472 116.105 62.1157 116.136 62.0322 116.154C61.0436 116.371 59.0428 116.724 56.3311 116.779C56.3082 116.78 56.2912 116.776 56.2783 116.773C55.6222 108.879 53.2011 37.9524 53.71 0.96582C53.7116 0.849623 53.7977 0.753615 53.9336 0.751953Z" fill="white"/>
<path d="M53.9336 0.751953C55.1454 0.738372 55.9532 0.792344 56.7559 0.857422C57.5645 0.922988 58.3879 1.00177 59.5928 1.03125C59.6918 1.03367 59.7644 1.0708 59.8076 1.11133C59.8472 1.14846 59.8712 1.19506 59.8721 1.25977C60.0242 12.5949 61.982 107.022 62.1689 116.03C62.1695 116.059 62.1654 116.074 62.1631 116.081C62.1609 116.087 62.1582 116.092 62.1543 116.097C62.1472 116.105 62.1157 116.136 62.0322 116.154C61.0436 116.371 59.0428 116.724 56.3311 116.779C56.3082 116.78 56.2912 116.776 56.2783 116.773C55.6222 108.879 53.2011 37.9524 53.71 0.96582C53.7116 0.849623 53.7977 0.753615 53.9336 0.751953Z" fill="url(#paint5_linear_277_904)" fill-opacity="0.5"/>
<path d="M53.9336 0.751953C55.1454 0.738372 55.9532 0.792344 56.7559 0.857422C57.5645 0.922988 58.3879 1.00177 59.5928 1.03125C59.6918 1.03367 59.7644 1.0708 59.8076 1.11133C59.8472 1.14846 59.8712 1.19506 59.8721 1.25977C60.0242 12.5949 61.982 107.022 62.1689 116.03C62.1695 116.059 62.1654 116.074 62.1631 116.081C62.1609 116.087 62.1582 116.092 62.1543 116.097C62.1472 116.105 62.1157 116.136 62.0322 116.154C61.0436 116.371 59.0428 116.724 56.3311 116.779C56.3082 116.78 56.2912 116.776 56.2783 116.773C55.6222 108.879 53.2011 37.9524 53.71 0.96582C53.7116 0.849623 53.7977 0.753615 53.9336 0.751953Z" stroke="black" stroke-width="1.5"/>
<path d="M59.9336 0.751953C61.1454 0.738372 61.9532 0.792344 62.7559 0.857422C63.5645 0.922988 64.3879 1.00177 65.5928 1.03125C65.6918 1.03367 65.7644 1.0708 65.8076 1.11133C65.8472 1.14846 65.8712 1.19506 65.8721 1.25977C66.0242 12.5949 67.982 107.022 68.1689 116.03C68.1695 116.059 68.1654 116.074 68.1631 116.081C68.1609 116.087 68.1582 116.092 68.1543 116.097C68.1472 116.105 68.1157 116.136 68.0322 116.154C67.0436 116.371 65.0428 116.724 62.3311 116.779C62.3082 116.78 62.2912 116.776 62.2783 116.773C61.6222 108.879 59.2011 37.9524 59.71 0.96582C59.7116 0.849623 59.7977 0.753615 59.9336 0.751953Z" fill="white"/>
<path d="M59.9336 0.751953C61.1454 0.738372 61.9532 0.792344 62.7559 0.857422C63.5645 0.922988 64.3879 1.00177 65.5928 1.03125C65.6918 1.03367 65.7644 1.0708 65.8076 1.11133C65.8472 1.14846 65.8712 1.19506 65.8721 1.25977C66.0242 12.5949 67.982 107.022 68.1689 116.03C68.1695 116.059 68.1654 116.074 68.1631 116.081C68.1609 116.087 68.1582 116.092 68.1543 116.097C68.1472 116.105 68.1157 116.136 68.0322 116.154C67.0436 116.371 65.0428 116.724 62.3311 116.779C62.3082 116.78 62.2912 116.776 62.2783 116.773C61.6222 108.879 59.2011 37.9524 59.71 0.96582C59.7116 0.849623 59.7977 0.753615 59.9336 0.751953Z" fill="url(#paint6_linear_277_904)" fill-opacity="0.5"/>
<path d="M59.9336 0.751953C61.1454 0.738372 61.9532 0.792344 62.7559 0.857422C63.5645 0.922988 64.3879 1.00177 65.5928 1.03125C65.6918 1.03367 65.7644 1.0708 65.8076 1.11133C65.8472 1.14846 65.8712 1.19506 65.8721 1.25977C66.0242 12.5949 67.982 107.022 68.1689 116.03C68.1695 116.059 68.1654 116.074 68.1631 116.081C68.1609 116.087 68.1582 116.092 68.1543 116.097C68.1472 116.105 68.1157 116.136 68.0322 116.154C67.0436 116.371 65.0428 116.724 62.3311 116.779C62.3082 116.78 62.2912 116.776 62.2783 116.773C61.6222 108.879 59.2011 37.9524 59.71 0.96582C59.7116 0.849623 59.7977 0.753615 59.9336 0.751953Z" stroke="black" stroke-width="1.5"/>
<path d="M65.9336 0.751953C67.1454 0.738372 67.9532 0.792344 68.7559 0.857422C69.5645 0.922988 70.3879 1.00177 71.5928 1.03125C71.6918 1.03367 71.7644 1.0708 71.8076 1.11133C71.8472 1.14846 71.8712 1.19506 71.8721 1.25977C72.0242 12.5949 73.982 107.022 74.1689 116.03C74.1695 116.059 74.1654 116.074 74.1631 116.081C74.1609 116.087 74.1582 116.092 74.1543 116.097C74.1472 116.105 74.1157 116.136 74.0322 116.154C73.0436 116.371 71.0428 116.724 68.3311 116.779C68.3082 116.78 68.2912 116.776 68.2783 116.773C67.6222 108.879 65.2011 37.9524 65.71 0.96582C65.7116 0.849623 65.7977 0.753615 65.9336 0.751953Z" fill="white"/>
<path d="M65.9336 0.751953C67.1454 0.738372 67.9532 0.792344 68.7559 0.857422C69.5645 0.922988 70.3879 1.00177 71.5928 1.03125C71.6918 1.03367 71.7644 1.0708 71.8076 1.11133C71.8472 1.14846 71.8712 1.19506 71.8721 1.25977C72.0242 12.5949 73.982 107.022 74.1689 116.03C74.1695 116.059 74.1654 116.074 74.1631 116.081C74.1609 116.087 74.1582 116.092 74.1543 116.097C74.1472 116.105 74.1157 116.136 74.0322 116.154C73.0436 116.371 71.0428 116.724 68.3311 116.779C68.3082 116.78 68.2912 116.776 68.2783 116.773C67.6222 108.879 65.2011 37.9524 65.71 0.96582C65.7116 0.849623 65.7977 0.753615 65.9336 0.751953Z" fill="url(#paint7_linear_277_904)" fill-opacity="0.5"/>
<path d="M65.9336 0.751953C67.1454 0.738372 67.9532 0.792344 68.7559 0.857422C69.5645 0.922988 70.3879 1.00177 71.5928 1.03125C71.6918 1.03367 71.7644 1.0708 71.8076 1.11133C71.8472 1.14846 71.8712 1.19506 71.8721 1.25977C72.0242 12.5949 73.982 107.022 74.1689 116.03C74.1695 116.059 74.1654 116.074 74.1631 116.081C74.1609 116.087 74.1582 116.092 74.1543 116.097C74.1472 116.105 74.1157 116.136 74.0322 116.154C73.0436 116.371 71.0428 116.724 68.3311 116.779C68.3082 116.78 68.2912 116.776 68.2783 116.773C67.6222 108.879 65.2011 37.9524 65.71 0.96582C65.7116 0.849623 65.7977 0.753615 65.9336 0.751953Z" stroke="black" stroke-width="1.5"/>
<path d="M71.9336 0.751953C73.1454 0.738372 73.9532 0.792344 74.7559 0.857422C75.5645 0.922988 76.3879 1.00177 77.5928 1.03125C77.6918 1.03367 77.7644 1.0708 77.8076 1.11133C77.8472 1.14846 77.8712 1.19506 77.8721 1.25977C78.0242 12.5949 79.982 107.022 80.1689 116.03C80.1695 116.059 80.1654 116.074 80.1631 116.081C80.1609 116.087 80.1582 116.092 80.1543 116.097C80.1472 116.105 80.1157 116.136 80.0322 116.154C79.0436 116.371 77.0428 116.724 74.3311 116.779C74.3082 116.78 74.2912 116.776 74.2783 116.773C73.6222 108.879 71.2011 37.9524 71.71 0.96582C71.7116 0.849623 71.7977 0.753615 71.9336 0.751953Z" fill="white"/>
<path d="M71.9336 0.751953C73.1454 0.738372 73.9532 0.792344 74.7559 0.857422C75.5645 0.922988 76.3879 1.00177 77.5928 1.03125C77.6918 1.03367 77.7644 1.0708 77.8076 1.11133C77.8472 1.14846 77.8712 1.19506 77.8721 1.25977C78.0242 12.5949 79.982 107.022 80.1689 116.03C80.1695 116.059 80.1654 116.074 80.1631 116.081C80.1609 116.087 80.1582 116.092 80.1543 116.097C80.1472 116.105 80.1157 116.136 80.0322 116.154C79.0436 116.371 77.0428 116.724 74.3311 116.779C74.3082 116.78 74.2912 116.776 74.2783 116.773C73.6222 108.879 71.2011 37.9524 71.71 0.96582C71.7116 0.849623 71.7977 0.753615 71.9336 0.751953Z" fill="url(#paint8_linear_277_904)" fill-opacity="0.5"/>
<path d="M71.9336 0.751953C73.1454 0.738372 73.9532 0.792344 74.7559 0.857422C75.5645 0.922988 76.3879 1.00177 77.5928 1.03125C77.6918 1.03367 77.7644 1.0708 77.8076 1.11133C77.8472 1.14846 77.8712 1.19506 77.8721 1.25977C78.0242 12.5949 79.982 107.022 80.1689 116.03C80.1695 116.059 80.1654 116.074 80.1631 116.081C80.1609 116.087 80.1582 116.092 80.1543 116.097C80.1472 116.105 80.1157 116.136 80.0322 116.154C79.0436 116.371 77.0428 116.724 74.3311 116.779C74.3082 116.78 74.2912 116.776 74.2783 116.773C73.6222 108.879 71.2011 37.9524 71.71 0.96582C71.7116 0.849623 71.7977 0.753615 71.9336 0.751953Z" stroke="black" stroke-width="1.5"/>
<path d="M73.9238 87.796L58.0791 106.267L48.0029 95.1417L62.4141 78.6095L73.9238 87.796Z" fill="white"/>
<path d="M73.9238 87.796L58.0791 106.267L48.0029 95.1417L62.4141 78.6095L73.9238 87.796Z" fill="url(#paint9_linear_277_904)" fill-opacity="0.5"/>
<path d="M73.9238 87.796L58.0791 106.267L48.0029 95.1417L62.4141 78.6095L73.9238 87.796Z" stroke="black" stroke-width="1.5"/>
<path d="M72.1748 87.0482C74.5124 88.388 77.5355 90.7395 79.5859 93.7601C81.7761 96.9867 82.8253 100.913 80.8477 105.236L80.6406 105.688L80.9766 106.054C85.1465 110.612 95.1831 120.605 105.552 131.074L103.792 132.578L77.7979 109.196L77.4131 108.85L76.9531 109.087C74.6654 110.266 70.8925 111.427 67.0596 111.083C63.3916 110.755 59.6545 109.052 57.0449 104.587L72.1748 87.0482Z" fill="white"/>
<path d="M72.1748 87.0482C74.5124 88.388 77.5355 90.7395 79.5859 93.7601C81.7761 96.9867 82.8253 100.913 80.8477 105.236L80.6406 105.688L80.9766 106.054C85.1465 110.612 95.1831 120.605 105.552 131.074L103.792 132.578L77.7979 109.196L77.4131 108.85L76.9531 109.087C74.6654 110.266 70.8925 111.427 67.0596 111.083C63.3916 110.755 59.6545 109.052 57.0449 104.587L72.1748 87.0482Z" fill="url(#paint10_linear_277_904)" fill-opacity="0.5"/>
<path d="M72.1748 87.0482C74.5124 88.388 77.5355 90.7395 79.5859 93.7601C81.7761 96.9867 82.8253 100.913 80.8477 105.236L80.6406 105.688L80.9766 106.054C85.1465 110.612 95.1831 120.605 105.552 131.074L103.792 132.578L77.7979 109.196L77.4131 108.85L76.9531 109.087C74.6654 110.266 70.8925 111.427 67.0596 111.083C63.3916 110.755 59.6545 109.052 57.0449 104.587L72.1748 87.0482Z" stroke="black" stroke-width="1.5"/>
<defs>
<linearGradient id="paint0_linear_277_904" x1="30.8455" y1="14.1999" x2="12.9065" y2="18.7873" gradientUnits="userSpaceOnUse">
<stop stop-color="white" stop-opacity="0"/>
<stop offset="1" stop-color="white"/>
</linearGradient>
<linearGradient id="paint1_linear_277_904" x1="35.8455" y1="14.1999" x2="17.9065" y2="18.7873" gradientUnits="userSpaceOnUse">
<stop stop-color="white" stop-opacity="0"/>
<stop offset="1" stop-color="white"/>
</linearGradient>
<linearGradient id="paint2_linear_277_904" x1="40.8455" y1="14.1999" x2="22.9065" y2="18.7873" gradientUnits="userSpaceOnUse">
<stop stop-color="white" stop-opacity="0"/>
<stop offset="1" stop-color="white"/>
</linearGradient>
<linearGradient id="paint3_linear_277_904" x1="45.8455" y1="14.1999" x2="27.9065" y2="18.7873" gradientUnits="userSpaceOnUse">
<stop stop-color="white" stop-opacity="0"/>
<stop offset="1" stop-color="white"/>
</linearGradient>
<linearGradient id="paint4_linear_277_904" x1="51.8455" y1="14.1999" x2="33.9065" y2="18.7873" gradientUnits="userSpaceOnUse">
<stop stop-color="white" stop-opacity="0"/>
<stop offset="1" stop-color="white"/>
</linearGradient>
<linearGradient id="paint5_linear_277_904" x1="57.8455" y1="14.1999" x2="39.9065" y2="18.7873" gradientUnits="userSpaceOnUse">
<stop stop-color="white" stop-opacity="0"/>
<stop offset="1" stop-color="white"/>
</linearGradient>
<linearGradient id="paint6_linear_277_904" x1="63.8455" y1="14.1999" x2="45.9065" y2="18.7873" gradientUnits="userSpaceOnUse">
<stop stop-color="white" stop-opacity="0"/>
<stop offset="1" stop-color="white"/>
</linearGradient>
<linearGradient id="paint7_linear_277_904" x1="69.8455" y1="14.1999" x2="51.9065" y2="18.7873" gradientUnits="userSpaceOnUse">
<stop stop-color="white" stop-opacity="0"/>
<stop offset="1" stop-color="white"/>
</linearGradient>
<linearGradient id="paint8_linear_277_904" x1="75.8455" y1="14.1999" x2="57.9065" y2="18.7873" gradientUnits="userSpaceOnUse">
<stop stop-color="white" stop-opacity="0"/>
<stop offset="1" stop-color="white"/>
</linearGradient>
<linearGradient id="paint9_linear_277_904" x1="60.8146" y1="81.1787" x2="54.8232" y2="98.0119" gradientUnits="userSpaceOnUse">
<stop stop-color="white" stop-opacity="0"/>
<stop offset="1" stop-color="white"/>
</linearGradient>
<linearGradient id="paint10_linear_277_904" x1="81.0591" y1="91.833" x2="72.43" y2="119.314" gradientUnits="userSpaceOnUse">
<stop stop-color="white" stop-opacity="0"/>
<stop offset="1" stop-color="white"/>
</linearGradient>
</defs>
</svg>
