<svg width="141" height="140" viewBox="0 0 141 140" fill="none" xmlns="http://www.w3.org/2000/svg">
<path d="M55.2674 119.81C30.5308 116.157 21.1418 72.3707 24.0047 54.1732C24.2277 52.7559 24.7977 51.4385 25.5404 50.2109L35.0899 34.428C37.626 30.2363 42.1688 27.6753 47.068 27.6753H61.9999C63.1693 27.6753 64.334 27.8218 65.4669 28.1114L86.4879 33.4844C87.5079 33.7451 88.498 34.1117 89.414 34.6308C92.5047 36.3821 96.8527 39.3287 96.8527 41.3184C96.8527 43.3236 99.9035 55.0851 102.042 62.9877C102.497 64.6693 101.232 66.3257 99.4899 66.3257C98.0334 66.3257 96.7048 67.4762 96.4343 68.9074C94.3052 80.1717 83.643 124 55.2674 119.81Z" fill="black"/>
<path d="M95.3525 41.3188C95.3513 41.3172 95.324 41.0911 94.9434 40.604C94.5833 40.1433 94.0364 39.6134 93.3428 39.0464C91.9614 37.9174 90.1828 36.7906 88.6748 35.936C87.898 35.4959 87.0367 35.1733 86.1162 34.938L65.0957 29.5649C64.0842 29.3064 63.044 29.1753 62 29.1753H47.0684C42.6941 29.1753 38.6375 31.462 36.373 35.2046L26.8242 50.9878C26.1489 52.1039 25.6704 53.2365 25.4863 54.4067C24.1035 63.1972 25.6793 78.4296 30.6924 91.9233C35.7381 105.505 43.9899 116.628 55.4863 118.326C68.6905 120.276 77.9739 111.137 84.3769 99.4341C90.7437 87.7972 93.906 74.2044 94.96 68.6284C95.358 66.5231 97.2786 64.8257 99.4902 64.8257C100.242 64.8255 100.791 64.1099 100.594 63.3794C99.5233 59.4229 98.2223 54.4946 97.1885 50.3003C96.6719 48.2045 96.2199 46.281 95.8955 44.7495C95.5865 43.2906 95.3526 42.0105 95.3525 41.3188ZM96.8613 41.5347C97.0424 44.0552 99.9707 55.3322 102.042 62.9878C102.497 64.6693 101.232 66.3255 99.4902 66.3257L99.2187 66.3394C97.8716 66.4709 96.6882 67.566 96.4346 68.9077L96.209 70.0562C93.6419 82.7605 82.931 123.21 55.9287 119.899L55.2676 119.81C30.9174 116.214 21.4391 73.7288 23.8799 55.0444L24.0049 54.1733C24.2279 52.756 24.7973 51.438 25.54 50.2104L35.0898 34.4282C37.5467 30.3677 41.8866 27.8374 46.6094 27.6831L47.0684 27.6753H62L62.4385 27.6821C63.4601 27.7141 64.4756 27.8585 65.4668 28.1118L86.4883 33.4849C87.508 33.7456 88.4983 34.1115 89.4141 34.6304C92.5048 36.3817 96.8525 39.3291 96.8525 41.3188L96.8613 41.5347Z" fill="black"/>
<path d="M55.9375 5.24728C55.9375 4.66423 56.4331 4.20547 57.0138 4.2583C58.5993 4.40254 61.4322 4.69423 61.9568 4.97822C62.6277 5.34135 63.4591 5.61001 64.4538 5.61001C65.9263 5.61001 66.7521 5.54184 68.7751 5.51744C70.4107 5.49772 72.37 5.52916 74.3054 5.82986C76.2363 6.12989 78.5009 6.75143 80.485 8.14179C82.5841 9.61277 83.969 14.0354 84.5355 16.5286C84.7941 17.6671 84.9716 18.4742 85.1348 19.1095C85.2365 19.5056 85.5832 19.7855 85.9917 19.8031C86.3518 19.8186 86.7929 19.8287 87.3322 19.8287C88.9964 19.8287 90.7466 20.1665 92.3159 21.0876C93.8821 22.0069 94.8295 23.2504 95.3912 24.4039C96.3884 26.4526 96.4163 28.7971 96.4163 30.1965C96.4163 32.0276 96.3419 33.0576 96.4663 34.0428C96.4734 34.099 96.5094 34.1477 96.5574 34.1777C98.6177 35.4664 101.119 37.3565 102.578 39.9255C103.471 41.4989 103.996 43.368 103.745 45.4381C103.56 46.955 102.978 48.388 102.095 49.7278C101.837 50.119 101.851 50.6364 102.171 50.9788C102.361 51.1822 102.588 51.4198 102.859 51.6981C103.702 52.5644 105.368 54.2037 106.268 56.1183C106.772 57.1911 107.137 58.5277 106.967 60.0409C106.794 61.5782 106.106 62.9583 105.096 64.1441C103.745 65.7294 102.38 66.8275 101.205 67.6455C100.845 67.8961 100.725 68.3743 100.932 68.7608C102.037 70.8205 103.085 73.1666 103.298 75.5995C103.536 78.3228 102.728 80.8505 100.845 83.1219C100.525 83.508 100.505 84.0654 100.801 84.4706C101.001 84.746 101.195 85.0346 101.358 85.3217C102.235 86.8669 102.738 88.9183 101.86 91.2369C100.96 93.6132 99.0924 94.9203 97.6228 95.6547C97.2983 95.8169 96.9733 95.9584 96.6817 96.0789C96.504 96.1524 96.4087 96.352 96.4768 96.5318C97.1431 98.2919 97.8351 100.182 98.2457 101.989C98.6556 103.793 98.8858 105.916 98.2747 108.068C96.9385 112.773 92.4664 115.26 86.8647 116.635C86.3511 116.761 85.8342 116.452 85.6897 115.943L83.6245 108.673C83.4671 108.119 83.8102 107.55 84.3673 107.404C86.0182 106.972 86.9188 106.544 87.3822 106.238C87.8011 105.961 87.8108 105.832 87.829 105.768C87.8907 105.55 87.9523 105.006 87.6897 103.849C87.4275 102.695 86.9416 101.325 86.2624 99.5311C85.4587 97.408 84.9928 95.1183 85.7131 92.9216C86.5322 90.4252 88.5069 89.106 89.9318 88.4089C90.225 88.2655 90.3193 87.8923 90.1279 87.628C89.5327 86.8057 88.8263 85.5567 88.728 84.0026C88.5696 81.4925 89.9861 79.5137 91.6009 78.092C92.1818 77.5805 92.3891 77.2316 92.4709 77.0459C92.5458 76.876 92.5929 76.6691 92.5629 76.3262C92.4846 75.4307 91.9535 74.1121 90.5916 71.7139C89.8197 70.3547 88.9826 68.5452 89.1827 66.5486C89.4231 64.1495 90.9918 62.6631 92.0714 61.8483C93.5911 60.7014 94.3498 60.3991 95.1709 59.75C95.5818 59.4252 95.595 58.8237 95.2356 58.4426C95.0759 58.2732 94.8932 58.0826 94.6841 57.8678C93.8407 57.0015 92.1749 55.3622 91.275 53.4476C90.7708 52.3749 90.4054 51.0383 90.5758 49.525C90.749 47.9877 91.4372 46.6077 92.4473 45.4219L92.7732 44.996C92.917 44.7809 92.9837 44.6282 93.0147 44.5356C93.0379 44.4663 93.0469 44.3908 93.0219 44.3221C93.0078 44.2832 92.9846 44.2319 92.9467 44.1652C92.8051 43.916 92.4988 43.5309 91.9058 43.0336C91.3221 42.5441 90.5829 42.0465 89.7294 41.5455C86.6075 39.7131 85.9697 36.6845 85.7683 35.0888C85.5562 33.408 85.65 31.3275 85.65 30.1965C85.65 29.6777 85.2317 29.267 84.714 29.2324C82.127 29.0599 79.2672 28.4549 77.1889 26.3201C75.9048 25.0012 75.3115 23.4847 74.9494 22.3234C74.5899 21.1704 74.2878 17.3768 73.9795 16.0195C73.9174 15.7464 73.8423 15.6295 73.8244 15.6029C73.8098 15.5813 73.805 15.5725 73.7823 15.5566C73.7058 15.503 73.3628 15.3098 72.4339 15.1655C71.5096 15.0219 70.3566 14.9793 68.9223 14.9966C67.8751 15.0092 65.6729 15.0891 64.4538 15.0891C58.1739 15.0891 57.5895 14.63 56.1412 12.7288C56.0092 12.5554 55.9375 12.3422 55.9375 12.1243V5.24728Z" fill="white"/>
<path d="M55.9375 5.24728C55.9375 4.66423 56.4331 4.20547 57.0138 4.2583C58.5993 4.40254 61.4322 4.69423 61.9568 4.97822C62.6277 5.34135 63.4591 5.61001 64.4538 5.61001C65.9263 5.61001 66.7521 5.54184 68.7751 5.51744C70.4107 5.49772 72.37 5.52916 74.3054 5.82986C76.2363 6.12989 78.5009 6.75143 80.485 8.14179C82.5841 9.61277 83.969 14.0354 84.5355 16.5286C84.7941 17.6671 84.9716 18.4742 85.1348 19.1095C85.2365 19.5056 85.5832 19.7855 85.9917 19.8031C86.3518 19.8186 86.7929 19.8287 87.3322 19.8287C88.9964 19.8287 90.7466 20.1665 92.3159 21.0876C93.8821 22.0069 94.8295 23.2504 95.3912 24.4039C96.3884 26.4526 96.4163 28.7971 96.4163 30.1965C96.4163 32.0276 96.3419 33.0576 96.4663 34.0428C96.4734 34.099 96.5094 34.1477 96.5574 34.1777C98.6177 35.4664 101.119 37.3565 102.578 39.9255C103.471 41.4989 103.996 43.368 103.745 45.4381C103.56 46.955 102.978 48.388 102.095 49.7278C101.837 50.119 101.851 50.6364 102.171 50.9788C102.361 51.1822 102.588 51.4198 102.859 51.6981C103.702 52.5644 105.368 54.2037 106.268 56.1183C106.772 57.1911 107.137 58.5277 106.967 60.0409C106.794 61.5782 106.106 62.9583 105.096 64.1441C103.745 65.7294 102.38 66.8275 101.205 67.6455C100.845 67.8961 100.725 68.3743 100.932 68.7608C102.037 70.8205 103.085 73.1666 103.298 75.5995C103.536 78.3228 102.728 80.8505 100.845 83.1219C100.525 83.508 100.505 84.0654 100.801 84.4706C101.001 84.746 101.195 85.0346 101.358 85.3217C102.235 86.8669 102.738 88.9183 101.86 91.2369C100.96 93.6132 99.0924 94.9203 97.6228 95.6547C97.2983 95.8169 96.9733 95.9584 96.6817 96.0789C96.504 96.1524 96.4087 96.352 96.4768 96.5318C97.1431 98.2919 97.8351 100.182 98.2457 101.989C98.6556 103.793 98.8858 105.916 98.2747 108.068C96.9385 112.773 92.4664 115.26 86.8647 116.635C86.3511 116.761 85.8342 116.452 85.6897 115.943L83.6245 108.673C83.4671 108.119 83.8102 107.55 84.3673 107.404C86.0182 106.972 86.9188 106.544 87.3822 106.238C87.8011 105.961 87.8108 105.832 87.829 105.768C87.8907 105.55 87.9523 105.006 87.6897 103.849C87.4275 102.695 86.9416 101.325 86.2624 99.5311C85.4587 97.408 84.9928 95.1183 85.7131 92.9216C86.5322 90.4252 88.5069 89.106 89.9318 88.4089C90.225 88.2655 90.3193 87.8923 90.1279 87.628C89.5327 86.8057 88.8263 85.5567 88.728 84.0026C88.5696 81.4925 89.9861 79.5137 91.6009 78.092C92.1818 77.5805 92.3891 77.2316 92.4709 77.0459C92.5458 76.876 92.5929 76.6691 92.5629 76.3262C92.4846 75.4307 91.9535 74.1121 90.5916 71.7139C89.8197 70.3547 88.9826 68.5452 89.1827 66.5486C89.4231 64.1495 90.9918 62.6631 92.0714 61.8483C93.5911 60.7014 94.3498 60.3991 95.1709 59.75C95.5818 59.4252 95.595 58.8237 95.2356 58.4426C95.0759 58.2732 94.8932 58.0826 94.6841 57.8678C93.8407 57.0015 92.1749 55.3622 91.275 53.4476C90.7708 52.3749 90.4054 51.0383 90.5758 49.525C90.749 47.9877 91.4372 46.6077 92.4473 45.4219L92.7732 44.996C92.917 44.7809 92.9837 44.6282 93.0147 44.5356C93.0379 44.4663 93.0469 44.3908 93.0219 44.3221C93.0078 44.2832 92.9846 44.2319 92.9467 44.1652C92.8051 43.916 92.4988 43.5309 91.9058 43.0336C91.3221 42.5441 90.5829 42.0465 89.7294 41.5455C86.6075 39.7131 85.9697 36.6845 85.7683 35.0888C85.5562 33.408 85.65 31.3275 85.65 30.1965C85.65 29.6777 85.2317 29.267 84.714 29.2324C82.127 29.0599 79.2672 28.4549 77.1889 26.3201C75.9048 25.0012 75.3115 23.4847 74.9494 22.3234C74.5899 21.1704 74.2878 17.3768 73.9795 16.0195C73.9174 15.7464 73.8423 15.6295 73.8244 15.6029C73.8098 15.5813 73.805 15.5725 73.7823 15.5566C73.7058 15.503 73.3628 15.3098 72.4339 15.1655C71.5096 15.0219 70.3566 14.9793 68.9223 14.9966C67.8751 15.0092 65.6729 15.0891 64.4538 15.0891C58.1739 15.0891 57.5895 14.63 56.1412 12.7288C56.0092 12.5554 55.9375 12.3422 55.9375 12.1243V5.24728Z" fill="url(#paint0_linear_277_926)" fill-opacity="0.2"/>
<path d="M85.6504 30.1962C85.6502 29.6775 85.2314 29.2668 84.7139 29.2323C82.2076 29.0652 79.4455 28.4921 77.3857 26.5155L77.1885 26.3202C75.9045 25.0012 75.3113 23.4844 74.9492 22.3231C74.6123 21.2418 74.3256 17.8411 74.0371 16.3016L73.9795 16.0194C73.9175 15.7463 73.8421 15.629 73.8242 15.6024C73.8099 15.5811 73.8047 15.5723 73.7822 15.5565C73.7151 15.5095 73.4441 15.3558 72.7559 15.2215L72.4336 15.1659C71.5093 15.0223 70.3561 14.9796 68.9219 14.9969L66.7529 15.0477C65.9191 15.0693 65.0637 15.0887 64.4541 15.0887V13.5887C65.6926 13.5887 67.7585 13.5108 68.9043 13.4969C70.3622 13.4794 71.6145 13.5204 72.6641 13.6835C73.5766 13.8252 74.147 14.0306 74.5029 14.2391L74.6436 14.328L74.7861 14.4403C74.8381 14.4859 74.8933 14.5408 74.9482 14.6053C74.9954 14.6607 75.0295 14.7083 75.0469 14.7333C75.0537 14.7431 75.0639 14.7579 75.0684 14.7645C75.1905 14.9459 75.3396 15.235 75.4424 15.6874C75.6177 16.4595 75.7818 17.8554 75.9336 19.0604C76.1016 20.3937 76.2521 21.4606 76.3818 21.8768C76.7168 22.9513 77.2222 24.2034 78.2637 25.2733C79.9474 27.0027 82.3383 27.5711 84.8135 27.7362C86.0476 27.8185 87.1502 28.8182 87.1504 30.1962C87.1504 31.439 87.0605 33.3449 87.2568 34.9012C87.4414 36.3635 87.9863 38.7831 90.4883 40.2518C91.3827 40.7768 92.1987 41.3224 92.8691 41.8846H92.8701C93.5464 42.4518 93.9923 42.9692 94.251 43.4247C94.3205 43.5471 94.3828 43.6751 94.4316 43.8094C94.617 44.3199 94.5175 44.7725 94.4375 45.0116C94.3582 45.2485 94.2268 45.5202 94.0205 45.829L93.9941 45.869L93.9639 45.9081L93.6387 46.3339L93.6143 46.3651L93.5889 46.3944C92.733 47.3991 92.1999 48.5083 92.0664 49.6932C91.935 50.8607 92.2128 51.9157 92.6328 52.8094C93.4044 54.451 94.8671 55.9052 95.7588 56.8212C95.9726 57.0408 96.1612 57.2379 96.3271 57.4139C97.2237 58.3651 97.2757 59.9981 96.1016 60.9266C95.61 61.3152 95.1313 61.6022 94.6758 61.8856C94.2118 62.1743 93.6838 62.5106 92.9746 63.0458C92.0085 63.7749 90.8523 64.9273 90.6748 66.6981C90.5238 68.2053 91.1529 69.6659 91.8955 70.9735C93.2433 73.3469 93.947 74.9311 94.0576 76.1952C94.1068 76.7578 94.0322 77.2222 93.8438 77.6503V77.6512C93.6542 78.0811 93.2945 78.5989 92.5918 79.2176C91.1312 80.5036 90.1086 82.0693 90.2246 83.9081C90.2977 85.0623 90.8287 86.0377 91.3428 86.7479C92.0835 87.7711 91.7148 89.2069 90.5908 89.7567C89.3141 90.3814 87.7725 91.4579 87.1387 93.3895C86.5777 95.1007 86.9056 96.9938 87.665 98.9999C88.341 100.785 88.8638 102.247 89.1523 103.517C89.441 104.789 89.4313 105.616 89.2725 106.177V106.178C89.2592 106.224 89.232 106.313 89.2061 106.379C89.1434 106.538 89.0574 106.69 88.9482 106.833C88.7475 107.096 88.4864 107.306 88.209 107.489L88.208 107.49C87.616 107.881 86.674 108.312 85.1992 108.729L86.9961 115.054C92.2127 113.692 95.7629 111.423 96.832 107.658C97.3453 105.85 97.167 104.011 96.7832 102.321C96.3985 100.628 95.7424 98.8284 95.0742 97.0633V97.0624C94.6972 96.0658 95.2412 95.0509 96.1094 94.6923L96.5283 94.5126C96.6697 94.4494 96.8121 94.3833 96.9521 94.3133C98.2601 93.6597 99.7468 92.5809 100.457 90.7059C101.141 88.8992 100.766 87.3166 100.054 86.0624C99.9271 85.8395 99.7679 85.6 99.5889 85.3544C98.8859 84.3899 98.9364 83.0746 99.6904 82.1649L99.9873 81.7899C101.416 79.9094 101.992 77.8922 101.804 75.7303C101.619 73.6126 100.693 71.4878 99.6104 69.4696C99.0339 68.3949 99.3801 67.0892 100.349 66.4149L100.769 66.1151C101.764 65.3876 102.864 64.451 103.954 63.1717C104.81 62.167 105.343 61.0579 105.477 59.8729C105.608 58.7054 105.33 57.6505 104.91 56.7567C104.139 55.115 102.676 53.66 101.784 52.744C101.508 52.4602 101.274 52.2153 101.075 52.0028C100.225 51.0924 100.252 49.7984 100.843 48.9022L101.121 48.4579C101.737 47.4164 102.123 46.3487 102.256 45.2567C102.462 43.5613 102.038 42.0124 101.273 40.6659C100.003 38.4289 97.7632 36.7011 95.7617 35.4491C95.4042 35.2253 95.0519 34.8116 94.9785 34.2303C94.8385 33.1209 94.916 31.8811 94.916 30.1962C94.916 28.7814 94.8714 26.7624 94.043 25.0604C93.5882 24.1265 92.8268 23.1273 91.5566 22.3817C90.2723 21.6278 88.8008 21.329 87.332 21.329C86.7745 21.329 86.312 21.3182 85.9277 21.3016C84.8619 21.2558 83.9484 20.5212 83.6816 19.4823C83.5117 18.8202 83.3273 17.9795 83.0732 16.8612C82.8029 15.6715 82.3385 14.0331 81.7041 12.538C81.04 10.9729 80.304 9.84648 79.624 9.36999C77.9008 8.1625 75.8874 7.59396 74.0752 7.31237C72.2643 7.03101 70.4035 6.99803 68.793 7.01745C66.9198 7.04004 65.8776 7.11021 64.4541 7.11022C63.2117 7.11022 62.1607 6.77967 61.3125 6.33288C61.302 6.32965 61.287 6.32474 61.2666 6.31921C61.186 6.29737 61.066 6.27 60.9043 6.23913C60.5824 6.17767 60.1628 6.11516 59.6895 6.05358C58.9546 5.95798 58.1353 5.87368 57.4375 5.80651V11.953C58.0524 12.7502 58.326 12.9981 58.9385 13.1923C59.7918 13.4627 61.2709 13.5887 64.4541 13.5887V15.0887L63.3418 15.0839C58.4469 15.0303 57.5996 14.5776 56.4043 13.0682L56.1416 12.7284C56.0096 12.555 55.9375 12.3418 55.9375 12.1239V5.24694C55.9377 4.66406 56.4332 4.20589 57.0137 4.25866C58.5991 4.4029 61.4325 4.69439 61.957 4.97839C62.5441 5.2961 63.2541 5.5412 64.0889 5.59753L64.4541 5.61022C65.5582 5.61021 66.2987 5.57132 67.4531 5.54186L68.7754 5.51745C70.4109 5.49773 72.3704 5.52926 74.3057 5.82995C76.2365 6.12999 78.5013 6.75117 80.4854 8.14147C82.5843 9.61243 83.9685 14.0349 84.5352 16.5282C84.7937 17.6665 84.9716 18.4739 85.1348 19.1092C85.2365 19.5053 85.5837 19.785 85.9922 19.8026C86.3522 19.8181 86.793 19.829 87.332 19.829C88.9961 19.829 90.7462 20.1668 92.3154 21.0878C93.8816 22.0071 94.8299 23.2506 95.3916 24.4042C96.3886 26.4526 96.416 28.7968 96.416 30.1962C96.416 32.0273 96.3415 33.0577 96.4658 34.0428C96.4729 34.099 96.5096 34.1476 96.5576 34.1776C98.6178 35.4663 101.118 37.3567 102.577 39.9257C103.471 41.499 103.996 43.3683 103.744 45.4383L103.705 45.7215C103.486 47.1336 102.923 48.4715 102.096 49.7274C101.838 50.1186 101.851 50.636 102.171 50.9784C102.361 51.1818 102.588 51.4199 102.858 51.6981C103.702 52.5644 105.368 54.2036 106.268 56.118C106.772 57.1908 107.137 58.5276 106.967 60.0409C106.794 61.5782 106.106 62.9586 105.096 64.1444L104.589 64.7157C103.407 65.9992 102.233 66.9296 101.205 67.6454C100.845 67.896 100.724 68.3742 100.932 68.7606C102.037 70.8203 103.085 73.1666 103.298 75.5995C103.536 78.3227 102.727 80.8506 100.845 83.1219C100.525 83.508 100.505 84.0654 100.801 84.4706C101.002 84.746 101.194 85.0351 101.357 85.3221C102.235 86.8674 102.738 88.9187 101.86 91.2372L101.681 91.6698C100.729 93.7743 99.0009 94.9666 97.623 95.6551L97.1396 95.8827C96.9815 95.9533 96.8273 96.0188 96.6816 96.079C96.5039 96.1525 96.4085 96.3522 96.4766 96.5321C97.1429 98.2921 97.8355 100.182 98.2461 101.989C98.6559 103.793 98.8855 105.916 98.2744 108.068C96.9383 112.773 92.4667 115.259 86.8652 116.635L86.7686 116.654C86.32 116.718 85.8866 116.459 85.7207 116.036L85.6895 115.943L83.625 108.674C83.4676 108.12 83.8101 107.55 84.3672 107.404C85.8117 107.026 86.6821 106.651 87.1875 106.358L87.3818 106.238C87.7998 105.962 87.8109 105.833 87.8291 105.768C87.8831 105.578 87.9368 105.137 87.7734 104.255L87.6895 103.849C87.4928 102.984 87.1707 101.997 86.7354 100.801L86.2627 99.5311C85.4589 97.4081 84.9926 95.1183 85.7129 92.9217C86.4808 90.5815 88.2642 89.2753 89.6582 88.5467L89.9316 88.409C90.2248 88.2657 90.3193 87.8921 90.1279 87.6278C89.5698 86.8568 88.9136 85.7109 88.7529 84.2899L88.7275 84.0028C88.5692 81.4928 89.9858 79.5134 91.6006 78.0917C92.1815 77.5802 92.3889 77.2314 92.4707 77.0458C92.5455 76.8758 92.5924 76.6689 92.5625 76.326C92.4939 75.5426 92.0793 74.4351 91.0645 72.5643L90.5918 71.7137C89.8682 70.4395 89.0872 68.7696 89.1572 66.9208L89.1826 66.5487C89.393 64.4492 90.6206 63.0485 91.6475 62.1854L92.0713 61.8485C93.4011 60.845 94.1482 60.4878 94.8643 59.9794L95.1709 59.7499C95.5818 59.425 95.5947 58.8233 95.2354 58.4423L94.6846 57.868C93.8939 57.0559 92.3797 55.5643 91.4521 53.8036L91.2754 53.4481C90.8027 52.4424 90.4514 51.2042 90.5498 49.8065L90.5762 49.5253C90.7493 47.9879 91.4371 46.6076 92.4473 45.4217L92.7734 44.996C92.8454 44.8883 92.898 44.7963 92.9365 44.7196L93.0146 44.536C93.0379 44.4667 93.0464 44.3909 93.0215 44.3221C93.0074 44.2833 92.9842 44.2316 92.9463 44.1649C92.8224 43.9468 92.5727 43.6247 92.1152 43.2147L91.9062 43.0331C91.4685 42.666 90.9429 42.295 90.3477 41.9208L89.7295 41.5458C86.8028 39.8279 86.059 37.0584 85.8115 35.4042L85.7686 35.0887C85.6095 33.8282 85.6222 32.343 85.6387 31.202L85.6504 30.1962Z" fill="black"/>
<path d="M53.5 12.1651C53.5 11.5818 53.996 11.123 54.5768 11.1762C56.1624 11.3215 58.9948 11.6153 59.5193 11.9013C60.1902 12.267 61.0216 12.5376 62.0163 12.5376C63.4888 12.5376 64.3146 12.4689 66.3376 12.4444C67.9732 12.4245 69.9325 12.4562 71.8679 12.759C73.7988 13.0612 76.0634 13.6872 78.0475 15.0876C80.1466 16.5691 81.5315 21.0236 82.098 23.5347C82.3571 24.6834 82.5348 25.4972 82.6982 26.1377C82.7994 26.5344 83.1462 26.8151 83.5552 26.8328C83.9152 26.8484 84.3559 26.8586 84.8947 26.8586C86.5589 26.8586 88.3091 27.1988 89.8784 28.1266C91.4446 29.0525 92.392 30.3049 92.9537 31.4667C93.9509 33.5301 93.9788 35.8915 93.9788 37.301C93.9788 39.1452 93.9044 40.1827 94.0288 41.1749C94.0359 41.2315 94.072 41.2806 94.1203 41.3111C96.1805 42.609 98.6812 44.5126 100.14 47.1C101.033 48.6846 101.559 50.5672 101.307 52.6522C101.122 54.1831 100.538 55.629 99.6525 56.9808C99.3971 57.3705 99.4106 57.8845 99.7274 58.2262C99.9187 58.4326 100.147 58.6739 100.421 58.9572C101.265 59.8298 102.931 61.4809 103.83 63.4092C104.335 64.4897 104.7 65.836 104.53 67.3601C104.356 68.9085 103.668 70.2984 102.658 71.4928C101.308 73.0895 99.943 74.1955 98.7679 75.0194C98.4074 75.2722 98.2863 75.7518 98.4934 76.1404C99.5991 78.2155 100.648 80.5793 100.86 83.0306C101.098 85.7765 100.288 88.325 98.4013 90.6147C98.0841 90.9995 98.0646 91.5535 98.3573 91.9572C98.5602 92.2372 98.7558 92.5307 98.9204 92.8227C99.7979 94.3791 100.3 96.4452 99.4224 98.7805C98.5225 101.174 96.6549 102.49 95.1853 103.23C94.8614 103.393 94.5371 103.535 94.2459 103.657C94.067 103.731 93.9711 103.932 94.0393 104.114C94.7056 105.886 95.3976 107.789 95.8082 109.61C96.2181 111.427 96.4483 113.565 95.8372 115.733C94.5013 120.471 90.0304 122.975 84.43 124.361C83.9153 124.488 83.397 124.177 83.253 123.667L81.1841 116.332C81.0281 115.779 81.3703 115.211 81.9259 115.065C83.5792 114.629 84.4809 114.198 84.9447 113.889C85.3636 113.611 85.3733 113.481 85.3915 113.416C85.4532 113.197 85.5148 112.648 85.2522 111.484C84.99 110.321 84.5041 108.941 83.8249 107.134C83.0212 104.996 82.5553 102.69 83.2756 100.477C84.0947 97.963 86.0694 96.6343 87.4943 95.9321C87.7882 95.7874 87.8829 95.4133 87.6917 95.1473C87.0961 94.3191 86.3888 93.0605 86.2905 91.4941C86.1321 88.966 87.5486 86.973 89.1634 85.541C89.7443 85.0259 89.9516 84.6744 90.0334 84.4875C90.1083 84.3163 90.1554 84.1078 90.1254 83.7626C90.0471 82.8606 89.516 81.5325 88.1541 79.1171C87.3822 77.7481 86.5451 75.9255 86.7452 73.9145C86.9856 71.4982 88.5543 70.0012 89.6339 69.1805C91.1583 68.0219 91.9169 67.719 92.7408 67.0611C93.1481 66.736 93.1612 66.1383 92.8052 65.7578C92.6438 65.5853 92.4588 65.3909 92.2466 65.1714C91.4032 64.2988 89.7374 62.6477 88.8375 60.7194C88.3333 59.6389 87.9679 58.2927 88.1383 56.7685C88.3115 55.2202 88.9997 53.8302 90.0098 52.6359L90.3357 52.207C90.4802 51.9892 90.5469 51.8349 90.5776 51.7418C90.6004 51.6728 90.6094 51.5979 90.5849 51.5295C90.5708 51.4902 90.5475 51.4382 90.5092 51.3702C90.3676 51.1191 90.0613 50.7313 89.4683 50.2304C88.8846 49.7374 88.1454 49.2362 87.2919 48.7316C84.17 46.886 83.5322 43.8357 83.3308 42.2284C83.1187 40.5355 83.2125 38.4401 83.2125 37.301C83.2125 36.779 82.7918 36.3647 82.271 36.3296C79.6855 36.1554 76.8283 35.5453 74.7514 33.3967C73.4673 32.0683 72.874 30.5409 72.5119 29.3713C72.1524 28.2099 71.8503 24.3891 71.542 23.0219C71.4799 22.7469 71.4048 22.6292 71.3869 22.6024C71.3723 22.5806 71.3675 22.5717 71.3448 22.5558C71.2683 22.5017 70.9253 22.3072 69.9964 22.1618C69.0721 22.0172 67.9191 21.9743 66.4848 21.9917C65.4376 22.0044 63.2354 22.0849 62.0163 22.0849C55.7334 22.0849 55.1515 21.622 53.7016 19.7048C53.5709 19.5319 53.5 19.3198 53.5 19.103V12.1651Z" fill="white"/>
<path d="M53.5 12.1651C53.5 11.5818 53.996 11.123 54.5768 11.1762C56.1624 11.3215 58.9948 11.6153 59.5193 11.9013C60.1902 12.267 61.0216 12.5376 62.0163 12.5376C63.4888 12.5376 64.3146 12.4689 66.3376 12.4444C67.9732 12.4245 69.9325 12.4562 71.8679 12.759C73.7988 13.0612 76.0634 13.6872 78.0475 15.0876C80.1466 16.5691 81.5315 21.0236 82.098 23.5347C82.3571 24.6834 82.5348 25.4972 82.6982 26.1377C82.7994 26.5344 83.1462 26.8151 83.5552 26.8328C83.9152 26.8484 84.3559 26.8586 84.8947 26.8586C86.5589 26.8586 88.3091 27.1988 89.8784 28.1266C91.4446 29.0525 92.392 30.3049 92.9537 31.4667C93.9509 33.5301 93.9788 35.8915 93.9788 37.301C93.9788 39.1452 93.9044 40.1827 94.0288 41.1749C94.0359 41.2315 94.072 41.2806 94.1203 41.3111C96.1805 42.609 98.6812 44.5126 100.14 47.1C101.033 48.6846 101.559 50.5672 101.307 52.6522C101.122 54.1831 100.538 55.629 99.6525 56.9808C99.3971 57.3705 99.4106 57.8845 99.7274 58.2262C99.9187 58.4326 100.147 58.6739 100.421 58.9572C101.265 59.8298 102.931 61.4809 103.83 63.4092C104.335 64.4897 104.7 65.836 104.53 67.3601C104.356 68.9085 103.668 70.2984 102.658 71.4928C101.308 73.0895 99.943 74.1955 98.7679 75.0194C98.4074 75.2722 98.2863 75.7518 98.4934 76.1404C99.5991 78.2155 100.648 80.5793 100.86 83.0306C101.098 85.7765 100.288 88.325 98.4013 90.6147C98.0841 90.9995 98.0646 91.5535 98.3573 91.9572C98.5602 92.2372 98.7558 92.5307 98.9204 92.8227C99.7979 94.3791 100.3 96.4452 99.4224 98.7805C98.5225 101.174 96.6549 102.49 95.1853 103.23C94.8614 103.393 94.5371 103.535 94.2459 103.657C94.067 103.731 93.9711 103.932 94.0393 104.114C94.7056 105.886 95.3976 107.789 95.8082 109.61C96.2181 111.427 96.4483 113.565 95.8372 115.733C94.5013 120.471 90.0304 122.975 84.43 124.361C83.9153 124.488 83.397 124.177 83.253 123.667L81.1841 116.332C81.0281 115.779 81.3703 115.211 81.9259 115.065C83.5792 114.629 84.4809 114.198 84.9447 113.889C85.3636 113.611 85.3733 113.481 85.3915 113.416C85.4532 113.197 85.5148 112.648 85.2522 111.484C84.99 110.321 84.5041 108.941 83.8249 107.134C83.0212 104.996 82.5553 102.69 83.2756 100.477C84.0947 97.963 86.0694 96.6343 87.4943 95.9321C87.7882 95.7874 87.8829 95.4133 87.6917 95.1473C87.0961 94.3191 86.3888 93.0605 86.2905 91.4941C86.1321 88.966 87.5486 86.973 89.1634 85.541C89.7443 85.0259 89.9516 84.6744 90.0334 84.4875C90.1083 84.3163 90.1554 84.1078 90.1254 83.7626C90.0471 82.8606 89.516 81.5325 88.1541 79.1171C87.3822 77.7481 86.5451 75.9255 86.7452 73.9145C86.9856 71.4982 88.5543 70.0012 89.6339 69.1805C91.1583 68.0219 91.9169 67.719 92.7408 67.0611C93.1481 66.736 93.1612 66.1383 92.8052 65.7578C92.6438 65.5853 92.4588 65.3909 92.2466 65.1714C91.4032 64.2988 89.7374 62.6477 88.8375 60.7194C88.3333 59.6389 87.9679 58.2927 88.1383 56.7685C88.3115 55.2202 88.9997 53.8302 90.0098 52.6359L90.3357 52.207C90.4802 51.9892 90.5469 51.8349 90.5776 51.7418C90.6004 51.6728 90.6094 51.5979 90.5849 51.5295C90.5708 51.4902 90.5475 51.4382 90.5092 51.3702C90.3676 51.1191 90.0613 50.7313 89.4683 50.2304C88.8846 49.7374 88.1454 49.2362 87.2919 48.7316C84.17 46.886 83.5322 43.8357 83.3308 42.2284C83.1187 40.5355 83.2125 38.4401 83.2125 37.301C83.2125 36.779 82.7918 36.3647 82.271 36.3296C79.6855 36.1554 76.8283 35.5453 74.7514 33.3967C73.4673 32.0683 72.874 30.5409 72.5119 29.3713C72.1524 28.2099 71.8503 24.3891 71.542 23.0219C71.4799 22.7469 71.4048 22.6292 71.3869 22.6024C71.3723 22.5806 71.3675 22.5717 71.3448 22.5558C71.2683 22.5017 70.9253 22.3072 69.9964 22.1618C69.0721 22.0172 67.9191 21.9743 66.4848 21.9917C65.4376 22.0044 63.2354 22.0849 62.0163 22.0849C55.7334 22.0849 55.1515 21.622 53.7016 19.7048C53.5709 19.5319 53.5 19.3198 53.5 19.103V12.1651Z" fill="url(#paint1_linear_277_926)" fill-opacity="0.2"/>
<path d="M83.2129 37.3008C83.2129 36.8115 82.8425 36.4171 82.3672 36.3409L82.2715 36.3292C79.6859 36.1549 76.8279 35.5451 74.751 33.3965C73.4671 32.0681 72.8738 30.5407 72.5117 29.3711C72.1747 28.2822 71.8882 24.8561 71.5996 23.3057L71.542 23.0215C71.48 22.747 71.4048 22.6296 71.3867 22.6026C71.3721 22.5808 71.3674 22.5717 71.3447 22.5557C71.2776 22.5084 71.0068 22.3531 70.3184 22.2178L69.9961 22.1622C69.0718 22.0176 67.9186 21.9738 66.4844 21.9913C65.4371 22.004 63.2355 22.085 62.0166 22.085V20.585C63.2553 20.585 65.3203 20.5052 66.4668 20.4913C67.9248 20.4736 69.1781 20.5154 70.2285 20.6797C71.1425 20.8228 71.714 21.0299 72.0703 21.2403L72.21 21.3301C72.2937 21.3893 72.405 21.4788 72.5146 21.6085C72.5615 21.6639 72.5951 21.7114 72.6123 21.7364L72.6338 21.7686L72.7285 21.9258C72.826 22.1047 72.9283 22.3519 73.0049 22.6915C73.18 23.4678 73.3442 24.8733 73.4961 26.0879C73.6639 27.4298 73.8149 28.5066 73.9453 28.9278C74.2808 30.0116 74.7872 31.2756 75.8301 32.3545C77.5129 34.0953 79.9007 34.6665 82.3721 34.8331C83.6108 34.9166 84.7129 35.922 84.7129 37.3008C84.7129 38.5511 84.6227 40.4728 84.8193 42.042C85.0044 43.5191 85.552 45.9604 88.0557 47.4405C88.9501 47.9693 89.7662 48.5179 90.4365 49.084C91.1131 49.6555 91.5577 50.1767 91.8154 50.6338C91.8504 50.6959 91.8836 50.7593 91.9141 50.8243L91.9971 51.0245L92.0527 51.211C92.154 51.6387 92.0701 52.0069 92.002 52.2129C91.9233 52.4506 91.7928 52.7244 91.5859 53.0362L91.5596 53.0762L91.5303 53.1143L91.2041 53.543L91.1807 53.5743L91.1553 53.6045C90.2987 54.6173 89.7629 55.7371 89.6289 56.9356C89.497 58.1166 89.7764 59.183 90.1973 60.085C90.9701 61.7409 92.4341 63.2071 93.3252 64.129C93.542 64.3533 93.7328 64.5533 93.9004 64.7325C94.7895 65.6826 94.8394 67.3052 93.6768 68.2335C93.183 68.6277 92.7032 68.9177 92.2461 69.2042C91.7811 69.4955 91.2532 69.8345 90.542 70.3751C89.5774 71.1083 88.4168 72.2709 88.2383 74.0626C88.0865 75.5876 88.7185 77.0631 89.4609 78.3799C90.8093 80.7714 91.51 82.3646 91.6201 83.6329L91.6328 83.8399C91.6489 84.3117 91.5719 84.7135 91.4082 85.0879L91.4072 85.0889C91.2188 85.5193 90.8608 86.0401 90.1582 86.6631C88.6986 87.9575 87.6705 89.5387 87.7871 91.4004C87.8606 92.5695 88.3945 93.5557 88.9092 94.2715C89.5995 95.2315 89.3188 96.5486 88.3584 97.1641L88.1572 97.2774C86.8827 97.9055 85.338 98.9903 84.7021 100.941C84.1388 102.672 84.4695 104.585 85.2295 106.606C85.9055 108.405 86.4277 109.876 86.7158 111.153V111.154C87.004 112.433 86.9935 113.262 86.8359 113.822L86.835 113.823C86.8641 113.72 86.8149 113.908 86.7695 114.024C86.7075 114.183 86.6231 114.334 86.5146 114.478C86.3145 114.742 86.0533 114.954 85.7754 115.139C85.1824 115.533 84.2379 115.968 82.7588 116.39L84.5605 122.778C89.7705 121.408 93.3225 119.124 94.3936 115.326C94.9083 113.5 94.7289 111.643 94.3447 109.94C93.9597 108.233 93.3029 106.419 92.6348 104.642C92.2604 103.646 92.8037 102.632 93.6699 102.272L94.0879 102.091C94.2289 102.027 94.371 101.961 94.5107 101.891C95.8169 101.233 97.3065 100.146 98.0186 98.253C98.7052 96.4264 98.328 94.8257 97.6143 93.5596C97.486 93.3322 97.3238 93.088 97.1426 92.8379C96.4454 91.8761 96.4964 90.5675 97.2441 89.6602L97.542 89.2833C98.9765 87.3852 99.5558 85.3463 99.3662 83.1602C99.1807 81.0221 98.2534 78.8791 97.1699 76.8458C96.5971 75.7708 96.9424 74.4676 97.9072 73.7911L98.3262 73.4893C99.3215 72.7566 100.422 71.8134 101.513 70.5245C102.369 69.5117 102.905 68.3919 103.039 67.1934C103.171 66.0124 102.892 64.9461 102.471 64.044L102.318 63.7354C101.518 62.2066 100.178 60.8644 99.3428 60.0001C99.0634 59.711 98.8269 59.4618 98.627 59.2461C97.785 58.3379 97.8119 57.0518 98.3975 56.1583C99.1797 54.9646 99.6657 53.735 99.8184 52.4717C100.025 50.7587 99.5988 49.1951 98.833 47.837C97.5613 45.5816 95.3211 43.8407 93.3203 42.5801C93.0083 42.3835 92.7008 42.042 92.5801 41.5713L92.54 41.3614C92.4002 40.2457 92.4785 39 92.4785 37.3008C92.4785 35.8757 92.4341 33.8377 91.6035 32.1192C91.1475 31.176 90.3851 30.1688 89.1152 29.418C87.8317 28.6592 86.3616 28.3584 84.8945 28.3584C84.3372 28.3584 83.8746 28.3477 83.4902 28.3311C82.4229 28.2848 81.5106 27.5485 81.2451 26.5088C81.0749 25.8417 80.8893 24.994 80.6348 23.8653L80.5244 23.3956C80.2457 22.2557 79.8212 20.8266 79.2656 19.5079C78.6009 17.9301 77.8635 16.7931 77.1826 16.3126V16.3135C75.4597 15.0975 73.4469 14.5247 71.6357 14.2413C69.8258 13.958 67.9658 13.9248 66.3555 13.9444C64.4835 13.9671 63.4397 14.0372 62.0166 14.0372C60.7747 14.0372 59.7247 13.7047 58.877 13.2559C58.8666 13.2526 58.8499 13.2478 58.8262 13.2413C58.746 13.2194 58.627 13.1922 58.4658 13.1612C58.1442 13.0993 57.7244 13.0357 57.251 12.9737C56.5165 12.8774 55.6977 12.7923 55 12.7247V18.9317C55.6184 19.7396 55.8916 19.9892 56.5029 20.1846C57.3543 20.4567 58.8315 20.585 62.0166 20.585V22.085L60.9033 22.0792C56.0072 22.0251 55.1608 21.5696 53.9648 20.0479L53.7012 19.7051C53.5704 19.5322 53.5 19.3194 53.5 19.1026V12.1651C53.5 11.5818 53.9963 11.1226 54.5771 11.1758C56.1628 11.3211 58.9951 11.6154 59.5195 11.9014C60.1066 12.2214 60.8166 12.4687 61.6514 12.5254L62.0166 12.5372C63.1207 12.5372 63.8612 12.4985 65.0156 12.4688L66.3379 12.4444C67.9734 12.4245 69.9329 12.456 71.8682 12.7588C73.799 13.061 76.0638 13.6876 78.0479 15.0879C80.1466 16.5697 81.5311 21.0232 82.0977 23.5342C82.3567 24.683 82.5349 25.4973 82.6982 26.1377C82.7995 26.5344 83.1467 26.8154 83.5557 26.8331C83.9155 26.8486 84.356 26.8584 84.8945 26.8585C86.5587 26.8585 88.3087 27.1993 89.8779 28.127C91.4441 29.0529 92.3924 30.305 92.9541 31.4668C93.9512 33.5301 93.9785 35.8915 93.9785 37.3008C93.9785 39.1451 93.904 40.1826 94.0283 41.1749C94.0354 41.2313 94.072 41.2802 94.1201 41.3106C96.1802 42.6085 98.6808 44.5125 100.14 47.0997C101.033 48.6843 101.558 50.5675 101.307 52.6524L101.268 52.9385C101.048 54.3636 100.483 55.7134 99.6523 56.9805C99.3969 57.3703 99.4108 57.8849 99.7275 58.2266C99.9188 58.4329 100.147 58.674 100.421 58.9571C101.264 59.8296 102.93 61.4809 103.83 63.4092C104.334 64.4897 104.7 65.8363 104.529 67.3604L104.491 67.6485C104.269 69.0813 103.605 70.3726 102.658 71.4922L102.151 72.0684C100.969 73.3612 99.7958 74.2986 98.7676 75.0196C98.4073 75.2725 98.2861 75.7521 98.4932 76.1407C99.5988 78.2156 100.648 80.5792 100.86 83.0303C101.098 85.7761 100.288 88.3247 98.4014 90.6143C98.0842 90.9992 98.0647 91.5533 98.3574 91.9571C98.5602 92.2368 98.7554 92.5305 98.9199 92.8223C99.7974 94.3786 100.301 96.4452 99.4229 98.7803L99.2432 99.2169C98.2911 101.336 96.5633 102.537 95.1855 103.231L94.7031 103.459C94.5453 103.53 94.3915 103.596 94.2461 103.656C94.0672 103.731 93.971 103.932 94.0391 104.113C94.7054 105.886 95.398 107.789 95.8086 109.609C96.2185 111.427 96.4481 113.566 95.8369 115.733L95.7031 116.171C94.221 120.626 89.855 123.018 84.4297 124.36C83.9473 124.48 83.4617 124.215 83.2842 123.761L83.2529 123.667L81.1846 116.332C81.0286 115.779 81.3702 115.211 81.9258 115.065C83.3726 114.683 84.2441 114.306 84.75 114.011L84.9443 113.89C85.3632 113.611 85.3733 113.481 85.3916 113.416C85.4533 113.197 85.5145 112.648 85.252 111.483C85.0553 110.612 84.7332 109.618 84.2979 108.413L83.8252 107.135C83.0717 105.13 82.615 102.978 83.1543 100.894L83.2754 100.478C84.0945 97.9632 86.0692 96.6339 87.4941 95.9317C87.7514 95.805 87.8562 95.5028 87.75 95.251L87.6914 95.1475C87.1331 94.3711 86.4764 93.2162 86.3154 91.7842L86.29 91.4942C86.1416 89.1242 87.3778 87.2246 88.8633 85.8165L89.1631 85.5411C89.744 85.0259 89.9514 84.6743 90.0332 84.4874C90.0894 84.3589 90.1297 84.2096 90.1338 83.9971L90.125 83.7627C90.0565 82.9735 89.6421 81.8575 88.627 79.9727L88.1543 79.1172C87.3824 77.7483 86.545 75.9251 86.7451 73.9141C86.9556 71.8 88.1832 70.3899 89.21 69.5206L89.6338 69.1807C90.9676 68.1669 91.7156 67.8085 92.4336 67.294L92.7412 67.0616C93.1231 66.7566 93.158 66.2115 92.8672 65.8311L92.8057 65.7579L92.2471 65.171C91.4563 64.3529 89.9422 62.8509 89.0146 61.0772L88.8379 60.7198C88.3652 59.7067 88.0138 58.4597 88.1123 57.0518L88.1387 56.7686C88.3118 55.2202 88.9996 53.8301 90.0098 52.6358L90.3359 52.2071C90.4081 52.0983 90.4605 52.0052 90.499 51.9278L90.5781 51.7422C90.6009 51.6733 90.6094 51.5977 90.585 51.5294L90.5088 51.3702C90.3849 51.1505 90.1353 50.8262 89.6777 50.4131L89.4688 50.2305C89.031 49.8608 88.5054 49.4863 87.9102 49.1094L87.292 48.7315C84.3652 47.0012 83.6215 44.2121 83.374 42.5459L83.3311 42.2286C83.172 40.9589 83.1847 39.4628 83.2012 38.3135L83.2129 37.3008Z" fill="black"/>
<path d="M53.5 19.8931C53.5 19.3098 53.996 18.851 54.5768 18.9042C56.1624 19.0495 58.9948 19.3433 59.5193 19.6293C60.1902 19.995 61.0216 20.2656 62.0163 20.2656C63.4888 20.2656 64.3146 20.197 66.3376 20.1724C67.9732 20.1525 69.9325 20.1842 71.8679 20.4871C73.7988 20.7892 76.0634 21.4152 78.0475 22.8156C80.1466 24.2972 81.5315 28.7516 82.098 31.2628C82.3571 32.4115 82.5348 33.2252 82.6982 33.8657C82.7994 34.2624 83.1462 34.5432 83.5552 34.5609C83.9152 34.5764 84.3559 34.5866 84.8947 34.5866C86.5589 34.5866 88.3091 34.9269 89.8784 35.8546C91.4446 36.7805 92.392 38.0329 92.9537 39.1948C93.9509 41.2581 93.9788 43.6196 93.9788 45.029C93.9788 46.8733 93.9044 47.9107 94.0288 48.9029C94.0359 48.9595 94.072 49.0087 94.1203 49.0391C96.1805 50.3371 98.6812 52.2407 100.14 54.828C101.033 56.4127 101.559 58.2953 101.307 60.3802C101.122 61.9111 100.538 63.357 99.6525 64.7088C99.3971 65.0985 99.4106 65.6125 99.7274 65.9543C99.9187 66.1606 100.147 66.402 100.421 66.6853C101.265 67.5578 102.931 69.2089 103.83 71.1373C104.335 72.2178 104.7 73.564 104.53 75.0881C104.356 76.6365 103.668 78.0264 102.658 79.2208C101.308 80.8175 99.943 81.9235 98.7679 82.7474C98.4074 83.0002 98.2863 83.4798 98.4934 83.8685C99.5991 85.9435 100.648 88.3074 100.86 90.7587C101.098 93.5045 100.288 96.053 98.4013 98.3427C98.0841 98.7275 98.0646 99.2815 98.3573 99.6853C98.5602 99.9652 98.7558 100.259 98.9204 100.551C99.7979 102.107 100.3 104.173 99.4224 106.508C98.5225 108.902 96.6549 110.218 95.1853 110.958C94.8614 111.121 94.5371 111.263 94.2459 111.385C94.067 111.459 93.9711 111.66 94.0393 111.842C94.7056 113.614 95.3976 115.518 95.8082 117.338C96.2181 119.155 96.4483 121.293 95.8372 123.461C94.5013 128.199 90.0304 130.703 84.43 132.089C83.9153 132.216 83.397 131.905 83.253 131.395L81.1841 124.06C81.0281 123.507 81.3703 122.939 81.9259 122.793C83.5792 122.357 84.4809 121.926 84.9447 121.617C85.3636 121.339 85.3733 121.209 85.3915 121.144C85.4532 120.925 85.5148 120.376 85.2522 119.212C84.99 118.049 84.5041 116.669 83.8249 114.862C83.0212 112.724 82.5553 110.418 83.2756 108.205C84.0947 105.691 86.0694 104.362 87.4943 103.66C87.7882 103.515 87.8829 103.141 87.6917 102.875C87.0961 102.047 86.3888 100.789 86.2905 99.2221C86.1321 96.694 87.5486 94.701 89.1634 93.269C89.7443 92.7539 89.9516 92.4024 90.0334 92.2155C90.1083 92.0443 90.1554 91.8359 90.1254 91.4906C90.0471 90.5887 89.516 89.2605 88.1541 86.8451C87.3822 85.4761 86.5451 83.6535 86.7452 81.6426C86.9856 79.2262 88.5543 77.7292 89.6339 76.9085C91.1583 75.7499 91.9169 75.447 92.7408 74.7892C93.1481 74.464 93.1612 73.8664 92.8052 73.4859C92.6438 73.3133 92.4588 73.1189 92.2466 72.8994C91.4032 72.0268 89.7374 70.3758 88.8375 68.4474C88.3333 67.3669 87.9679 66.0207 88.1383 64.4966C88.3115 62.9482 88.9997 61.5582 90.0098 60.3639L90.3357 59.935C90.4802 59.7172 90.5469 59.563 90.5776 59.4698C90.6004 59.4009 90.6094 59.3259 90.5849 59.2575C90.5708 59.2183 90.5475 59.1662 90.5092 59.0982C90.3676 58.8471 90.0613 58.4593 89.4683 57.9584C88.8846 57.4654 88.1454 56.9642 87.2919 56.4597C84.17 54.614 83.5322 51.5637 83.3308 49.9565C83.1187 48.2636 83.2125 46.1682 83.2125 45.029C83.2125 44.5071 82.7918 44.0927 82.271 44.0576C79.6855 43.8834 76.8283 43.2733 74.7514 41.1247C73.4673 39.7963 72.874 38.2689 72.5119 37.0993C72.1524 35.9379 71.8503 32.1171 71.542 30.75C71.4799 30.4749 71.4048 30.3572 71.3869 30.3304C71.3723 30.3086 71.3675 30.2998 71.3448 30.2838C71.2683 30.2297 70.9253 30.0352 69.9964 29.8899C69.0721 29.7452 67.9191 29.7023 66.4848 29.7197C65.4376 29.7324 63.2354 29.8129 62.0163 29.8129C55.7334 29.8129 55.1515 29.35 53.7016 27.4328C53.5709 27.2599 53.5 27.0478 53.5 26.8311V19.8931Z" fill="white"/>
<path d="M53.5 19.8931C53.5 19.3098 53.996 18.851 54.5768 18.9042C56.1624 19.0495 58.9948 19.3433 59.5193 19.6293C60.1902 19.995 61.0216 20.2656 62.0163 20.2656C63.4888 20.2656 64.3146 20.197 66.3376 20.1724C67.9732 20.1525 69.9325 20.1842 71.8679 20.4871C73.7988 20.7892 76.0634 21.4152 78.0475 22.8156C80.1466 24.2972 81.5315 28.7516 82.098 31.2628C82.3571 32.4115 82.5348 33.2252 82.6982 33.8657C82.7994 34.2624 83.1462 34.5432 83.5552 34.5609C83.9152 34.5764 84.3559 34.5866 84.8947 34.5866C86.5589 34.5866 88.3091 34.9269 89.8784 35.8546C91.4446 36.7805 92.392 38.0329 92.9537 39.1948C93.9509 41.2581 93.9788 43.6196 93.9788 45.029C93.9788 46.8733 93.9044 47.9107 94.0288 48.9029C94.0359 48.9595 94.072 49.0087 94.1203 49.0391C96.1805 50.3371 98.6812 52.2407 100.14 54.828C101.033 56.4127 101.559 58.2953 101.307 60.3802C101.122 61.9111 100.538 63.357 99.6525 64.7088C99.3971 65.0985 99.4106 65.6125 99.7274 65.9543C99.9187 66.1606 100.147 66.402 100.421 66.6853C101.265 67.5578 102.931 69.2089 103.83 71.1373C104.335 72.2178 104.7 73.564 104.53 75.0881C104.356 76.6365 103.668 78.0264 102.658 79.2208C101.308 80.8175 99.943 81.9235 98.7679 82.7474C98.4074 83.0002 98.2863 83.4798 98.4934 83.8685C99.5991 85.9435 100.648 88.3074 100.86 90.7587C101.098 93.5045 100.288 96.053 98.4013 98.3427C98.0841 98.7275 98.0646 99.2815 98.3573 99.6853C98.5602 99.9652 98.7558 100.259 98.9204 100.551C99.7979 102.107 100.3 104.173 99.4224 106.508C98.5225 108.902 96.6549 110.218 95.1853 110.958C94.8614 111.121 94.5371 111.263 94.2459 111.385C94.067 111.459 93.9711 111.66 94.0393 111.842C94.7056 113.614 95.3976 115.518 95.8082 117.338C96.2181 119.155 96.4483 121.293 95.8372 123.461C94.5013 128.199 90.0304 130.703 84.43 132.089C83.9153 132.216 83.397 131.905 83.253 131.395L81.1841 124.06C81.0281 123.507 81.3703 122.939 81.9259 122.793C83.5792 122.357 84.4809 121.926 84.9447 121.617C85.3636 121.339 85.3733 121.209 85.3915 121.144C85.4532 120.925 85.5148 120.376 85.2522 119.212C84.99 118.049 84.5041 116.669 83.8249 114.862C83.0212 112.724 82.5553 110.418 83.2756 108.205C84.0947 105.691 86.0694 104.362 87.4943 103.66C87.7882 103.515 87.8829 103.141 87.6917 102.875C87.0961 102.047 86.3888 100.789 86.2905 99.2221C86.1321 96.694 87.5486 94.701 89.1634 93.269C89.7443 92.7539 89.9516 92.4024 90.0334 92.2155C90.1083 92.0443 90.1554 91.8359 90.1254 91.4906C90.0471 90.5887 89.516 89.2605 88.1541 86.8451C87.3822 85.4761 86.5451 83.6535 86.7452 81.6426C86.9856 79.2262 88.5543 77.7292 89.6339 76.9085C91.1583 75.7499 91.9169 75.447 92.7408 74.7892C93.1481 74.464 93.1612 73.8664 92.8052 73.4859C92.6438 73.3133 92.4588 73.1189 92.2466 72.8994C91.4032 72.0268 89.7374 70.3758 88.8375 68.4474C88.3333 67.3669 87.9679 66.0207 88.1383 64.4966C88.3115 62.9482 88.9997 61.5582 90.0098 60.3639L90.3357 59.935C90.4802 59.7172 90.5469 59.563 90.5776 59.4698C90.6004 59.4009 90.6094 59.3259 90.5849 59.2575C90.5708 59.2183 90.5475 59.1662 90.5092 59.0982C90.3676 58.8471 90.0613 58.4593 89.4683 57.9584C88.8846 57.4654 88.1454 56.9642 87.2919 56.4597C84.17 54.614 83.5322 51.5637 83.3308 49.9565C83.1187 48.2636 83.2125 46.1682 83.2125 45.029C83.2125 44.5071 82.7918 44.0927 82.271 44.0576C79.6855 43.8834 76.8283 43.2733 74.7514 41.1247C73.4673 39.7963 72.874 38.2689 72.5119 37.0993C72.1524 35.9379 71.8503 32.1171 71.542 30.75C71.4799 30.4749 71.4048 30.3572 71.3869 30.3304C71.3723 30.3086 71.3675 30.2998 71.3448 30.2838C71.2683 30.2297 70.9253 30.0352 69.9964 29.8899C69.0721 29.7452 67.9191 29.7023 66.4848 29.7197C65.4376 29.7324 63.2354 29.8129 62.0163 29.8129C55.7334 29.8129 55.1515 29.35 53.7016 27.4328C53.5709 27.2599 53.5 27.0478 53.5 26.8311V19.8931Z" fill="url(#paint2_linear_277_926)" fill-opacity="0.2"/>
<path d="M83.2129 45.0289C83.2129 44.5395 82.8425 44.1452 82.3672 44.0689L82.2715 44.0572C79.6859 43.883 76.8279 43.2731 74.751 41.1246C73.4671 39.7962 72.8738 38.2687 72.5117 37.0992C72.1747 36.0102 71.8882 32.5842 71.5996 31.0337L71.542 30.7496C71.48 30.4751 71.4048 30.3576 71.3867 30.3306C71.3721 30.3088 71.3674 30.2997 71.3447 30.2837C71.2776 30.2364 71.0068 30.0811 70.3184 29.9459L69.9961 29.8902C69.0718 29.7456 67.9186 29.7019 66.4844 29.7193C65.4371 29.732 63.2355 29.813 62.0166 29.813V28.313C63.2553 28.313 65.3203 28.2332 66.4668 28.2193C67.9248 28.2016 69.1781 28.2434 70.2285 28.4078C71.1425 28.5508 71.714 28.7579 72.0703 28.9683L72.21 29.0582C72.2937 29.1173 72.405 29.2069 72.5146 29.3365C72.5615 29.3919 72.5951 29.4394 72.6123 29.4644L72.6338 29.4966L72.7285 29.6539C72.826 29.8328 72.9283 30.0799 73.0049 30.4195C73.18 31.1958 73.3442 32.6013 73.4961 33.816C73.6639 35.1578 73.8149 36.2346 73.9453 36.6558C74.2808 37.7397 74.7872 39.0036 75.8301 40.0826C77.5129 41.8233 79.9007 42.3946 82.3721 42.5611C83.6108 42.6446 84.7129 43.65 84.7129 45.0289C84.7129 46.2791 84.6227 48.2008 84.8193 49.7701C85.0044 51.2471 85.552 53.6884 88.0557 55.1685C88.9501 55.6973 89.7662 56.246 90.4365 56.8121C91.1131 57.3835 91.5577 57.9047 91.8154 58.3619C91.8504 58.4239 91.8836 58.4873 91.9141 58.5523L91.9971 58.7525L92.0527 58.939C92.154 59.3667 92.0701 59.7349 92.002 59.941C91.9233 60.1787 91.7928 60.4524 91.5859 60.7642L91.5596 60.8043L91.5303 60.8423L91.2041 61.271L91.1807 61.3023L91.1553 61.3326C90.2987 62.3453 89.7629 63.4651 89.6289 64.6636C89.497 65.8446 89.7764 66.911 90.1973 67.813C90.9701 69.4689 92.4341 70.9351 93.3252 71.857C93.542 72.0813 93.7328 72.2814 93.9004 72.4605C94.7895 73.4106 94.8394 75.0332 93.6768 75.9615C93.183 76.3557 92.7032 76.6457 92.2461 76.9322C91.7811 77.2236 91.2532 77.5625 90.542 78.1031C89.5774 78.8363 88.4168 79.9989 88.2383 81.7906C88.0865 83.3156 88.7185 84.7911 89.4609 86.108C90.8093 88.4994 91.51 90.0926 91.6201 91.3609L91.6328 91.5679C91.6489 92.0397 91.5719 92.4415 91.4082 92.816L91.4072 92.8169C91.2188 93.2474 90.8608 93.7681 90.1582 94.3912C88.6986 95.6856 87.6705 97.2667 87.7871 99.1285C87.8606 100.297 88.3945 101.284 88.9092 102C89.5995 102.96 89.3188 104.277 88.3584 104.892L88.1572 105.005C86.8827 105.634 85.338 106.718 84.7021 108.669C84.1388 110.4 84.4695 112.313 85.2295 114.335C85.9055 116.133 86.4277 117.604 86.7158 118.881V118.882C87.004 120.161 86.9935 120.99 86.8359 121.55L86.835 121.551C86.8641 121.448 86.8149 121.636 86.7695 121.752C86.7075 121.911 86.6231 122.062 86.5146 122.206C86.3145 122.47 86.0533 122.682 85.7754 122.867C85.1824 123.261 84.2379 123.696 82.7588 124.118L84.5605 130.506C89.7705 129.136 93.3225 126.852 94.3936 123.054C94.9083 121.228 94.7289 119.371 94.3447 117.668C93.9597 115.961 93.3029 114.147 92.6348 112.37C92.2604 111.374 92.8037 110.36 93.6699 110L94.0879 109.819C94.2289 109.755 94.371 109.689 94.5107 109.619C95.8169 108.961 97.3065 107.874 98.0186 105.981C98.7052 104.154 98.328 102.554 97.6143 101.288C97.486 101.06 97.3238 100.816 97.1426 100.566C96.4454 99.6041 96.4964 98.2955 97.2441 97.3882L97.542 97.0113C98.9765 95.1132 99.5558 93.0743 99.3662 90.8882C99.1807 88.7502 98.2534 86.6071 97.1699 84.5738C96.5971 83.4988 96.9424 82.1956 97.9072 81.5191L98.3262 81.2173C99.3215 80.4846 100.422 79.5414 101.513 78.2525C102.369 77.2398 102.905 76.1199 103.039 74.9214C103.171 73.7404 102.892 72.6741 102.471 71.772L102.318 71.4634C101.518 69.9347 100.178 68.5924 99.3428 67.7281C99.0634 67.4391 98.8269 67.1898 98.627 66.9742C97.785 66.0659 97.8119 64.7799 98.3975 63.8863C99.1797 62.6926 99.6657 61.463 99.8184 60.1998C100.025 58.4868 99.5988 56.9231 98.833 55.565C97.5613 53.3096 95.3211 51.5687 93.3203 50.3082C93.0083 50.1115 92.7008 49.7701 92.5801 49.2994L92.54 49.0894C92.4002 47.9737 92.4785 46.728 92.4785 45.0289C92.4785 43.6038 92.4341 41.5657 91.6035 39.8472C91.1475 38.9041 90.3851 37.8968 89.1152 37.146C87.8317 36.3872 86.3616 36.0865 84.8945 36.0865C84.3372 36.0865 83.8746 36.0758 83.4902 36.0591C82.4229 36.0129 81.5106 35.2765 81.2451 34.2369C81.0749 33.5697 80.8893 32.7221 80.6348 31.5933L80.5244 31.1236C80.2457 29.9838 79.8212 28.5547 79.2656 27.2359C78.6009 25.6582 77.8635 24.5212 77.1826 24.0406V24.0416C75.4597 22.8255 73.4469 22.2527 71.6357 21.9693C69.8258 21.6861 67.9658 21.6529 66.3555 21.6724C64.4835 21.6952 63.4397 21.7652 62.0166 21.7652C60.7747 21.7652 59.7247 21.4327 58.877 20.9839C58.8666 20.9807 58.8499 20.9758 58.8262 20.9693C58.746 20.9474 58.627 20.9202 58.4658 20.8892C58.1442 20.8273 57.7244 20.7637 57.251 20.7017C56.5165 20.6055 55.6977 20.5203 55 20.4527V26.6597C55.6184 27.4676 55.8916 27.7172 56.5029 27.9127C57.3543 28.1847 58.8315 28.313 62.0166 28.313V29.813L60.9033 29.8072C56.0072 29.7532 55.1608 29.2976 53.9648 27.7759L53.7012 27.4332C53.5704 27.2603 53.5 27.0474 53.5 26.8306V19.8931C53.5 19.3098 53.9963 18.8506 54.5771 18.9039C56.1628 19.0492 58.9951 19.3435 59.5195 19.6294C60.1066 19.9494 60.8166 20.1967 61.6514 20.2535L62.0166 20.2652C63.1207 20.2652 63.8612 20.2265 65.0156 20.1968L66.3379 20.1724C67.9734 20.1526 69.9329 20.184 71.8682 20.4869C73.799 20.7891 76.0638 21.4157 78.0479 22.816C80.1466 24.2977 81.5311 28.7512 82.0977 31.2623C82.3567 32.411 82.5349 33.2253 82.6982 33.8658C82.7995 34.2624 83.1467 34.5434 83.5557 34.5611C83.9155 34.5767 84.356 34.5865 84.8945 34.5865C86.5587 34.5865 88.3087 34.9273 89.8779 35.855C91.4441 36.781 92.3924 38.033 92.9541 39.1949C93.9512 41.2581 93.9785 43.6195 93.9785 45.0289C93.9785 46.8731 93.904 47.9107 94.0283 48.9029C94.0354 48.9594 94.072 49.0082 94.1201 49.0386C96.1802 50.3365 98.6808 52.2405 100.14 54.8277C101.033 56.4123 101.558 58.2955 101.307 60.3804L101.268 60.6666C101.048 62.0916 100.483 63.4414 99.6523 64.7085C99.3969 65.0983 99.4108 65.6129 99.7275 65.9546C99.9188 66.1609 100.147 66.4021 100.421 66.6851C101.264 67.5577 102.93 69.2089 103.83 71.1373C104.334 72.2178 104.7 73.5643 104.529 75.0884L104.491 75.3765C104.269 76.8093 103.605 78.1006 102.658 79.2203L102.151 79.7964C100.969 81.0892 99.7958 82.0266 98.7676 82.7476C98.4073 83.0005 98.2861 83.4802 98.4932 83.8687C99.5988 85.9437 100.648 88.3072 100.86 90.7584C101.098 93.5041 100.288 96.0527 98.4014 98.3423C98.0842 98.7272 98.0647 99.2813 98.3574 99.6851C98.5602 99.9649 98.7554 100.259 98.9199 100.55C99.7974 102.107 100.301 104.173 99.4229 106.508L99.2432 106.945C98.2911 109.064 96.5633 110.265 95.1855 110.959L94.7031 111.187C94.5453 111.258 94.3915 111.324 94.2461 111.384C94.0672 111.459 93.971 111.66 94.0391 111.841C94.7054 113.614 95.398 115.517 95.8086 117.337C96.2185 119.155 96.4481 121.294 95.8369 123.461L95.7031 123.899C94.221 128.354 89.855 130.746 84.4297 132.088C83.9473 132.208 83.4617 131.943 83.2842 131.489L83.2529 131.395L81.1846 124.06C81.0286 123.507 81.3702 122.939 81.9258 122.793C83.3726 122.411 84.2441 122.034 84.75 121.739L84.9443 121.618C85.3632 121.339 85.3733 121.209 85.3916 121.144C85.4533 120.925 85.5145 120.376 85.252 119.211C85.0553 118.34 84.7332 117.346 84.2979 116.141L83.8252 114.863C83.0717 112.858 82.615 110.706 83.1543 108.622L83.2754 108.206C84.0945 105.691 86.0692 104.362 87.4941 103.66C87.7514 103.533 87.8562 103.231 87.75 102.979L87.6914 102.876C87.1331 102.099 86.4764 100.944 86.3154 99.5123L86.29 99.2222C86.1416 96.8522 87.3778 94.9526 88.8633 93.5445L89.1631 93.2691C89.744 92.754 89.9514 92.4023 90.0332 92.2154C90.0894 92.0869 90.1297 91.9376 90.1338 91.7252L90.125 91.4908C90.0565 90.7016 89.6421 89.5855 88.627 87.7007L88.1543 86.8453C87.3824 85.4763 86.545 83.6531 86.7451 81.6421C86.9556 79.528 88.1832 78.1179 89.21 77.2486L89.6338 76.9087C90.9676 75.8949 91.7156 75.5365 92.4336 75.022L92.7412 74.7896C93.1231 74.4846 93.158 73.9395 92.8672 73.5591L92.8057 73.4859L92.2471 72.899C91.4563 72.0809 89.9422 70.5789 89.0146 68.8052L88.8379 68.4478C88.3652 67.4348 88.0138 66.1877 88.1123 64.7798L88.1387 64.4966C88.3118 62.9483 88.9996 61.5582 90.0098 60.3638L90.3359 59.9351C90.4081 59.8263 90.4605 59.7332 90.499 59.6558L90.5781 59.4703C90.6009 59.4013 90.6094 59.3258 90.585 59.2574L90.5088 59.0982C90.3849 58.8786 90.1353 58.5542 89.6777 58.1412L89.4688 57.9585C89.031 57.5888 88.5054 57.2144 87.9102 56.8375L87.292 56.4595C84.3652 54.7292 83.6215 51.9401 83.374 50.274L83.3311 49.9566C83.172 48.687 83.1847 47.1908 83.2012 46.0416L83.2129 45.0289Z" fill="black"/>
<path d="M51.0703 27.6219C51.0703 27.0383 51.5665 26.5794 52.1475 26.6332C53.7112 26.778 56.4798 27.0686 56.994 27.3515C57.6543 27.7146 58.4725 27.9832 59.4515 27.9832C60.9006 27.9832 61.7133 27.9151 63.7041 27.8907C65.3137 27.871 67.242 27.9024 69.1467 28.2031C71.0469 28.5031 73.2756 29.1247 75.2282 30.515C77.294 31.986 78.6568 36.4086 79.2144 38.9018C79.4685 40.0386 79.6431 40.8449 79.8034 41.4798C79.9038 41.8774 80.2509 42.1593 80.6605 42.1769C81.0125 42.1921 81.4424 42.2019 81.9667 42.2019C83.6045 42.2019 85.3269 42.5398 86.8712 43.4609C88.4126 44.3802 89.345 45.6236 89.8978 46.7772C90.8792 48.8258 90.9066 51.1704 90.9066 52.5697C90.9066 54.4008 90.8334 55.4308 90.9558 56.416C90.9627 56.4722 90.9985 56.5211 91.0463 56.5515C93.0737 57.8402 95.5344 59.7301 96.97 62.2988C97.8493 63.8721 98.3664 65.7413 98.1185 67.8113C97.9365 69.331 97.3622 70.7663 96.4908 72.1081C96.2387 72.4962 96.252 73.0061 96.5652 73.3469C96.7532 73.5515 96.9779 73.7907 97.2468 74.0713C98.0768 74.9377 99.7162 76.5769 100.602 78.4915C101.098 79.5643 101.458 80.9009 101.29 82.4142C101.119 83.9515 100.442 85.3315 99.4481 86.5173C98.119 88.1026 96.7761 89.2007 95.6197 90.0187C95.2642 90.2702 95.1447 90.7439 95.3481 91.129C96.4368 93.1899 97.4694 95.5379 97.6788 97.9728C97.9131 100.698 97.1163 103.228 95.26 105.501C94.9467 105.885 94.9274 106.434 95.2164 106.837C95.4158 107.114 95.6079 107.405 95.7697 107.695C96.6334 109.24 97.1277 111.292 96.2638 113.61C95.3782 115.986 93.5402 117.294 92.0939 118.028C91.776 118.189 91.4576 118.33 91.1716 118.451C90.9941 118.525 90.8989 118.725 90.9661 118.905C91.6219 120.665 92.3029 122.555 92.707 124.362C93.1104 126.166 93.3369 128.289 92.7355 130.442C91.4222 135.14 87.0304 137.627 81.5273 139.003C81.0113 139.132 80.4912 138.82 80.348 138.308L78.316 131.04C78.1618 130.488 78.503 129.923 79.0566 129.775C80.6763 129.344 81.5605 128.916 82.0159 128.611C82.4281 128.334 82.4376 128.206 82.4556 128.141C82.5163 127.924 82.5769 127.379 82.3185 126.223C82.0604 125.068 81.5823 123.698 80.9139 121.904C80.1229 119.781 79.6644 117.492 80.3733 115.295C81.1794 112.798 83.1227 111.479 84.525 110.782C84.815 110.638 84.9088 110.269 84.7208 110.005C84.1344 109.183 83.4372 107.932 83.3403 106.376C83.1844 103.866 84.5785 101.887 86.1676 100.465C86.7393 99.9538 86.9433 99.6048 87.0239 99.4192C87.0975 99.2492 87.1439 99.0423 87.1144 98.6995C87.0373 97.804 86.5146 96.4853 85.1743 94.0872C84.4147 92.728 83.5909 90.9184 83.7878 88.9218C84.0244 86.5227 85.5682 85.0364 86.6307 84.2216C88.1294 83.0723 88.876 82.7711 89.686 82.1192C90.0894 81.7945 90.1022 81.2014 89.7501 80.8218C89.5916 80.6509 89.4101 80.4584 89.2019 80.2411C88.3719 79.3748 86.7325 77.7355 85.8469 75.8209C85.3507 74.7481 84.9911 73.4115 85.1588 71.8983C85.3292 70.3609 86.0065 68.9809 87.0006 67.7951L87.3213 67.3693C87.4635 67.153 87.5291 66.9999 87.5594 66.9074C87.5819 66.8389 87.5907 66.7646 87.5666 66.6967C87.5527 66.6577 87.5298 66.606 87.4921 66.5385C87.3527 66.2892 87.0513 65.9041 86.4677 65.4068C85.8932 64.9173 85.1658 64.4197 84.3259 63.9188C81.2535 62.0863 80.6258 59.0577 80.4276 57.462C80.2189 55.7812 80.3112 53.7008 80.3112 52.5697C80.3112 52.0509 79.8931 51.6401 79.3756 51.6047C76.8334 51.4309 74.0259 50.824 71.9844 48.6934C70.7207 47.3744 70.1368 45.858 69.7804 44.6967C69.4267 43.5436 69.1294 39.7501 68.8259 38.3927C68.7649 38.1196 68.6909 38.0028 68.6733 37.9761C68.659 37.9545 68.6542 37.9457 68.6319 37.9298C68.5566 37.8762 68.219 37.6831 67.3049 37.5387C66.3952 37.3951 65.2606 37.3525 63.849 37.3698C62.8184 37.3824 60.6511 37.4624 59.4515 37.4624C53.2692 37.4624 52.6957 37.0029 51.2694 35.1001C51.1403 34.9279 51.0703 34.7171 51.0703 34.5018V27.6219Z" fill="white"/>
<path d="M51.0703 27.6219C51.0703 27.0383 51.5665 26.5794 52.1475 26.6332C53.7112 26.778 56.4798 27.0686 56.994 27.3515C57.6543 27.7146 58.4725 27.9832 59.4515 27.9832C60.9006 27.9832 61.7133 27.9151 63.7041 27.8907C65.3137 27.871 67.242 27.9024 69.1467 28.2031C71.0469 28.5031 73.2756 29.1247 75.2282 30.515C77.294 31.986 78.6568 36.4086 79.2144 38.9018C79.4685 40.0386 79.6431 40.8449 79.8034 41.4798C79.9038 41.8774 80.2509 42.1593 80.6605 42.1769C81.0125 42.1921 81.4424 42.2019 81.9667 42.2019C83.6045 42.2019 85.3269 42.5398 86.8712 43.4609C88.4126 44.3802 89.345 45.6236 89.8978 46.7772C90.8792 48.8258 90.9066 51.1704 90.9066 52.5697C90.9066 54.4008 90.8334 55.4308 90.9558 56.416C90.9627 56.4722 90.9985 56.5211 91.0463 56.5515C93.0737 57.8402 95.5344 59.7301 96.97 62.2988C97.8493 63.8721 98.3664 65.7413 98.1185 67.8113C97.9365 69.331 97.3622 70.7663 96.4908 72.1081C96.2387 72.4962 96.252 73.0061 96.5652 73.3469C96.7532 73.5515 96.9779 73.7907 97.2468 74.0713C98.0768 74.9377 99.7162 76.5769 100.602 78.4915C101.098 79.5643 101.458 80.9009 101.29 82.4142C101.119 83.9515 100.442 85.3315 99.4481 86.5173C98.119 88.1026 96.7761 89.2007 95.6197 90.0187C95.2642 90.2702 95.1447 90.7439 95.3481 91.129C96.4368 93.1899 97.4694 95.5379 97.6788 97.9728C97.9131 100.698 97.1163 103.228 95.26 105.501C94.9467 105.885 94.9274 106.434 95.2164 106.837C95.4158 107.114 95.6079 107.405 95.7697 107.695C96.6334 109.24 97.1277 111.292 96.2638 113.61C95.3782 115.986 93.5402 117.294 92.0939 118.028C91.776 118.189 91.4576 118.33 91.1716 118.451C90.9941 118.525 90.8989 118.725 90.9661 118.905C91.6219 120.665 92.3029 122.555 92.707 124.362C93.1104 126.166 93.3369 128.289 92.7355 130.442C91.4222 135.14 87.0304 137.627 81.5273 139.003C81.0113 139.132 80.4912 138.82 80.348 138.308L78.316 131.04C78.1618 130.488 78.503 129.923 79.0566 129.775C80.6763 129.344 81.5605 128.916 82.0159 128.611C82.4281 128.334 82.4376 128.206 82.4556 128.141C82.5163 127.924 82.5769 127.379 82.3185 126.223C82.0604 125.068 81.5823 123.698 80.9139 121.904C80.1229 119.781 79.6644 117.492 80.3733 115.295C81.1794 112.798 83.1227 111.479 84.525 110.782C84.815 110.638 84.9088 110.269 84.7208 110.005C84.1344 109.183 83.4372 107.932 83.3403 106.376C83.1844 103.866 84.5785 101.887 86.1676 100.465C86.7393 99.9538 86.9433 99.6048 87.0239 99.4192C87.0975 99.2492 87.1439 99.0423 87.1144 98.6995C87.0373 97.804 86.5146 96.4853 85.1743 94.0872C84.4147 92.728 83.5909 90.9184 83.7878 88.9218C84.0244 86.5227 85.5682 85.0364 86.6307 84.2216C88.1294 83.0723 88.876 82.7711 89.686 82.1192C90.0894 81.7945 90.1022 81.2014 89.7501 80.8218C89.5916 80.6509 89.4101 80.4584 89.2019 80.2411C88.3719 79.3748 86.7325 77.7355 85.8469 75.8209C85.3507 74.7481 84.9911 73.4115 85.1588 71.8983C85.3292 70.3609 86.0065 68.9809 87.0006 67.7951L87.3213 67.3693C87.4635 67.153 87.5291 66.9999 87.5594 66.9074C87.5819 66.8389 87.5907 66.7646 87.5666 66.6967C87.5527 66.6577 87.5298 66.606 87.4921 66.5385C87.3527 66.2892 87.0513 65.9041 86.4677 65.4068C85.8932 64.9173 85.1658 64.4197 84.3259 63.9188C81.2535 62.0863 80.6258 59.0577 80.4276 57.462C80.2189 55.7812 80.3112 53.7008 80.3112 52.5697C80.3112 52.0509 79.8931 51.6401 79.3756 51.6047C76.8334 51.4309 74.0259 50.824 71.9844 48.6934C70.7207 47.3744 70.1368 45.858 69.7804 44.6967C69.4267 43.5436 69.1294 39.7501 68.8259 38.3927C68.7649 38.1196 68.6909 38.0028 68.6733 37.9761C68.659 37.9545 68.6542 37.9457 68.6319 37.9298C68.5566 37.8762 68.219 37.6831 67.3049 37.5387C66.3952 37.3951 65.2606 37.3525 63.849 37.3698C62.8184 37.3824 60.6511 37.4624 59.4515 37.4624C53.2692 37.4624 52.6957 37.0029 51.2694 35.1001C51.1403 34.9279 51.0703 34.7171 51.0703 34.5018V27.6219Z" fill="url(#paint3_linear_277_926)" fill-opacity="0.2"/>
<path d="M80.3115 52.5695C80.3114 52.0833 79.9439 51.6916 79.4717 51.6154L79.376 51.6046C76.9132 51.4362 74.2008 50.8617 72.1777 48.8888L71.9844 48.6935C70.7207 47.3745 70.1366 45.8577 69.7803 44.6964C69.4487 43.6151 69.1667 40.2144 68.8828 38.6749L68.8262 38.3927C68.7651 38.1196 68.6905 38.0023 68.6729 37.9757C68.6588 37.9545 68.6539 37.9456 68.6318 37.9298C68.5658 37.8828 68.2989 37.7292 67.6211 37.5949L67.3047 37.5392C66.3951 37.3956 65.2602 37.3529 63.8486 37.3702L61.7139 37.421C60.8932 37.4426 60.0511 37.462 59.4512 37.462V35.962C60.6706 35.962 62.7002 35.8841 63.8311 35.8702C65.2665 35.8527 66.5023 35.8931 67.5391 36.0568C68.4408 36.1992 69.0074 36.4061 69.3623 36.6173L69.502 36.7081C69.5856 36.7677 69.6958 36.8576 69.8047 36.9874C69.8513 37.043 69.8853 37.0904 69.9023 37.1154L69.9238 37.1476L70.0176 37.3038C70.1139 37.4821 70.2146 37.7282 70.29 38.0656C70.4623 38.8363 70.623 40.2307 70.7725 41.4367C70.9376 42.769 71.0865 43.8387 71.2148 44.257C71.5452 45.3336 72.0433 46.5864 73.0674 47.6554C74.7157 49.3757 77.0525 49.9427 79.4775 50.1085C80.71 50.1928 81.8114 51.192 81.8115 52.5695C81.8115 53.8106 81.7225 55.7192 81.916 57.2775C82.0986 58.7471 82.6382 61.1664 85.0938 62.631C85.9748 63.1565 86.7795 63.7017 87.4404 64.2648C88.1076 64.8333 88.5474 65.3517 88.8018 65.8068C88.8362 65.8685 88.8685 65.9317 88.8984 65.9962L88.9805 66.1954L89.0352 66.381C89.1347 66.8052 89.0514 67.1696 88.9844 67.3742C88.907 67.6103 88.7792 67.8832 88.5752 68.1935L88.5488 68.2335L88.5195 68.2716L88.1982 68.6974L88.1748 68.7286L88.1504 68.7589C87.309 69.7626 86.7814 70.8731 86.6494 72.0636C86.5194 73.2369 86.794 74.2965 87.208 75.1915C87.9679 76.8342 89.4082 78.2879 90.2852 79.2033C90.4981 79.4255 90.6849 79.6243 90.8496 79.8019C91.7287 80.7495 91.7797 82.3604 90.627 83.2882C90.1404 83.6798 89.6668 83.9682 89.2178 84.2521C88.7609 84.5409 88.2414 84.8757 87.543 85.4113C86.5972 86.1366 85.4558 87.2902 85.2803 89.0695C85.131 90.5843 85.7533 92.0492 86.4834 93.3556C87.8105 95.7301 88.4999 97.3116 88.6084 98.5704L88.6094 98.5714C88.6574 99.1301 88.5848 99.5903 88.4004 100.016V100.017C88.2146 100.445 87.8611 100.963 87.168 101.583C85.7351 102.865 84.7232 104.433 84.8379 106.282L84.8564 106.498C84.9757 107.566 85.4679 108.469 85.9424 109.134C86.6703 110.155 86.3022 111.574 85.1924 112.125C83.9429 112.746 82.4258 113.82 81.8008 115.756C81.281 117.367 81.5346 119.137 82.1846 121.006L82.3193 121.381L82.7891 122.661C83.2276 123.885 83.5695 124.944 83.7822 125.896C84.066 127.165 84.0554 127.988 83.9004 128.544V128.545C83.9291 128.442 83.8807 128.63 83.8359 128.745C83.7748 128.903 83.6905 129.054 83.583 129.197C83.4343 129.395 83.2516 129.564 83.0537 129.713L82.8516 129.857C82.2669 130.249 81.3387 130.681 79.8896 131.099L81.6572 137.42C86.7619 136.06 90.2398 133.799 91.291 130.038C91.7977 128.225 91.6212 126.381 91.2432 124.69C90.959 123.419 90.5248 122.088 90.0479 120.757L89.5605 119.429C89.1909 118.436 89.7301 117.429 90.5908 117.068L91 116.889C91.1384 116.826 91.278 116.76 91.415 116.691C92.6958 116.04 94.1584 114.964 94.8584 113.086C95.5342 111.272 95.1618 109.683 94.46 108.427C94.3341 108.202 94.176 107.96 93.998 107.712C93.3098 106.754 93.3603 105.457 94.0986 104.553L94.3916 104.178C95.8009 102.296 96.3711 100.273 96.1846 98.1017C96.0019 95.9776 95.0881 93.8483 94.0215 91.8292C93.4572 90.7604 93.7998 89.469 94.7539 88.7941L95.166 88.4952C96.1445 87.7685 97.2267 86.8326 98.2988 85.5538C99.1401 84.5503 99.6668 83.4396 99.7988 82.2492C99.9289 81.0758 99.6542 80.0163 99.2402 79.1212C98.4805 77.4788 97.0411 76.0249 96.1641 75.1095C95.8897 74.8231 95.6575 74.5754 95.4609 74.3615C94.6286 73.4556 94.6548 72.1807 95.2324 71.2911C96.0013 70.1073 96.4787 68.8873 96.6289 67.6329C96.8326 65.9311 96.4133 64.378 95.6602 63.0304C94.41 60.7938 92.2081 59.0678 90.2412 57.8175C89.8865 57.5919 89.5385 57.1782 89.4668 56.6007C89.3293 55.4932 89.4062 54.2566 89.4062 52.5695C89.4062 51.1544 89.3618 49.1315 88.5449 47.4259L88.3623 47.0724C87.9014 46.244 87.1919 45.3989 86.1025 44.7492C84.845 43.9992 83.4052 43.7023 81.9668 43.7023C81.4239 43.7023 80.972 43.6921 80.5957 43.6759C79.5254 43.6297 78.6118 42.8886 78.3486 41.8468C78.1817 41.1857 78.0006 40.3464 77.751 39.2296L77.6416 38.7628C77.3673 37.6311 76.949 36.2126 76.4023 34.9035C75.7479 33.3361 75.0237 32.2114 74.3584 31.7374C72.6675 30.5334 70.6921 29.9656 68.9131 29.6847C67.1349 29.404 65.3068 29.3713 63.7227 29.3908C61.8838 29.4133 60.8507 29.4835 59.4512 29.4835C58.2218 29.4835 57.1826 29.1519 56.3447 28.7042C56.3351 28.7012 56.3217 28.6965 56.3037 28.6915C56.2266 28.6703 56.1105 28.643 55.9531 28.6124C55.6398 28.5515 55.2306 28.4892 54.7676 28.4279C54.0523 28.3331 53.254 28.2488 52.5703 28.1818V34.3322C53.1785 35.1336 53.4442 35.3764 54.0371 35.5675C54.869 35.8356 56.3166 35.962 59.4512 35.962V37.462C53.6557 37.462 52.7891 37.0587 51.5283 35.4406L51.2695 35.0997C51.1728 34.9707 51.1087 34.8202 51.083 34.6622L51.0703 34.5021V27.6222C51.0703 27.0387 51.5664 26.5792 52.1475 26.6329C53.7111 26.7778 56.4799 27.0688 56.9941 27.3517C57.5718 27.6694 58.2704 27.9144 59.0918 27.9708L59.4512 27.9835C60.5379 27.9835 61.267 27.9446 62.4033 27.9152L63.7041 27.8908C65.3137 27.871 67.2419 27.9026 69.1465 28.2033C71.0468 28.5033 73.2759 29.1244 75.2285 30.5148C77.2942 31.9858 78.6572 36.4083 79.2148 38.9015C79.4689 40.0381 79.6434 40.8447 79.8037 41.4796C79.9041 41.8771 80.2507 42.1591 80.6602 42.1769C81.0121 42.1921 81.4425 42.2023 81.9668 42.2023C83.6045 42.2023 85.3267 42.54 86.8711 43.4611C88.4124 44.3804 89.3447 45.6239 89.8975 46.7775C90.8787 48.8259 90.9062 51.1701 90.9062 52.5695C90.9062 54.4006 90.8337 55.431 90.9561 56.4161C90.9631 56.4723 90.9982 56.5215 91.0459 56.5519C93.0733 57.8406 95.5341 59.7303 96.9697 62.299C97.849 63.8723 98.366 65.7416 98.1182 67.8117L98.0801 68.0949C97.8639 69.5098 97.3083 70.8504 96.4912 72.1085C96.2392 72.4966 96.2523 73.0061 96.5654 73.3468C96.7535 73.5514 96.9782 73.7908 97.2471 74.0714C98.0771 74.9378 99.716 76.577 100.602 78.4913C101.098 79.5641 101.458 80.901 101.29 82.4142L101.252 82.7003C101.034 84.1231 100.38 85.4059 99.4482 86.5177L98.9492 87.089C97.786 88.3723 96.6319 89.3029 95.6201 90.0187C95.2646 90.2701 95.1444 90.744 95.3477 91.129C96.4364 93.1899 97.4693 95.5379 97.6787 97.9728C97.913 100.698 97.116 103.228 95.2598 105.501C94.9465 105.885 94.9278 106.435 95.2168 106.837C95.4161 107.115 95.6078 107.406 95.7695 107.695C96.633 109.241 97.1275 111.292 96.2637 113.61L96.0869 114.043C95.15 116.148 93.4497 117.34 92.0938 118.028L91.6211 118.255C91.4661 118.325 91.3148 118.39 91.1719 118.45C90.9943 118.525 90.8986 118.725 90.9658 118.905C91.6216 120.665 92.3029 122.555 92.707 124.362C93.1104 126.167 93.3368 128.289 92.7354 130.442C91.4221 135.14 87.0304 137.626 81.5273 139.003L81.4307 139.023C80.9478 139.093 80.4819 138.788 80.3477 138.308L78.3164 131.04C78.1621 130.488 78.503 129.923 79.0566 129.776C80.4739 129.398 81.3278 129.023 81.8242 128.731L82.0156 128.611C82.4272 128.335 82.4381 128.206 82.4561 128.142C82.5091 127.951 82.5621 127.51 82.4014 126.628L82.3184 126.223C82.0603 125.068 81.5825 123.698 80.9141 121.904C80.1725 119.914 79.7232 117.777 80.2539 115.708L80.373 115.295C81.1288 112.955 82.884 111.649 84.2559 110.92L84.5254 110.782C84.8152 110.638 84.9087 110.269 84.7207 110.005C84.171 109.234 83.5238 108.087 83.3652 106.664L83.3398 106.376C83.1937 104.023 84.4101 102.136 85.8721 100.738L86.168 100.465C86.7394 99.9537 86.9429 99.6047 87.0234 99.4191C87.0971 99.2491 87.1437 99.0422 87.1143 98.6993C87.0468 97.9159 86.6384 96.8084 85.6396 94.9376L85.1748 94.087C84.4627 92.8128 83.6938 91.143 83.7627 89.2941L83.7881 88.922C84.0247 86.5229 85.5684 85.0366 86.6309 84.2218C87.9423 83.2162 88.6778 82.8598 89.3838 82.3497L89.6855 82.1193C90.0889 81.7947 90.1021 81.201 89.75 80.8214L89.2021 80.2413C88.4241 79.4292 86.9344 77.9376 86.0215 76.1769L85.8467 75.8214C85.3815 74.8157 85.0369 73.5775 85.1338 72.1798L85.1592 71.8986C85.3296 70.3613 86.0069 68.9809 87.001 67.7951L87.3213 67.3693C87.3924 67.2611 87.4445 67.1688 87.4824 67.0919L87.5596 66.9074C87.582 66.8389 87.5905 66.7643 87.5664 66.6964L87.4922 66.5382C87.3703 66.3201 87.1242 65.9981 86.6738 65.588L86.4678 65.4064C86.0371 65.0394 85.5202 64.6682 84.9346 64.2941L84.3262 63.9191C81.4459 62.2012 80.7142 59.4318 80.4707 57.7775L80.4277 57.462C80.2712 56.2016 80.2836 54.7164 80.2998 53.5753L80.3115 52.5695Z" fill="black"/>
<path d="M10.1699 113.668C-21.9281 37.7701 29.8485 7.33393 56.4613 3.49984C57.0545 3.41438 57.5573 3.88258 57.5573 4.48195L57.5573 13.0947C57.5573 13.6038 57.152 14.0337 56.6468 14.0961C-0.562279 21.1665 4.60194 82.2604 16.7068 112.093C16.9484 112.688 16.5765 113.342 15.9437 113.453L11.2693 114.279C10.812 114.359 10.3508 114.096 10.1699 113.668Z" fill="white"/>
<path d="M10.1699 113.668C-21.9281 37.7701 29.8485 7.33393 56.4613 3.49984C57.0545 3.41438 57.5573 3.88258 57.5573 4.48195L57.5573 13.0947C57.5573 13.6038 57.152 14.0337 56.6468 14.0961C-0.562279 21.1665 4.60194 82.2604 16.7068 112.093C16.9484 112.688 16.5765 113.342 15.9437 113.453L11.2693 114.279C10.812 114.359 10.3508 114.096 10.1699 113.668Z" fill="url(#paint4_linear_277_926)" fill-opacity="0.2"/>
<path d="M56.0576 5.07687C43.0925 7.12013 24.3169 15.5175 12.5293 32.4177C0.663964 49.4296 -4.30974 75.3392 11.4043 112.731L15.0879 112.081C9.07942 96.9678 4.84513 74.2463 9.21875 54.238C11.4392 44.0802 15.8926 34.5605 23.5215 27.1218C31.0898 19.7421 41.6852 14.5095 56.0576 12.6608V5.07687ZM57.5527 13.1892C57.5064 13.6561 57.1202 14.0379 56.6465 14.0964L55.3174 14.2712C-0.481071 22.1186 4.69683 82.493 16.707 112.092C16.9486 112.688 16.5761 113.341 15.9434 113.453L11.2695 114.279L11.1836 114.29C10.8123 114.321 10.4503 114.132 10.25 113.82L10.1699 113.668C-21.9277 37.7703 29.848 7.334 56.4609 3.49972C57.0542 3.41425 57.5576 3.88276 57.5576 4.48214V13.0944L57.5527 13.1892Z" fill="black"/>
<path d="M18.2405 117.722C-13.9611 41.8032 27.0757 14.8585 56.5007 12.3524C57.0768 12.3033 57.5563 12.7626 57.5563 13.3408L57.5557 21.9983C57.5557 22.5074 57.1469 22.9376 56.6416 22.9997C-0.429127 30.0156 12.4755 86.4709 24.7671 116.148C25.0131 116.742 24.6414 117.396 24.0085 117.508L19.34 118.332C18.8827 118.413 18.4218 118.149 18.2405 117.722Z" fill="white"/>
<path d="M18.2405 117.722C-13.9611 41.8032 27.0757 14.8585 56.5007 12.3524C57.0768 12.3033 57.5563 12.7626 57.5563 13.3408L57.5557 21.9983C57.5557 22.5074 57.1469 22.9376 56.6416 22.9997C-0.429127 30.0156 12.4755 86.4709 24.7671 116.148C25.0131 116.742 24.6414 117.396 24.0085 117.508L19.34 118.332C18.8827 118.413 18.4218 118.149 18.2405 117.722Z" fill="url(#paint5_linear_277_926)" fill-opacity="0.2"/>
<path d="M56.0557 13.8986C41.8013 15.2631 25.0187 22.4739 15.5469 38.2785C6.00182 54.2054 3.64178 79.2688 19.4736 116.784L23.1416 116.138C17.0414 101.245 10.8153 79.7337 13.2051 60.8869C14.4204 51.3025 17.8756 42.3242 24.7861 35.2892C31.6366 28.3155 41.749 23.3902 56.0557 21.5636V13.8986ZM57.5557 21.9982C57.5556 22.5073 57.1469 22.938 56.6416 23.0002L55.3164 23.173C-0.227516 30.896 12.572 86.7031 24.7676 116.149C25.0132 116.742 24.6414 117.396 24.0088 117.508L19.3398 118.332L19.2539 118.343C18.8259 118.379 18.4102 118.122 18.2402 117.722C-13.9611 41.8033 27.076 14.8589 56.501 12.3527C57.077 12.3038 57.5567 12.7629 57.5566 13.341L57.5557 21.9982Z" fill="black"/>
<path d="M23.7446 119.866C-8.25766 43.4515 28.2097 18.2119 56.4418 16.113C57.0141 16.0704 57.489 16.5282 57.4887 17.1021L57.484 25.8485C57.4838 26.3569 57.0738 26.7868 56.5693 26.8496C-0.0704536 33.8957 17.891 88.4734 30.2323 118.299C30.4769 118.89 30.1066 119.54 29.4769 119.653L24.8485 120.481C24.3887 120.563 23.9251 120.297 23.7446 119.866Z" fill="white"/>
<path d="M23.7446 119.866C-8.25766 43.4515 28.2097 18.2119 56.4418 16.113C57.0141 16.0704 57.489 16.5282 57.4887 17.1021L57.484 25.8485C57.4838 26.3569 57.0738 26.7868 56.5693 26.8496C-0.0704536 33.8957 17.891 88.4734 30.2323 118.299C30.4769 118.89 30.1066 119.54 29.4769 119.653L24.8485 120.481C24.3887 120.563 23.9251 120.297 23.7446 119.866Z" fill="url(#paint6_linear_277_926)" fill-opacity="0.2"/>
<path d="M56.4414 16.1129C57.0137 16.0703 57.4886 16.5282 57.4883 17.1021L57.4844 25.8482C57.4841 26.3565 57.0738 26.7864 56.5693 26.8492L55.2559 27.023C0.209709 34.7464 17.9875 88.7068 30.2324 118.299C30.4767 118.89 30.1061 119.54 29.4766 119.653L24.8486 120.481L24.7627 120.492C24.3896 120.524 24.0258 120.334 23.8252 120.02L23.7451 119.867C-8.25705 43.4521 28.2094 18.212 56.4414 16.1129ZM55.9873 17.6539C42.3631 18.8156 27.0493 25.4954 18.8272 40.8296C10.5116 56.3383 9.21976 81.1248 24.9814 118.933L28.6064 118.285C22.4821 103.41 14.9804 82.3357 16.0352 63.9459C16.5722 54.5839 19.3321 45.799 25.7236 38.898C32.0575 32.0592 41.7985 27.2448 55.9844 25.4136L55.9873 17.6539Z" fill="black"/>
<path d="M29.0041 124.58C-3.2551 48.389 27.9109 28.6135 57.0428 25.8661C57.6178 25.8119 58.1106 26.2623 58.1199 26.8398L58.2786 36.7204C58.287 37.2419 57.8641 37.6844 57.3456 37.741C9.36929 42.9752 25.9703 91.3956 38.3835 120.98C38.6028 121.502 38.3408 122.091 37.8108 122.292L30.2864 125.145C29.7851 125.335 29.2131 125.073 29.0041 124.58Z" fill="white"/>
<path d="M29.0041 124.58C-3.2551 48.389 27.9109 28.6135 57.0428 25.8661C57.6178 25.8119 58.1106 26.2623 58.1199 26.8398L58.2786 36.7204C58.287 37.2419 57.8641 37.6844 57.3456 37.741C9.36929 42.9752 25.9703 91.3956 38.3835 120.98C38.6028 121.502 38.3408 122.091 37.8108 122.292L30.2864 125.145C29.7851 125.335 29.2131 125.073 29.0041 124.58Z" fill="url(#paint7_linear_277_926)" fill-opacity="0.2"/>
<path d="M57.043 25.8664C57.6179 25.8122 58.1108 26.2626 58.1201 26.84L58.2783 36.7209C58.2865 37.2422 57.864 37.6848 57.3457 37.7414L56.2334 37.8712C9.62828 43.73 26.0675 91.6267 38.3838 120.98C38.603 121.502 38.3405 122.091 37.8106 122.292L30.2861 125.146L30.1914 125.176C29.7465 125.293 29.2689 125.075 29.0479 124.669L29.0039 124.58C-3.25529 48.3895 27.911 28.6138 57.043 25.8664ZM56.6289 27.4162C42.4713 28.8577 28.3159 34.3985 21.3438 48.3517C14.2704 62.5079 14.3074 85.8466 30.207 123.571L36.7969 121.072C30.6427 106.357 23.4205 86.8318 23.7188 70.2023C23.8702 61.7555 25.9623 53.9 31.2656 47.8097C36.5188 41.7771 44.7456 37.6813 56.7715 36.298L56.6289 27.4162Z" fill="black"/>
<path d="M84.7019 8.91067C84.392 8.4535 84.5115 7.8317 84.9686 7.52184L95.0769 0.670837C95.5341 0.36098 96.1559 0.480406 96.4657 0.937579L139.993 65.1593C140.303 65.6165 140.183 66.2383 139.726 66.5482L129.618 73.3992C129.161 73.709 128.539 73.5896 128.229 73.1324L84.7019 8.91067Z" fill="white"/>
<path d="M84.7019 8.91067C84.392 8.4535 84.5115 7.8317 84.9686 7.52184L95.0769 0.670837C95.5341 0.36098 96.1559 0.480406 96.4657 0.937579L139.993 65.1593C140.303 65.6165 140.183 66.2383 139.726 66.5482L129.618 73.3992C129.161 73.709 128.539 73.5896 128.229 73.1324L84.7019 8.91067Z" fill="url(#paint8_linear_277_926)" fill-opacity="0.2"/>
<path d="M129.191 71.8773L138.471 65.5875L95.5044 2.19317L86.2241 8.483L129.191 71.8773ZM139.993 65.1598L140.046 65.2466C140.271 65.6631 140.171 66.1826 139.808 66.4863L139.726 66.5487L129.618 73.3995L129.53 73.4522C129.114 73.6765 128.594 73.577 128.29 73.2141L128.229 73.1328L84.7019 8.91067C84.392 8.4535 84.5115 7.8317 84.9686 7.52184L95.0767 0.670969C95.5339 0.361113 96.1557 0.480537 96.4655 0.937711L139.993 65.1598Z" fill="black"/>
<path d="M78.8426 12.7217C78.5328 12.2645 78.6522 11.6427 79.1094 11.3329L84.5121 7.67111C84.9693 7.36125 85.5911 7.48068 85.9009 7.93785L101.609 31.1136C101.918 31.5707 101.799 32.1925 101.342 32.5024L95.9391 36.1641C95.482 36.474 94.8602 36.3546 94.5503 35.8974L78.8426 12.7217Z" fill="white"/>
<path d="M78.8426 12.7217C78.5328 12.2645 78.6522 11.6427 79.1094 11.3329L84.5121 7.67111C84.9693 7.36125 85.5911 7.48068 85.9009 7.93785L101.609 31.1136C101.918 31.5707 101.799 32.1925 101.342 32.5024L95.9391 36.1641C95.482 36.474 94.8602 36.3546 94.5503 35.8974L78.8426 12.7217Z" fill="url(#paint9_linear_277_926)" fill-opacity="0.2"/>
<path d="M95.5114 34.6418L100.086 31.5413L84.9395 9.1935L80.3648 12.294L95.5114 34.6418ZM101.608 31.1136C101.918 31.5708 101.799 32.1926 101.341 32.5025L95.9391 36.164C95.4819 36.4739 94.8601 36.3545 94.5502 35.8973L78.8426 12.7217C78.5328 12.2645 78.6522 11.6427 79.1094 11.3329L84.5118 7.6713C84.969 7.36144 85.5908 7.48087 85.9007 7.93804L101.608 31.1136Z" fill="black"/>
<defs>
<linearGradient id="paint0_linear_277_926" x1="93.9574" y1="122.358" x2="96.4279" y2="15.5789" gradientUnits="userSpaceOnUse">
<stop stop-color="white" stop-opacity="0"/>
<stop offset="1" stop-color="white"/>
</linearGradient>
<linearGradient id="paint1_linear_277_926" x1="91.5199" y1="130.126" x2="94.0261" y2="22.5791" gradientUnits="userSpaceOnUse">
<stop stop-color="white" stop-opacity="0"/>
<stop offset="1" stop-color="white"/>
</linearGradient>
<linearGradient id="paint2_linear_277_926" x1="91.5199" y1="137.854" x2="94.0261" y2="30.3071" gradientUnits="userSpaceOnUse">
<stop stop-color="white" stop-opacity="0"/>
<stop offset="1" stop-color="white"/>
</linearGradient>
<linearGradient id="paint3_linear_277_926" x1="88.4867" y1="144.731" x2="90.997" y2="37.954" gradientUnits="userSpaceOnUse">
<stop stop-color="white" stop-opacity="0"/>
<stop offset="1" stop-color="white"/>
</linearGradient>
<linearGradient id="paint4_linear_277_926" x1="42.8479" y1="119.847" x2="44.9776" y2="14.5908" gradientUnits="userSpaceOnUse">
<stop stop-color="white" stop-opacity="0"/>
<stop offset="1" stop-color="white"/>
</linearGradient>
<linearGradient id="paint5_linear_277_926" x1="44.5043" y1="123.662" x2="46.6987" y2="23.0227" gradientUnits="userSpaceOnUse">
<stop stop-color="white" stop-opacity="0"/>
<stop offset="1" stop-color="white"/>
</linearGradient>
<linearGradient id="paint6_linear_277_926" x1="45.6802" y1="125.735" x2="48.032" y2="26.6402" gradientUnits="userSpaceOnUse">
<stop stop-color="white" stop-opacity="0"/>
<stop offset="1" stop-color="white"/>
</linearGradient>
<linearGradient id="paint7_linear_277_926" x1="47.3131" y1="130.361" x2="49.6125" y2="35.8782" gradientUnits="userSpaceOnUse">
<stop stop-color="white" stop-opacity="0"/>
<stop offset="1" stop-color="white"/>
</linearGradient>
<linearGradient id="paint8_linear_277_926" x1="139.731" y1="71.2459" x2="101.199" y2="6.52363" gradientUnits="userSpaceOnUse">
<stop stop-color="white" stop-opacity="0"/>
<stop offset="1" stop-color="white"/>
</linearGradient>
<linearGradient id="paint9_linear_277_926" x1="101.189" y1="34.378" x2="86.1212" y2="10.2792" gradientUnits="userSpaceOnUse">
<stop stop-color="white" stop-opacity="0"/>
<stop offset="1" stop-color="white"/>
</linearGradient>
</defs>
</svg>
