<svg width="1386" height="254" viewBox="0 0 1386 254" fill="none" xmlns="http://www.w3.org/2000/svg">
<path d="M140.353 40.82L122.343 46.7062L98.1719 80.4878L119.68 100.504L151.624 73.9572L155.162 54.6018M140.353 40.82L155.162 54.6018M140.353 40.82L172.526 6.25004L187.335 20.0319L155.162 54.6018M129.39 51.8925L113.646 68.8097L129.865 83.9042L145.609 66.987L129.39 51.8925Z" stroke="#474747"/>
<path d="M482.988 96.5767C486.583 89.19 489.605 81.525 489.605 76.8655C489.605 71.9078 485.132 68.559 480.04 66.4554M482.988 96.5767C479.925 102.869 476.445 108.959 474.062 112.818C472.069 117.212 473.345 126 494.388 126C520.691 126 520.691 118.81 518.3 112.818C517.126 109.877 513.072 103.471 509.248 96.5767M482.988 96.5767H509.248M509.248 96.5767C505.281 89.4248 501.561 81.7471 501.561 76.8655C501.561 67.2783 518.3 67.2783 517.104 60.0879C516.148 54.3356 484.823 53.6964 469.28 54.0959V63.6831C472.162 64.023 476.27 64.8979 480.04 66.4554M480.04 66.4554C482.033 72.5573 483.866 85.3392 475.258 87.6512" stroke="#474747"/>
<path d="M828.806 111L814.28 96.4737L868.753 42L883.28 56.5263M869.964 51.6842L878.437 60.1579M865.122 56.5263L873.595 65M859.069 62.5789L867.543 71.0526M854.227 67.4211L862.701 75.8947M849.385 72.2632L857.859 80.7368M844.543 77.1053L853.016 85.5789M839.701 81.9474L848.174 90.4211M834.859 86.7895L843.332 95.2632M830.016 91.6316L838.49 100.105M825.174 96.4737L833.648 104.947" stroke="#474747"/>
<path d="M0.444555 163.245L15.0889 148.838L69.1162 203.755L54.4719 218.162M59.4225 204.886L50.8799 213.29M54.6201 200.005L46.0775 208.409M48.617 193.903L40.0745 202.307M43.8146 189.021L35.272 197.426M39.0122 184.14L30.4696 192.544M34.2097 179.258L25.6672 187.663M29.4073 174.377L20.8648 182.781M24.6049 169.495L16.0623 177.9M19.8025 164.614L11.2599 173.018M15 159.733L6.45747 168.137" stroke="#474747"/>
<path d="M643.81 85.4057H640.198V129H664.28V85.4057H660.667M643.81 85.4057V80.5619H649.831M643.81 85.4057H660.667M660.667 85.4057V80.5619H655.851M649.831 80.5619V72.0853H655.851V80.5619M649.831 80.5619H655.851M638.994 72.0853L605.28 63M635.382 76.9292H607.688M635.382 83.6221L607.688 91.4606" stroke="#474747"/>
<path d="M311.068 162.759H312.28V170L295.228 179.755V205H284.266V180.862L265.28 170V162.759H267.221M311.068 162.759V135M311.068 162.759H303.76M303.76 162.759V135M303.76 162.759H295.228M295.228 162.759V135M295.228 162.759H285.49M285.49 162.759V135M285.49 162.759H275.385M275.385 162.759V135M275.385 162.759H267.221M267.221 162.759V135" stroke="#474747"/>
<path d="M1117.06 48H1067.81C1054.36 48.96 1056.6 61.2 1059.41 67.2L1078.63 108L1090.64 103.2L1083.43 74.94L1117.06 65.9383M1117.06 48H1130.28V62.4L1117.06 65.9383M1117.06 48V65.9383" stroke="#474747"/>
<path d="M534.486 197.087L529.054 194.538L499.279 229.751L548.167 252.686L556.214 207.28L548.609 203.712M534.486 197.087L538.539 188.446L545.601 191.759M534.486 197.087L548.609 203.712M548.609 203.712L552.663 195.072L545.601 191.759M545.601 191.759L550.668 180.958M550.668 180.958L560.989 185.8M550.668 180.958L537.088 174.587L528.815 175.271" stroke="#474747"/>
<path d="M1062.28 212.73V227H1124.28V212.73M1062.28 212.73V205.595H1064.71M1062.28 212.73H1124.28M1124.28 212.73V205.595H1120.63M1120.63 205.595C1121.04 201.631 1118.2 193.703 1103.61 193.703M1120.63 205.595H1064.71M1101.18 199.649C1103.32 195.106 1104.33 186.376 1093.89 183.718M1089.02 183C1090.87 183.113 1092.48 183.36 1093.89 183.718M1093.89 183.718C1095.1 186.65 1095.83 192.514 1089.02 192.514C1080.51 192.514 1064.71 192.514 1064.71 205.595" stroke="#474747"/>
<path d="M805.78 142.5C821.235 142.5 833.78 155.252 833.78 171C833.78 186.748 821.235 199.5 805.78 199.5C790.324 199.5 777.78 186.748 777.78 171C777.78 155.252 790.324 142.5 805.78 142.5Z" stroke="#474747"/>
<path d="M805.989 198.632V218M805.989 218C811.231 218 821.715 218 821.715 218H805.989ZM805.989 218H789.054M833.812 172H842.28M778.167 173.211H767.28" stroke="#474747"/>
<path d="M805.78 149.5C817.367 149.5 826.78 159.115 826.78 171C826.78 182.885 817.367 192.5 805.78 192.5C794.192 192.5 784.78 182.885 784.78 171C784.78 159.115 794.192 149.5 805.78 149.5Z" stroke="#474747"/>
<path d="M792.28 172.182L804.453 184M798.367 161.545L814.193 176.909M808.106 158L820.28 169.818" stroke="#474747"/>
<path d="M1354.53 56.7949H1375.03M1354.53 56.7949V40.25C1354.53 34.5891 1359.12 30 1364.78 30C1370.44 30 1375.03 34.5891 1375.03 40.25V56.7949M1354.53 56.7949L1344.28 85H1357.46M1375.03 56.7949L1385.28 85H1373.57M1373.57 85V70.8974M1373.57 85H1366.24M1366.24 85V70.8974M1366.24 85H1357.46M1357.46 85V70.8974" stroke="#474747"/>
<path d="M934.904 138.779C937.785 138.779 940.355 140.114 942.028 142.201C943.28 143.763 944.028 145.745 944.029 147.903C944.029 152.943 939.943 157.028 934.904 157.028C929.864 157.028 925.78 152.942 925.78 147.903C925.78 142.864 929.865 138.78 934.904 138.779Z" stroke="#474747"/>
<path d="M992.651 107C984.631 117.828 963.297 140.204 942.123 143.092" stroke="#474747"/>
<path d="M956.561 159.934C957.363 152.315 965.704 131.061 992.653 107" stroke="#474747"/>
<circle cx="951.747" cy="167.153" r="9.12445" stroke="#474747"/>
<path d="M1253.26 114.856L1246.4 112.498L1240.92 128.429L1247.78 130.787M1253.26 114.856L1293.25 128.612M1253.26 114.856L1251.3 120.546M1247.78 130.787L1251.3 120.546M1247.78 130.787L1262.63 135.897M1287.77 144.544L1295.77 147.295L1301.25 131.364L1293.25 128.612M1287.77 144.544L1291.29 134.302M1287.77 144.544L1274.06 139.827M1293.25 128.612L1291.29 134.302M1291.29 134.302L1251.3 120.546M1262.63 135.897L1245.02 187.104L1256.45 191.035L1274.06 139.827M1262.63 135.897L1274.06 139.827" stroke="#474747"/>
</svg>
