<svg width="42" height="44" viewBox="0 0 42 44" fill="none" xmlns="http://www.w3.org/2000/svg">
<path d="M11.4567 23.6144L19.0787 26.6416C19.5842 26.8424 19.7786 27.3822 19.5161 27.8566L12.7142 40.1377C12.3175 40.8541 11.2107 40.9367 10.8268 40.2786L9.85039 38.6054C9.25492 37.5849 7.96201 37.0715 6.62569 37.3246L4.22362 37.7797C3.38227 37.9392 2.76886 37.2104 3.15614 36.5109L10.0137 24.1283C10.2844 23.6394 10.9356 23.4075 11.4567 23.6144Z" stroke="white" stroke-width="2"/>
<path d="M29.5458 23.0986L21.9229 26.1262C21.4077 26.3309 21.2176 26.8867 21.4992 27.3648L29.0266 40.1402C29.4378 40.8377 30.5222 40.9057 30.9003 40.2575L31.9374 38.4812C32.5329 37.4605 33.8255 36.9471 35.1621 37.2004L37.4325 37.6309C38.2867 37.7928 38.9004 37.0395 38.4867 36.3373L30.975 23.5888C30.6955 23.1146 30.057 22.8956 29.5458 23.0986Z" stroke="white" stroke-width="2"/>
<path d="M19.7958 0.563477C20.3621 -0.187829 21.4902 -0.187808 22.0565 0.563477L22.5341 1.19727C22.9875 1.79916 23.8335 1.94059 24.4579 1.51855L25.1151 1.07422C25.8948 0.547165 26.9622 0.913761 27.2538 1.80859L27.4999 2.5625C27.7334 3.27902 28.4872 3.68765 29.2147 3.49121L29.9803 3.28418C30.8889 3.03886 31.7802 3.73186 31.7655 4.67285L31.7528 5.4668C31.7412 6.22004 32.3215 6.85081 33.0731 6.90137L33.8651 6.9541C34.8039 7.01708 35.4215 7.9616 35.1024 8.84668L34.8329 9.59375C34.5771 10.3026 34.9213 11.0871 35.6161 11.3789L36.3475 11.6865C37.2152 12.051 37.4919 13.1454 36.9022 13.8789L36.4052 14.4971C35.9331 15.0844 36.004 15.9388 36.5663 16.4404L37.1591 16.9688C37.8611 17.5953 37.7673 18.7204 36.9716 19.2227L36.3007 19.6455C35.6634 20.0477 35.4531 20.8791 35.8221 21.5361L36.2108 22.2275C36.6716 23.0481 36.2183 24.082 35.3026 24.2988L34.5302 24.4814C33.7968 24.655 33.3281 25.373 33.4637 26.1143L33.6063 26.8945C33.7757 27.8203 33.0117 28.65 32.0751 28.5576L31.285 28.4805C30.5352 28.4066 29.8594 28.9327 29.7469 29.6777L29.6278 30.4629C29.4873 31.3932 28.4952 31.9304 27.6395 31.5391L26.9178 31.209C26.2325 30.8955 25.4214 31.1735 25.0731 31.8418L24.7069 32.5459C24.2719 33.3803 23.1587 33.566 22.4764 32.918L21.9012 32.3711C21.3549 31.8521 20.4974 31.8521 19.951 32.3711L19.3759 32.918C18.6936 33.566 17.5803 33.3803 17.1454 32.5459L16.7792 31.8418C16.4309 31.1735 15.6197 30.8955 14.9344 31.209L14.2128 31.5391C13.3571 31.9304 12.365 31.3932 12.2245 30.4629L12.1063 29.6777C11.994 28.9326 11.3171 28.4066 10.5673 28.4805L9.77722 28.5576C8.84068 28.65 8.07656 27.8202 8.24597 26.8945L8.38855 26.1143C8.52424 25.373 8.0555 24.655 7.32214 24.4814L6.54968 24.2988C5.63399 24.082 5.18065 23.048 5.64148 22.2275L6.03015 21.5361C6.39918 20.8791 6.18892 20.0477 5.55164 19.6455L4.88074 19.2227C4.08487 18.7203 3.99188 17.5952 4.69421 16.9688L5.28601 16.4404C5.84834 15.9388 5.91925 15.0844 5.44714 14.4971L4.95007 13.8789C4.36045 13.1454 4.63713 12.051 5.50476 11.6865L6.23621 11.3789C6.93099 11.0871 7.27524 10.3026 7.01941 9.59375L6.75085 8.84668C6.43156 7.96151 7.04824 7.01709 7.98718 6.9541L8.77917 6.90137C9.53086 6.85084 10.1111 6.22006 10.0995 5.4668L10.0868 4.67285C10.0721 3.73186 10.9634 3.03886 11.8719 3.28418L12.6376 3.49121C13.3651 3.68765 14.1189 3.27902 14.3524 2.5625L14.5985 1.80859C14.8901 0.91376 15.9575 0.547165 16.7372 1.07422L17.3944 1.51855C18.0188 1.94059 18.8648 1.79916 19.3182 1.19727L19.7958 0.563477ZM22.6464 11.5391C22.0418 9.70888 19.4521 9.7089 18.8475 11.5391L18.6971 11.9951C18.4265 12.8145 17.6606 13.3682 16.7977 13.3682H16.3807C14.4355 13.3682 13.6353 15.8637 15.2177 16.9951L15.4999 17.1973C16.2119 17.7065 16.5097 18.6199 16.2352 19.4512L16.1151 19.8174C15.5088 21.6543 17.604 23.1964 19.1776 22.0713L19.5839 21.7803C20.2795 21.283 21.2144 21.283 21.91 21.7803L22.3163 22.0713C23.8899 23.1964 25.985 21.6543 25.3788 19.8174L25.2577 19.4512C24.9832 18.6198 25.2819 17.7065 25.994 17.1973L26.2762 16.9951C27.8586 15.8637 27.0583 13.3682 25.1132 13.3682H24.6952C23.8325 13.368 23.0673 12.8143 22.7968 11.9951L22.6464 11.5391Z" fill="white"/>
</svg>
