<svg width="145" height="145" viewBox="0 0 145 145" fill="none" xmlns="http://www.w3.org/2000/svg">
<path d="M73.5372 1.07881L73.5664 0.84005L80.404 1.21574L80.3854 1.26279L80.4694 3.5268L80.1428 3.63705L80.0031 1.51419L75.6576 1.27543L75.3741 6.43565L79.1923 6.64544C79.245 6.65902 79.2935 6.651 79.3379 6.62139C79.3828 6.58112 79.407 6.52904 79.4106 6.46514L79.535 5.36631L79.7924 5.3484L79.6423 8.08028C79.6316 8.0797 79.5515 8.08064 79.4018 8.08309L79.3984 6.97725L75.3565 6.75517L75.0774 11.8355L76.1762 11.96C76.1757 11.9706 76.1659 12.0502 76.1471 12.1987L72.9351 12.0383L72.9633 11.8155L73.8002 11.7493C73.9073 11.7445 73.975 11.6788 74.0033 11.5522L74.559 1.43941C74.5447 1.31043 74.4846 1.23769 74.3787 1.22119L73.5372 1.07881Z" fill="white"/>
<path d="M81.1186 9.00775C80.742 11.2808 81.4377 12.5637 83.2056 12.8566C83.6686 12.9333 84.171 12.9679 84.7129 12.9604C85.2565 12.9423 85.6089 12.9034 85.7702 12.8436L85.8545 13.0198C85.5863 13.1375 85.1647 13.2028 84.5895 13.2157C84.0249 13.2302 83.511 13.1992 83.048 13.1224C82.5955 13.0475 82.1929 12.9321 81.8403 12.7764C81.4982 12.6224 81.1578 12.393 80.8191 12.0882C80.4803 11.7834 80.2432 11.3549 80.1076 10.8026C79.9721 10.2504 79.9662 9.60069 80.09 8.85354C80.3201 7.46448 80.854 6.46091 81.6916 5.84284C82.566 5.19843 83.4978 4.95817 84.487 5.12206C85.4762 5.28595 86.1833 5.68421 86.6083 6.31685C87.0438 6.95123 87.1796 7.76301 87.0157 8.75219C86.9808 8.96265 86.9275 9.18629 86.8559 9.42309L81.2207 8.48946C81.191 8.60347 81.157 8.77623 81.1186 9.00775ZM86.1027 8.4874C86.2334 7.69816 86.1662 7.02747 85.9008 6.47535C85.6373 5.9127 85.2056 5.58169 84.6057 5.48231C83.827 5.35329 83.1127 5.58633 82.4626 6.18142C81.9423 6.64662 81.5554 7.31774 81.302 8.19478L86.0058 8.97411C86.0355 8.8601 86.0678 8.69786 86.1027 8.4874Z" fill="white"/>
<path d="M92.5179 7.50866C91.9063 7.31999 91.1743 7.32768 90.3221 7.53173L88.2496 13.8737L89.3654 14.3225C89.3621 14.3326 89.3322 14.407 89.2756 14.5456L86.229 13.5668C86.2588 13.4756 86.2871 13.4063 86.3138 13.3589L87.1394 13.5109C87.2002 13.5307 87.2557 13.4984 87.3058 13.4137L89.4876 6.73721C89.4906 6.65961 89.4717 6.61418 89.4312 6.60093L88.5286 6.27231L88.6134 6.06436C89.1907 6.15203 89.6213 6.24226 89.9052 6.33503C90.1891 6.4278 90.3602 6.55666 90.4185 6.7216C90.4769 6.88654 90.4812 7.04505 90.4315 7.19714L90.3718 7.37964C91.3857 7.12742 92.249 7.09534 92.9618 7.28341C93.925 7.59818 94.4895 8.08564 94.6554 8.7458C95.7031 8.52712 96.624 8.52506 97.4179 8.73963C98.1277 8.97157 98.617 9.29419 98.8859 9.7075C99.0152 9.89563 99.0943 10.1515 99.1232 10.4752C99.1655 10.792 99.1237 11.1431 98.9978 11.5283L97.2683 16.8209L98.384 17.2697C98.3807 17.2798 98.3508 17.3542 98.2943 17.4929L95.2476 16.5141C95.2774 16.4228 95.3057 16.3535 95.3324 16.3061L96.158 16.4581C96.2189 16.478 96.2743 16.4456 96.3244 16.361L97.885 11.5855C98.0176 11.1799 98.0795 10.8187 98.0709 10.5016C98.0656 10.1745 98.0237 9.9251 97.9451 9.75353C97.8665 9.58196 97.7475 9.43087 97.5882 9.30026C97.4119 9.15288 97.2072 9.04108 96.974 8.96488C96.3421 8.76959 95.5798 8.7842 94.6873 9.00872C94.7263 9.33569 94.6829 9.69181 94.5569 10.0771L92.8274 15.3697L93.9432 15.8185C93.9399 15.8286 93.9099 15.903 93.8534 16.0416L90.7915 15.0578L90.8763 14.8499L91.7019 15.0019C91.7762 15.0149 91.8384 14.9791 91.8885 14.8945L93.4491 10.119C93.6115 9.62224 93.6781 9.19514 93.649 8.83775C93.6232 8.47023 93.5154 8.19933 93.3255 8.02505C93.071 7.77356 92.8018 7.60143 92.5179 7.50866Z" fill="white"/>
<path d="M102.052 11.732L99.0395 18.077L100.089 18.664C100.085 18.6737 100.045 18.7436 99.9717 18.874L97.0742 17.5158C97.1154 17.429 97.1522 17.3639 97.1848 17.3203L97.9844 17.576C98.0422 17.6034 98.1013 17.5784 98.1618 17.5008L101.175 11.1559C101.187 11.0793 101.175 11.0318 101.136 11.0135L100.283 10.5728L100.393 10.3773C100.955 10.5377 101.37 10.6819 101.64 10.81C101.91 10.9381 102.063 11.0877 102.1 11.2587C102.137 11.4297 102.121 11.5875 102.052 11.732ZM102.762 8.96938C102.569 8.87787 102.447 8.74913 102.396 8.58318C102.35 8.40758 102.372 8.22343 102.464 8.03072C102.56 7.82838 102.688 7.69456 102.849 7.62926C103.024 7.55891 103.208 7.56948 103.401 7.66099C103.594 7.7525 103.718 7.88834 103.774 8.06851C103.845 8.24362 103.83 8.43716 103.729 8.64914C103.633 8.85149 103.495 8.98073 103.315 9.03688C103.139 9.08339 102.955 9.06089 102.762 8.96938Z" fill="white"/>
<path d="M100.359 19.0656L100.488 18.8819L101.259 19.2146C101.347 19.255 101.426 19.2157 101.498 19.0969L105.068 13.1595C105.094 13.0754 105.088 13.0223 105.052 13.0003L104.232 12.47L104.361 12.2863C104.986 12.5503 105.399 12.7427 105.601 12.8637C105.966 13.0835 106.076 13.3672 105.929 13.7146L105.943 13.7228L105.77 14.0108C106.827 13.9496 107.707 14.1114 108.409 14.4962C109.076 14.8975 109.504 15.3351 109.692 15.8091C109.776 16.0213 109.8 16.2912 109.765 16.6186C109.745 16.9424 109.63 17.2779 109.421 17.6253L106.552 22.3971L107.539 23.0841C107.534 23.0932 107.488 23.159 107.402 23.2815L104.651 21.6462C104.701 21.564 104.744 21.5027 104.78 21.4625L105.551 21.7953C105.63 21.8301 105.705 21.7881 105.776 21.6693L108.324 17.4322C108.544 17.0666 108.68 16.7255 108.734 16.4091C108.796 16.0982 108.804 15.8476 108.756 15.6573C108.709 15.467 108.618 15.2876 108.482 15.1192C108.325 14.9251 108.137 14.7621 107.918 14.6302C107.364 14.3096 106.617 14.1534 105.679 14.1616L102.274 19.8247L103.261 20.5117C103.255 20.5208 103.21 20.5866 103.124 20.7091L100.359 19.0656Z" fill="white"/>
<path d="M111.343 25.8362L111.306 25.8064C110.275 25.5631 109.403 25.1605 108.692 24.5986C107.578 23.7194 107.335 22.8138 107.962 21.882C108 21.8168 108.039 21.759 108.079 21.7088C108.588 21.0642 109.351 20.9669 110.368 21.4169C110.956 21.7047 111.963 22.2889 113.388 23.1695L114.261 22.0644C114.538 21.7128 114.734 21.3784 114.849 21.0612C114.964 20.7439 115.017 20.4871 115.009 20.2905C115.008 20.0856 114.954 19.8869 114.848 19.6943C114.713 19.452 114.52 19.2316 114.269 19.0333C114.026 18.8416 113.696 18.6829 113.279 18.5573C112.666 18.3863 112.064 18.3051 111.473 18.3139L110.649 19.2537L110.361 19.128L111.561 17.6086L111.726 17.6576C112.604 17.8886 113.238 18.1103 113.627 18.3227C114.017 18.5351 114.291 18.7042 114.45 18.8298C114.616 18.947 114.766 19.066 114.902 19.1867C115.046 19.3141 115.209 19.5038 115.39 19.7559C115.572 20.0079 115.697 20.2628 115.765 20.5206C115.848 20.7766 115.857 21.0756 115.791 21.4175C115.725 21.7595 115.559 22.0979 115.295 22.4327L112.261 26.2752C112.056 26.5347 112.02 26.7173 112.154 26.8231L112.89 27.4656L112.729 27.644C112.207 27.3408 111.762 27.0438 111.394 26.7529C111.3 26.6652 111.235 26.5324 111.199 26.3544C111.17 26.168 111.218 25.9952 111.343 25.8362ZM109.076 24.5761C109.696 25.0653 110.525 25.3666 111.563 25.48L113.2 23.408C111.911 22.4583 111.06 21.909 110.648 21.76C110.25 21.6093 109.9 21.5973 109.596 21.7242C109.307 21.8493 109.076 22.0207 108.904 22.2383C108.871 22.2802 108.838 22.322 108.805 22.3639C108.486 22.819 108.368 23.2354 108.451 23.6131C108.533 23.9907 108.742 24.3117 109.076 24.5761Z" fill="white"/>
<path d="M112.763 33.492L112.943 33.3574L113.573 33.9127C113.644 33.9782 113.731 33.9656 113.836 33.8748L122.081 26.7272C122.132 26.6552 122.143 26.6031 122.115 26.5708L121.5 25.8124L121.68 25.6778C122.193 26.1227 122.529 26.4378 122.69 26.6232C122.851 26.8085 122.918 26.9835 122.891 27.1479C122.872 27.3053 122.813 27.441 122.714 27.555C123.525 27.7414 124.179 28.1207 124.675 28.6929C125.15 29.241 125.428 29.9035 125.508 30.6806C125.547 31.0992 125.435 31.5563 125.173 32.0517C124.917 32.5553 124.508 33.0516 123.943 33.5407C122.871 34.47 121.835 34.9027 120.834 34.8388C119.697 34.7653 118.713 34.249 117.882 33.2899C117.637 33.0078 117.402 32.6962 117.177 32.3549L114.348 34.8073L115.179 35.8874C115.059 35.9771 114.995 36.0255 114.987 36.0325L112.763 33.492ZM122.473 27.7646L117.431 32.1349C117.577 32.4175 117.769 32.6958 118.007 32.9699C118.691 33.7597 119.485 34.1377 120.387 34.1037C121.304 34.0709 122.243 33.6387 123.202 32.8073C124.298 31.8571 124.847 31.0001 124.848 30.2365C124.853 29.6395 124.674 29.1314 124.31 28.7123C123.947 28.2932 123.334 27.9773 122.473 27.7646Z" fill="white"/>
<path d="M120.4 36.4975L120.591 36.3792L121.169 36.9881C121.222 37.0423 121.293 37.05 121.383 37.0111L130.254 30.602C130.349 30.5333 130.378 30.473 130.341 30.4211L129.795 29.6112L129.986 29.493C130.457 29.9815 130.765 30.3252 130.909 30.524C131.059 30.7315 131.109 30.9191 131.059 31.0868C131.015 31.2631 130.928 31.3981 130.799 31.4918L121.863 37.9478L122.501 38.9673C122.492 38.9736 122.424 39.0161 122.297 39.0949L120.4 36.4975Z" fill="white"/>
<path d="M129.072 35.2852L129.271 35.1506L130.373 37.0088L125.562 39.8121C125.202 40.0215 124.918 40.2548 124.71 40.5119C124.511 40.7636 124.387 40.9843 124.337 41.1739C124.292 41.3728 124.286 41.5739 124.318 41.7774C124.376 42.0892 124.466 42.3273 124.586 42.4916C124.923 43.0484 125.586 43.5198 126.577 43.9057L131.927 40.7883C132.016 40.687 132.035 40.5711 131.983 40.4405L131.633 39.6814C131.683 39.6399 131.75 39.5951 131.833 39.5467L132.934 41.405L126.658 45.0621C126.438 45.2148 126.366 45.3556 126.441 45.4846L126.883 46.3383L126.668 46.4453C126.336 46.0459 126.031 45.6065 125.751 45.1273C125.696 45.0113 125.686 44.8566 125.722 44.6631C125.766 44.4643 125.876 44.3139 126.051 44.2118L126.3 44.0668C125.249 43.5557 124.506 42.9269 124.071 42.1804C123.889 41.8671 123.752 41.4528 123.662 40.9375C123.602 40.602 123.662 40.2707 123.842 39.9437C124.031 39.6113 124.338 39.3216 124.762 39.0746L129.351 36.4002C129.397 36.3734 129.423 36.3216 129.427 36.2448C129.447 36.1719 129.445 36.1051 129.422 36.0444L129.072 35.2852Z" fill="white"/>
<path d="M127.395 48.2716C127.42 48.3303 127.45 48.3869 127.486 48.4414C127.716 48.946 128.057 49.3039 128.509 49.5149C128.971 49.7217 129.5 49.6956 130.097 49.4369C130.684 49.1823 130.911 48.5378 130.776 47.5033C130.718 47.0749 130.67 46.6424 130.632 46.2055C130.594 45.7687 130.652 45.3539 130.808 44.961C130.967 44.578 131.267 44.291 131.707 44.1001C132.334 43.8286 132.937 43.852 133.517 44.1704C134.106 44.4845 134.56 45.0085 134.878 45.7425C135.116 46.2906 135.258 46.8859 135.304 47.5286L135.315 47.8374L133.627 48.5692L133.404 48.3349L134.626 47.7352C134.83 46.9724 134.849 46.4002 134.684 46.0185C134.451 45.4803 134.105 45.1245 133.646 44.9514C133.197 44.774 132.708 44.7998 132.18 45.0289C131.876 45.1604 131.689 45.3986 131.618 45.7434C131.55 46.0981 131.546 46.4896 131.603 46.9179C131.661 47.3463 131.704 47.781 131.733 48.222C131.771 48.6589 131.696 49.0752 131.507 49.4709C131.332 49.8722 131.005 50.1768 130.525 50.3847C129.879 50.6647 129.26 50.6428 128.666 50.3189C128.086 50.0005 127.603 49.3961 127.217 48.5055C126.831 47.6149 126.721 46.7848 126.887 46.0152L128.576 45.2833L128.793 45.503L127.577 46.1174C127.382 46.3647 127.268 46.7048 127.234 47.1377C127.205 47.5804 127.259 47.9584 127.395 48.2716Z" fill="white"/>
<path d="M140.475 52.8858L140.712 52.8448L142.326 59.4998L142.276 59.4956L140.133 60.2295L139.933 59.9487L141.925 59.2021L140.899 54.9727L135.877 56.1909L136.778 59.9071C136.78 59.9615 136.802 60.0056 136.843 60.0395C136.895 60.0709 136.952 60.0791 137.014 60.064L138.102 59.866L138.193 60.1072L135.534 60.7521C135.532 60.7418 135.508 60.6653 135.462 60.5227L136.52 60.2002L135.566 56.2663L130.621 57.4656L130.819 58.5536C130.809 58.5561 130.73 58.5698 130.582 58.5946L129.809 55.473L130.03 55.4358L130.335 56.2179C130.37 56.3191 130.453 56.3649 130.582 56.3555L140.425 53.9682C140.544 53.9173 140.597 53.8387 140.582 53.7326L140.475 52.8858Z" fill="white"/>
<path d="M135.067 62.4196C132.782 62.7141 131.754 63.75 131.983 65.5273C132.043 65.9928 132.155 66.4839 132.318 67.0005C132.492 67.5159 132.631 67.8421 132.735 67.9793L132.59 68.1109C132.4 67.888 132.216 67.503 132.038 66.956C131.861 66.4195 131.743 65.9185 131.683 65.453C131.624 64.9981 131.619 64.5794 131.666 64.1969C131.715 63.8249 131.837 63.4328 132.031 63.0206C132.225 62.6084 132.567 62.2578 133.057 61.9688C133.547 61.6798 134.167 61.487 134.918 61.3901C136.315 61.2102 137.429 61.4321 138.263 62.0561C139.132 62.7077 139.63 63.5307 139.759 64.5251C139.887 65.5196 139.709 66.3114 139.226 66.9007C138.744 67.5006 138.006 67.8646 137.011 67.9927C136.8 68.02 136.57 68.0335 136.323 68.0331L135.593 62.3679C135.475 62.3724 135.3 62.3896 135.067 62.4196ZM137.002 67.0422C137.795 66.9399 138.418 66.6822 138.87 66.269C139.333 65.8544 139.526 65.3456 139.448 64.7426C139.347 63.9598 138.918 63.3429 138.161 62.892C137.565 62.5278 136.811 62.3507 135.898 62.3608L136.508 67.0897C136.626 67.0853 136.79 67.0694 137.002 67.0422Z" fill="white"/>
<path d="M139.79 72.9619C139.794 72.3218 139.574 71.6235 139.132 70.8668L132.462 70.7193L132.355 71.9172C132.345 71.917 132.265 71.9099 132.116 71.8959L132.171 68.6963C132.267 68.6985 132.341 68.7055 132.394 68.7173L132.488 69.5516C132.486 69.6156 132.533 69.6593 132.629 69.6827L139.651 69.838C139.726 69.8184 139.764 69.7872 139.765 69.7445L139.819 68.7855L140.042 68.8064C140.125 69.3844 140.164 69.8227 140.157 70.1213C140.15 70.4199 140.077 70.621 139.936 70.7246C139.795 70.8281 139.644 70.8781 139.484 70.8746L139.292 70.8704C139.827 71.7677 140.108 72.5848 140.134 73.3216C140.112 74.3347 139.809 75.0161 139.225 75.366C139.738 76.3055 140.006 77.1864 140.031 78.0084C140.014 78.7549 139.847 79.3167 139.529 79.6938C139.387 79.872 139.165 80.0218 138.863 80.1431C138.572 80.2754 138.224 80.3371 137.819 80.3281L132.252 80.205L132.146 81.4029C132.135 81.4027 132.055 81.3956 131.906 81.3816L131.961 78.182C132.057 78.1842 132.131 78.1911 132.184 78.203L132.278 79.0373C132.277 79.1012 132.324 79.145 132.419 79.1684L137.442 79.2795C137.868 79.2889 138.232 79.2436 138.533 79.1436C138.845 79.0438 139.071 78.9314 139.213 78.8065C139.354 78.6816 139.464 78.524 139.543 78.3337C139.633 78.1223 139.681 77.894 139.686 77.6487C139.69 76.9873 139.456 76.262 138.982 75.4726C138.681 75.6047 138.327 75.6662 137.922 75.6572L132.355 75.5341L132.249 76.732C132.238 76.7318 132.158 76.7247 132.009 76.7107L132.064 73.4952L132.288 73.5161L132.382 74.3504C132.391 74.4253 132.443 74.4744 132.538 74.4979L137.561 74.609C138.084 74.6206 138.512 74.5607 138.845 74.4294C139.19 74.2983 139.418 74.1166 139.53 73.8843C139.697 73.568 139.784 73.2605 139.79 72.9619Z" fill="white"/>
<path d="M138.513 83.3452L131.567 82.3053L131.31 83.4802C131.299 83.4786 131.221 83.4615 131.075 83.4289L131.533 80.2618C131.628 80.276 131.701 80.2923 131.752 80.3107L131.74 81.1502C131.73 81.2135 131.771 81.2628 131.863 81.2981L138.81 82.338C138.887 82.3279 138.928 82.3018 138.935 82.2596L139.108 81.3149L139.327 81.3639C139.337 81.9478 139.32 82.3874 139.276 82.6828C139.231 82.9782 139.133 83.1683 138.98 83.2533C138.827 83.3383 138.671 83.3689 138.513 83.3452ZM141.363 83.2217C141.394 83.0108 141.482 82.8567 141.626 82.7596C141.781 82.6641 141.963 82.6322 142.174 82.6637C142.396 82.6969 142.561 82.781 142.671 82.916C142.789 83.0631 142.832 83.2421 142.8 83.4531C142.769 83.6641 142.675 83.8226 142.519 83.9287C142.372 84.0469 142.182 84.0886 141.95 84.0539C141.729 84.0207 141.565 83.9261 141.459 83.77C141.363 83.6155 141.331 83.4327 141.363 83.2217Z" fill="white"/>
<path d="M131.008 83.8374L131.221 83.9075L131.126 84.7417C131.113 84.8374 131.174 84.9022 131.309 84.936L138.027 86.627C138.115 86.6271 138.164 86.6065 138.175 86.5651L138.444 85.6264L138.657 85.6966C138.586 86.3717 138.522 86.8231 138.465 87.0506C138.361 87.4644 138.121 87.6516 137.746 87.6122L137.742 87.6277L137.416 87.5457C137.782 88.5397 137.883 89.4285 137.719 90.2121C137.529 90.9673 137.234 91.5036 136.835 91.8212C136.656 91.9632 136.405 92.065 136.082 92.1265C135.766 92.2011 135.412 92.1889 135.019 92.0899L129.619 90.7309L129.249 91.8751C129.238 91.8725 129.162 91.8478 129.02 91.801L129.785 88.6939C129.878 88.7173 129.95 88.7407 129.999 88.7641L129.904 89.5983C129.894 89.6836 129.956 89.7432 130.09 89.7771L134.885 90.9838C135.298 91.0879 135.664 91.1195 135.983 91.0786C136.298 91.0481 136.54 90.9825 136.709 90.8819C136.877 90.7812 137.022 90.6418 137.144 90.4635C137.284 90.2567 137.385 90.0292 137.448 89.781C137.594 89.1577 137.526 88.3983 137.246 87.5027L130.837 85.8899L130.467 87.0341C130.457 87.0315 130.38 87.0068 130.238 86.96L131.008 83.8374Z" fill="white"/>
<path d="M127.72 96.3099L127.737 96.2652C127.672 95.2079 127.805 94.2573 128.137 93.4136C128.657 92.0934 129.453 91.5987 130.526 91.9293C130.6 91.9467 130.666 91.9671 130.726 91.9906C131.49 92.2913 131.804 92.9937 131.668 94.0977C131.563 94.7441 131.295 95.8766 130.864 97.4954L132.174 98.0109C132.591 98.1749 132.968 98.2658 133.305 98.2837C133.642 98.3016 133.903 98.2784 134.089 98.2139C134.285 98.1534 134.459 98.0444 134.613 97.8871C134.806 97.6879 134.961 97.4394 135.078 97.1417C135.191 96.8538 135.248 96.492 135.247 96.0562C135.234 95.4205 135.137 94.8208 134.958 94.2573L133.82 93.7409L133.857 93.4287L135.658 94.1375L135.659 94.3098C135.692 95.2168 135.663 95.8875 135.573 96.3218C135.482 96.7561 135.4 97.0675 135.325 97.2561C135.261 97.4486 135.191 97.6273 135.115 97.7921C135.034 97.9669 134.9 98.1776 134.711 98.4243C134.522 98.671 134.314 98.8643 134.087 99.0043C133.866 99.158 133.583 99.2527 133.236 99.2884C132.89 99.324 132.518 99.2637 132.121 99.1075L127.565 97.315C127.257 97.194 127.072 97.2128 127.01 97.3717L126.608 98.2623L126.39 98.1596C126.53 97.5725 126.685 97.0605 126.857 96.6238C126.914 96.5086 127.022 96.4079 127.182 96.3219C127.352 96.2397 127.531 96.2357 127.72 96.3099ZM128.27 93.7753C127.981 94.5099 127.932 95.3906 128.125 96.4175L130.581 97.3841C131.117 95.8756 131.397 94.9025 131.42 94.4646C131.45 94.0405 131.36 93.7013 131.15 93.447C130.947 93.2065 130.716 93.0355 130.458 92.934C130.408 92.9144 130.359 92.8949 130.309 92.8754C129.781 92.7021 129.348 92.7095 129.011 92.8976C128.673 93.0857 128.426 93.3783 128.27 93.7753Z" fill="white"/>
<path d="M120.796 99.8811L120.976 100.014L120.625 100.777C120.583 100.864 120.62 100.945 120.738 101.019L129.955 106.86C130.038 106.887 130.091 106.883 130.114 106.847L130.664 106.04L130.844 106.173C130.566 106.792 130.361 107.205 130.23 107.413C130.098 107.62 129.95 107.734 129.785 107.756C129.629 107.783 129.482 107.766 129.344 107.704C129.399 108.534 129.224 109.269 128.818 109.909C128.43 110.521 127.875 110.978 127.154 111.279C126.764 111.436 126.294 111.46 125.744 111.352C125.189 111.252 124.596 111.002 123.965 110.603C122.767 109.843 122.054 108.975 121.827 107.998C121.571 106.888 121.782 105.797 122.461 104.725C122.661 104.41 122.892 104.095 123.154 103.781L119.992 101.777L119.196 102.883C119.076 102.794 119.011 102.747 119.002 102.741L120.796 99.8811ZM129.074 107.533L123.438 103.961C123.209 104.183 122.998 104.446 122.804 104.753C122.244 105.636 122.111 106.504 122.403 107.359C122.698 108.228 123.382 109.002 124.454 109.681C125.679 110.458 126.658 110.737 127.39 110.519C127.963 110.352 128.398 110.034 128.695 109.565C128.992 109.097 129.118 108.419 129.074 107.533Z" fill="white"/>
<path d="M120.116 108.055L120.285 108.204L119.868 108.933C119.831 108.999 119.844 109.069 119.907 109.144L128.596 115.798C128.69 115.869 128.756 115.88 128.794 115.829L129.413 115.073L129.581 115.222C129.249 115.814 129.008 116.207 128.859 116.402C128.703 116.605 128.538 116.707 128.363 116.708C128.182 116.717 128.028 116.672 127.901 116.575L119.148 109.873L118.355 110.777C118.346 110.771 118.286 110.718 118.174 110.618L120.116 108.055Z" fill="white"/>
<path d="M123.763 116.022L123.949 116.174L122.486 117.763L118.417 113.963C118.113 113.679 117.808 113.474 117.502 113.349C117.203 113.231 116.956 113.175 116.76 113.181C116.557 113.196 116.363 113.248 116.177 113.337C115.895 113.483 115.693 113.637 115.57 113.799C115.134 114.282 114.873 115.053 114.789 116.113L119.314 120.339C119.437 120.396 119.553 120.38 119.663 120.293L120.29 119.74C120.344 119.776 120.406 119.827 120.476 119.892L119.013 121.482L113.705 116.523C113.495 116.357 113.339 116.328 113.238 116.437L112.547 117.106L112.383 116.931C112.67 116.498 113.003 116.079 113.381 115.674C113.476 115.588 113.622 115.534 113.817 115.512C114.021 115.498 114.196 115.559 114.344 115.698L114.555 115.894C114.742 114.741 115.13 113.848 115.72 113.217C115.968 112.952 116.325 112.702 116.792 112.467C117.097 112.313 117.431 112.276 117.796 112.354C118.169 112.439 118.534 112.649 118.893 112.984L122.775 116.61C122.814 116.646 122.871 116.656 122.946 116.638C123.021 116.636 123.085 116.615 123.136 116.575L123.763 116.022Z" fill="white"/>
<path d="M110.868 118.142C110.819 118.184 110.773 118.229 110.731 118.279C110.315 118.645 110.071 119.075 110 119.569C109.935 120.07 110.113 120.57 110.533 121.066C110.947 121.555 111.629 121.585 112.581 121.157C112.974 120.978 113.374 120.807 113.781 120.644C114.189 120.481 114.603 120.417 115.023 120.452C115.436 120.494 115.798 120.698 116.108 121.065C116.549 121.586 116.701 122.17 116.564 122.817C116.434 123.472 116.063 124.058 115.452 124.575C114.997 124.961 114.468 125.269 113.866 125.499L113.573 125.599L112.385 124.195L112.544 123.913L113.472 124.91C114.261 124.884 114.815 124.737 115.132 124.469C115.58 124.09 115.82 123.656 115.853 123.166C115.893 122.685 115.727 122.225 115.355 121.785C115.142 121.533 114.86 121.422 114.509 121.454C114.15 121.492 113.774 121.601 113.38 121.78C112.987 121.959 112.583 122.126 112.169 122.281C111.762 122.444 111.342 122.492 110.909 122.426C110.474 122.374 110.088 122.149 109.75 121.75C109.295 121.213 109.137 120.613 109.275 119.951C109.412 119.304 109.851 118.667 110.592 118.04C111.333 117.413 112.096 117.068 112.881 117.004L114.07 118.409L113.922 118.68L112.982 117.694C112.689 117.579 112.331 117.568 111.907 117.661C111.474 117.761 111.128 117.922 110.868 118.142Z" fill="white"/>
<path d="M110.244 131.992L110.352 132.207L104.454 135.686L104.443 135.637L103.118 133.799L103.328 133.526L104.622 135.215L108.37 133.004L105.745 128.553L102.451 130.496C102.4 130.514 102.364 130.547 102.343 130.596C102.328 130.655 102.337 130.712 102.37 130.767L102.875 131.75L102.671 131.908L101.281 129.551C101.29 129.546 101.356 129.501 101.48 129.416L102.096 130.334L105.582 128.277L102.997 123.895L102.014 124.401C102.009 124.391 101.973 124.32 101.906 124.186L104.668 122.538L104.768 122.739L104.108 123.258C104.022 123.322 104.002 123.414 104.048 123.535L109.194 132.259C109.277 132.358 109.367 132.385 109.465 132.34L110.244 131.992Z" fill="white"/>
<path d="M99.5138 129.607C98.5689 127.506 97.2792 126.823 95.6449 127.558C95.2168 127.75 94.7793 127.999 94.3323 128.306C93.8896 128.622 93.6177 128.849 93.5165 128.988L93.3487 128.888C93.5068 128.642 93.8218 128.354 94.2937 128.025C94.7558 127.7 95.2009 127.441 95.6289 127.249C96.0472 127.061 96.4463 126.934 96.8262 126.868C97.1963 126.807 97.6068 126.81 98.0576 126.876C98.5085 126.942 98.9432 127.168 99.3619 127.553C99.7805 127.938 100.145 128.475 100.456 129.166C101.033 130.45 101.144 131.581 100.789 132.56C100.418 133.581 99.7747 134.297 98.8603 134.708C97.9458 135.119 97.1365 135.179 96.4323 134.887C95.7184 134.6 95.1559 134 94.7447 133.085C94.6572 132.89 94.5777 132.675 94.5063 132.438L99.7158 130.095C99.6774 129.984 99.6101 129.821 99.5138 129.607ZM95.6515 132.8C95.9797 133.53 96.407 134.051 96.9337 134.364C97.4647 134.686 98.0075 134.723 98.562 134.474C99.2819 134.15 99.7477 133.56 99.9595 132.705C100.135 132.029 100.086 131.256 99.8113 130.386L95.4627 132.341C95.5011 132.453 95.5641 132.605 95.6515 132.8Z" fill="white"/>
<path d="M90.881 137.156C91.4948 136.975 92.0999 136.563 92.6964 135.921L90.909 129.493L89.7314 129.737C89.7286 129.727 89.7123 129.648 89.6826 129.502L92.7613 128.629C92.787 128.721 92.8019 128.795 92.8059 128.849L92.0343 129.18C91.9727 129.197 91.9444 129.255 91.9496 129.353L93.8312 136.12C93.8718 136.186 93.9126 136.214 93.9537 136.202L94.8872 135.976L94.9318 136.196C94.4026 136.443 93.9941 136.606 93.7063 136.686C93.4186 136.766 93.2048 136.754 93.0648 136.649C92.9249 136.544 92.8335 136.414 92.7907 136.26L92.7392 136.075C92.0349 136.847 91.3338 137.351 90.6362 137.59C89.6599 137.861 88.9199 137.768 88.4161 137.31C87.6649 138.073 86.8994 138.584 86.1195 138.846C85.4001 139.046 84.814 139.048 84.3612 138.853C84.1493 138.768 83.9418 138.599 83.7384 138.345C83.5277 138.105 83.368 137.789 83.2594 137.399L81.7678 132.034L80.5902 132.279C80.5874 132.269 80.5711 132.19 80.5414 132.043L83.6201 131.171C83.6458 131.263 83.6607 131.337 83.6647 131.391L82.8931 131.722C82.8315 131.739 82.8032 131.796 82.8084 131.895L84.1543 136.735C84.2686 137.146 84.4171 137.481 84.5999 137.74C84.7855 138.01 84.9586 138.194 85.119 138.293C85.2795 138.393 85.4622 138.453 85.6672 138.473C85.8956 138.498 86.128 138.478 86.3643 138.412C86.9987 138.225 87.6252 137.79 88.2439 137.109C88.0303 136.858 87.8692 136.538 87.7607 136.147L86.269 130.783L85.0915 131.027C85.0886 131.017 85.0723 130.938 85.0426 130.792L88.1368 129.915L88.1814 130.135L87.4098 130.466C87.3407 130.496 87.3087 130.56 87.3139 130.658L88.6598 135.499C88.7998 136.002 88.9809 136.395 89.2031 136.676C89.4281 136.968 89.668 137.134 89.9226 137.174C90.2738 137.242 90.5933 137.236 90.881 137.156Z" fill="white"/>
<path d="M80.5896 138.924L79.583 131.973L78.3839 132.066C78.3824 132.055 78.3762 131.975 78.3654 131.826L81.5301 131.351C81.5438 131.446 81.5492 131.521 81.5463 131.575L80.739 131.805C80.6756 131.815 80.6403 131.868 80.6329 131.966L81.6395 138.918C81.6713 138.989 81.7083 139.021 81.7505 139.015L82.7052 138.909L82.7215 139.133C82.1652 139.311 81.7392 139.421 81.4437 139.464C81.1481 139.506 80.9376 139.467 80.8121 139.345C80.6867 139.223 80.6125 139.083 80.5896 138.924ZM81.5292 141.617C81.7403 141.587 81.9131 141.627 82.0476 141.736C82.1836 141.857 82.2669 142.023 82.2974 142.234C82.3295 142.455 82.2967 142.638 82.1989 142.782C82.0921 142.937 81.9332 143.03 81.722 143.061C81.5109 143.091 81.332 143.047 81.1855 142.928C81.0299 142.821 80.9353 142.652 80.9017 142.42C80.8696 142.198 80.913 142.014 81.0319 141.867C81.1523 141.731 81.3181 141.648 81.5292 141.617Z" fill="white"/>
<path d="M77.9384 131.88L77.9328 132.105L77.1069 132.255C77.0115 132.271 76.967 132.347 76.9734 132.486L77.2949 139.406C77.3202 139.491 77.3541 139.532 77.3967 139.53L78.3732 139.516L78.3676 139.741C77.7008 139.868 77.2501 139.937 77.0157 139.948C76.5895 139.968 76.3411 139.792 76.2705 139.422L76.2545 139.423L76.2389 139.087C75.3929 139.724 74.5711 140.078 73.7735 140.147C72.9956 140.183 72.3971 140.056 71.9778 139.766C71.7903 139.635 71.6203 139.424 71.4679 139.132C71.3054 138.852 71.2147 138.509 71.1959 138.104L70.9375 132.542L69.7351 132.518C69.7346 132.507 69.7362 132.427 69.74 132.277L72.9358 132.113C72.9402 132.209 72.9384 132.284 72.9302 132.337L72.1043 132.488C72.0195 132.502 71.9804 132.579 71.9868 132.718L72.2162 137.656C72.236 138.082 72.3114 138.442 72.4425 138.735C72.5629 139.028 72.6956 139.241 72.8406 139.373C72.9855 139.505 73.1609 139.604 73.3669 139.669C73.6052 139.743 73.8523 139.775 74.108 139.763C74.7468 139.722 75.4544 139.439 76.2308 138.911L75.9241 132.31L74.7217 132.286C74.7212 132.275 74.7228 132.195 74.7266 132.046L77.9384 131.88Z" fill="white"/>
<path d="M64.9364 132.334L64.9843 132.338C65.9773 131.969 66.9257 131.821 67.8294 131.894C69.2434 132.008 69.9478 132.627 69.9424 133.751C69.947 133.826 69.9467 133.895 69.9415 133.959C69.8752 134.778 69.294 135.282 68.1977 135.471C67.5486 135.558 66.387 135.63 64.713 135.687L64.5993 137.09C64.5631 137.537 64.5853 137.924 64.6658 138.251C64.7462 138.579 64.8442 138.822 64.9598 138.981C65.0744 139.151 65.2293 139.287 65.4244 139.388C65.671 139.515 65.9537 139.592 66.2727 139.617C66.581 139.642 66.9436 139.592 67.3606 139.465C67.9651 139.268 68.5111 139.001 68.9984 138.666L69.1629 137.428L69.4724 137.372L69.3161 139.302L69.1514 139.353C68.2929 139.647 67.6426 139.814 67.2007 139.853C66.7588 139.892 66.4368 139.904 66.2348 139.887C66.0319 139.882 65.8405 139.866 65.6607 139.841C65.4702 139.815 65.2295 139.747 64.9387 139.638C64.6479 139.529 64.4026 139.386 64.2029 139.209C63.9917 139.042 63.8188 138.798 63.6843 138.477C63.5498 138.155 63.4998 137.782 63.5343 137.357L63.9296 132.477C63.9563 132.147 63.8846 131.976 63.7145 131.962L62.7455 131.835L62.7809 131.597C63.3831 131.56 63.9182 131.561 64.386 131.599C64.5127 131.62 64.6404 131.694 64.7692 131.823C64.897 131.961 64.9528 132.132 64.9364 132.334ZM67.5217 132.126C66.7349 132.062 65.8779 132.271 64.9507 132.752L64.7375 135.384C66.3366 135.46 67.3491 135.445 67.7749 135.341C68.1893 135.246 68.4878 135.061 68.6705 134.787C68.8418 134.523 68.9386 134.252 68.961 133.976C68.9653 133.923 68.9696 133.87 68.9739 133.817C68.9868 133.261 68.8543 132.849 68.5764 132.58C68.2985 132.312 67.9469 132.16 67.5217 132.126Z" fill="white"/>
<path d="M59.5294 126.751L59.4541 126.963L58.6224 126.848C58.5271 126.833 58.4609 126.892 58.4238 127.026L55.5091 137.541C55.5069 137.629 55.5263 137.679 55.5674 137.69L56.4994 137.982L56.4242 138.194C55.751 138.107 55.2961 138.03 55.0597 137.965C54.8233 137.899 54.6708 137.791 54.6022 137.639C54.5307 137.497 54.5047 137.352 54.524 137.202C53.7454 137.495 52.9911 137.541 52.2613 137.338C51.5623 137.145 50.9643 136.747 50.4672 136.144C50.2038 135.816 50.0443 135.374 49.9886 134.816C49.9226 134.255 49.9893 133.615 50.1888 132.895C50.5677 131.528 51.1919 130.594 52.0612 130.094C53.0486 129.526 54.154 129.412 55.3772 129.751C55.737 129.851 56.105 129.981 56.4814 130.14L57.4815 126.532L56.1922 126.092C56.2424 125.951 56.2689 125.875 56.2718 125.865L59.5294 126.751ZM54.6095 136.894L56.3916 130.464C56.1135 130.309 55.7997 130.184 55.4502 130.087C54.4428 129.808 53.5727 129.932 52.8399 130.459C52.0939 130.994 51.5514 131.873 51.2124 133.096C50.8249 134.494 50.8417 135.512 51.2629 136.149C51.5892 136.649 52.0196 136.973 52.5541 137.121C53.0886 137.269 53.7737 137.193 54.6095 136.894Z" fill="white"/>
<path d="M51.5158 128.473L51.422 128.677L50.6038 128.488C50.5302 128.472 50.4665 128.505 50.4127 128.587L46.5588 138.83C46.5175 138.94 46.5268 139.006 46.5867 139.029L47.4889 139.403L47.395 139.607C46.7323 139.46 46.2861 139.343 46.0565 139.257C45.8169 139.167 45.6716 139.038 45.6206 138.871C45.5596 138.7 45.5573 138.539 45.6136 138.389L49.4957 128.072L48.4007 127.574C48.4044 127.564 48.4376 127.491 48.5002 127.355L51.5158 128.473Z" fill="white"/>
<path d="M44.9391 134.271L44.8472 134.493L42.9034 133.551L45.3688 128.559C45.553 128.186 45.661 127.835 45.6928 127.505C45.7198 127.186 45.7019 126.933 45.6389 126.747C45.5664 126.557 45.4606 126.386 45.3215 126.234C45.101 126.006 44.8951 125.856 44.704 125.786C44.1158 125.507 43.3024 125.48 42.2635 125.705L39.5218 131.257C39.5034 131.39 39.5516 131.498 39.6665 131.578L40.3771 132.018C40.3583 132.08 40.3276 132.154 40.2851 132.24L38.3413 131.298L41.5578 124.785C41.6567 124.537 41.6392 124.379 41.5053 124.313L40.6658 123.845L40.7864 123.637C41.2833 123.787 41.7804 123.985 42.2777 124.231C42.3878 124.297 42.4814 124.421 42.5586 124.601C42.6311 124.792 42.6225 124.978 42.5327 125.16L42.4052 125.418C43.5637 125.264 44.5302 125.379 45.3049 125.761C45.6301 125.922 45.9725 126.192 46.3321 126.572C46.5671 126.819 46.6998 127.128 46.7303 127.5C46.756 127.882 46.6603 128.293 46.443 128.732L44.0909 133.495C44.0673 133.543 44.0747 133.6 44.1132 133.667C44.1374 133.738 44.1759 133.793 44.2285 133.831L44.9391 134.271Z" fill="white"/>
<path d="M39.1922 122.527C39.1385 122.492 39.082 122.462 39.0225 122.436C38.5517 122.142 38.0697 122.032 37.5764 122.106C37.0774 122.189 36.6505 122.503 36.2957 123.048C35.9468 123.584 36.1141 124.247 36.7976 125.035C37.0823 125.36 37.3613 125.694 37.6344 126.037C37.9075 126.38 38.0878 126.758 38.1754 127.172C38.254 127.579 38.1624 127.984 37.9007 128.386C37.5285 128.959 37.0128 129.272 36.3537 129.327C35.6887 129.391 35.0209 129.204 34.3503 128.768C33.8495 128.443 33.4025 128.025 33.0091 127.514L32.8288 127.263L33.832 125.721L34.1479 125.793L33.46 126.968C33.7111 127.716 34.011 128.204 34.3598 128.431C34.8516 128.751 35.3365 128.856 35.8145 128.747C36.2868 128.647 36.6799 128.356 36.994 127.873C37.1743 127.596 37.1989 127.294 37.068 126.967C36.9281 126.634 36.7158 126.305 36.4311 125.98C36.1463 125.655 35.8703 125.316 35.603 124.964C35.3298 124.621 35.1627 124.232 35.1016 123.798C35.0257 123.367 35.1302 122.933 35.4152 122.494C35.799 121.904 36.3279 121.58 37.0018 121.522C37.6609 121.467 38.3973 121.705 39.211 122.234C40.0247 122.763 40.5748 123.394 40.8612 124.128L39.858 125.67L39.5555 125.607L40.23 124.423C40.256 124.11 40.1633 123.763 39.9519 123.384C39.7316 122.999 39.4783 122.713 39.1922 122.527Z" fill="white"/>
<path d="M25.7435 125.91L25.5688 126.076L20.5397 121.428L20.584 121.403L21.9625 119.605L22.2843 119.729L21.0389 121.453L24.235 124.407L27.7426 120.612L24.9343 118.016C24.9024 117.972 24.8599 117.948 24.8068 117.942C24.7465 117.945 24.6947 117.969 24.6512 118.016L23.8549 118.784L23.6452 118.633L25.5022 116.624C25.51 116.631 25.5724 116.682 25.6893 116.775L24.987 117.629L27.9598 120.377L31.4131 116.64L30.6458 115.844C30.653 115.836 30.7113 115.781 30.8205 115.679L33.1931 117.85L33.0293 118.003L32.3423 117.521C32.2567 117.456 32.1627 117.464 32.0601 117.543L25.186 124.981C25.1148 125.09 25.1148 125.184 25.1859 125.264L25.7435 125.91Z" fill="white"/>
<path d="M24.9518 114.964C26.6905 113.453 26.9719 112.021 25.796 110.668C25.4881 110.314 25.1229 109.967 24.7005 109.628C24.2701 109.295 23.9737 109.101 23.8113 109.044L23.8585 108.855C24.1403 108.935 24.5068 109.153 24.9583 109.51C25.4027 109.858 25.7789 110.21 26.0869 110.564C26.3878 110.91 26.6246 111.255 26.7971 111.6C26.9626 111.937 27.0788 112.331 27.1456 112.781C27.2124 113.232 27.1221 113.713 26.8747 114.225C26.6272 114.737 26.2178 115.242 25.6463 115.739C24.5838 116.663 23.5328 117.096 22.4934 117.038C21.4089 116.978 20.5377 116.569 19.8798 115.813C19.2219 115.056 18.9307 114.298 19.0063 113.54C19.075 112.774 19.4876 112.061 20.2442 111.404C20.4052 111.264 20.5888 111.125 20.7949 110.988L24.5429 115.299C24.6384 115.23 24.7747 115.118 24.9518 114.964ZM20.7791 112.189C20.1754 112.714 19.7999 113.274 19.6525 113.869C19.4971 114.47 19.6189 115 20.0178 115.459C20.5358 116.055 21.2348 116.331 22.115 116.286C22.8124 116.259 23.5383 115.989 24.2924 115.474L21.1639 111.876C21.0684 111.945 20.9401 112.049 20.7791 112.189Z" fill="white"/>
<path d="M15.2247 108.877C15.5767 109.412 16.1464 109.872 16.9338 110.256L22.5667 106.68L21.9911 105.624C22.0001 105.619 22.0705 105.58 22.2023 105.509L23.9308 108.202C23.8497 108.254 23.7838 108.289 23.7331 108.309L23.1926 107.666C23.1583 107.612 23.0949 107.602 23.0025 107.636L17.0724 111.4C17.0208 111.458 17.0064 111.505 17.0293 111.541L17.5168 112.369L17.3191 112.475C16.9293 112.04 16.6544 111.697 16.4944 111.445C16.3343 111.193 16.2842 110.984 16.3441 110.82C16.404 110.656 16.5015 110.531 16.6366 110.445L16.7987 110.342C15.8559 109.892 15.1693 109.367 14.7388 108.769C14.1958 107.913 14.0702 107.178 14.3621 106.563C13.4145 106.066 12.7026 105.482 12.2264 104.811C11.8262 104.181 11.6538 103.62 11.7091 103.13C11.729 102.903 11.8307 102.655 12.0143 102.387C12.1831 102.116 12.4386 101.871 12.7809 101.654L17.4817 98.6701L16.9061 97.6141C16.9151 97.6084 16.9855 97.57 17.1173 97.499L18.8458 100.192C18.7647 100.243 18.6989 100.279 18.6481 100.299L18.1077 99.6562C18.0734 99.6022 18.01 99.5919 17.9175 99.6253L13.6759 102.318C13.3157 102.547 13.0381 102.786 12.8431 103.036C12.6391 103.292 12.5129 103.511 12.4644 103.693C12.416 103.876 12.4117 104.068 12.4515 104.27C12.4938 104.496 12.5807 104.712 12.7122 104.92C13.0756 105.472 13.6731 105.946 14.5047 106.34C14.6825 106.063 14.9425 105.816 15.2848 105.599L19.9856 102.614L19.41 101.558C19.419 101.553 19.4894 101.514 19.6212 101.443L21.3583 104.15L21.1606 104.256L20.6201 103.614C20.5711 103.557 20.5004 103.545 20.4079 103.578L16.1663 106.271C15.7251 106.551 15.402 106.838 15.1972 107.132C14.9833 107.432 14.8942 107.71 14.9299 107.965C14.9664 108.321 15.0646 108.625 15.2247 108.877Z" fill="white"/>
<path d="M10.5432 99.5421L16.9028 96.5601L16.4657 95.4397C16.4754 95.4351 16.5501 95.406 16.6898 95.3522L18.0628 98.2428C17.9759 98.2835 17.9061 98.3104 17.8532 98.3234L17.3986 97.6176C17.3714 97.5597 17.3099 97.5414 17.2139 97.5629L10.8543 100.545C10.7958 100.596 10.7756 100.641 10.7937 100.679L11.1723 101.562L10.9627 101.643C10.6312 101.162 10.4021 100.786 10.2753 100.516C10.1485 100.246 10.1252 100.033 10.2055 99.8772C10.2857 99.7217 10.3983 99.61 10.5432 99.5421ZM8.23898 101.223C8.32955 101.417 8.3418 101.593 8.27572 101.754C8.19998 101.919 8.06553 102.047 7.87238 102.137C7.66957 102.233 7.48531 102.254 7.31961 102.202C7.13972 102.145 7.00448 102.02 6.91392 101.827C6.82335 101.634 6.81367 101.45 6.88487 101.275C6.9419 101.095 7.07664 100.955 7.28911 100.856C7.49192 100.761 7.68071 100.749 7.85547 100.82C8.02057 100.896 8.14841 101.03 8.23898 101.223Z" fill="white"/>
<path d="M16.5176 94.9724L16.3011 95.032L15.9178 94.2851C15.8757 94.1982 15.7893 94.1779 15.6586 94.2242L9.12789 96.5365C9.05457 96.5851 9.02503 96.6295 9.03927 96.6698L9.33487 97.6005L9.11837 97.6601C8.80359 97.0587 8.60703 96.6474 8.5287 96.4262C8.38629 96.024 8.48215 95.7355 8.81627 95.5606L8.81093 95.5455L9.12767 95.4333C8.27265 94.8082 7.69655 94.1239 7.39937 93.3805C7.13947 92.6465 7.08767 92.0368 7.24398 91.5515C7.31417 91.3342 7.46689 91.1104 7.70215 90.88C7.92379 90.6431 8.22566 90.457 8.60774 90.3218L13.8564 88.4633L13.5313 87.3054C13.5414 87.3019 13.6186 87.2802 13.7629 87.2404L14.8461 90.2516C14.7556 90.2836 14.6834 90.3035 14.6296 90.3112L14.2463 89.5643C14.2078 89.4875 14.1231 89.4722 13.9924 89.5184L9.33193 91.1686C8.92973 91.311 8.60744 91.4874 8.36507 91.6977C8.11913 91.8979 7.95394 92.0865 7.86951 92.2635C7.78508 92.4405 7.74149 92.637 7.73875 92.8529C7.73664 93.1026 7.7783 93.3481 7.86375 93.5895C8.08742 94.1892 8.56403 94.7842 9.29357 95.3746L15.5226 93.169L15.1975 92.0112C15.2076 92.0076 15.2848 91.9859 15.4291 91.9461L16.5176 94.9724Z" fill="white"/>
<path d="M12.3428 82.7314L12.3529 82.7784C12.9924 83.6229 13.4074 84.4884 13.5978 85.3749C13.8956 86.7619 13.506 87.6147 12.4289 87.9333C12.3581 87.9594 12.2914 87.9792 12.2289 87.9926C11.4258 88.1651 10.7757 87.7537 10.2783 86.7587C10.0084 86.162 9.60485 85.0704 9.06776 83.4838L7.69114 83.7794C7.25313 83.8735 6.88889 84.0063 6.59841 84.1777C6.30794 84.3492 6.10314 84.5132 5.98401 84.6697C5.85445 84.8285 5.76923 85.0159 5.72835 85.2319C5.67781 85.5046 5.68613 85.7974 5.75332 86.1103C5.81827 86.4127 5.97151 86.7453 6.21304 87.108C6.57608 87.6301 6.98826 88.0761 7.44957 88.4462L8.68319 88.2467L8.82524 88.5272L6.93239 88.9336L6.83622 88.7906C6.30696 88.0533 5.95991 87.4787 5.79509 87.0668C5.63026 86.6549 5.52657 86.3499 5.48402 86.1517C5.43104 85.9558 5.39073 85.7681 5.36309 85.5886C5.33321 85.3986 5.32863 85.1487 5.34935 84.8387C5.37007 84.5288 5.43626 84.2528 5.5479 84.0106C5.64688 83.7602 5.83079 83.5244 6.09963 83.303C6.36848 83.0816 6.71148 82.9261 7.12863 82.8365L11.9155 81.8086C12.2388 81.7392 12.3825 81.621 12.3467 81.4541L12.1887 80.4898L12.4267 80.4551C12.6356 81.0212 12.7893 81.5337 12.8878 81.9925C12.9042 82.1199 12.8697 82.2637 12.7841 82.4239C12.688 82.5864 12.5409 82.6889 12.3428 82.7314ZM13.287 85.147C13.1213 84.3753 12.6743 83.6149 11.9461 82.8657L9.36498 83.42C9.75306 84.9731 10.0586 85.9385 10.2815 86.3161C10.4917 86.6856 10.7544 86.9182 11.0696 87.0142C11.3721 87.102 11.6589 87.1168 11.9301 87.0585C11.9822 87.0473 12.0344 87.0361 12.0865 87.0249C12.6221 86.8772 12.9785 86.6316 13.1556 86.288C13.3328 85.9445 13.3766 85.5642 13.287 85.147Z" fill="white"/>
<path d="M16.136 75.9333L15.9117 75.9224L15.7807 75.0932C15.7678 74.9975 15.6921 74.9512 15.5535 74.9544L4.64432 75.2043C4.5595 75.2276 4.51758 75.2606 4.51856 75.3033L4.50892 76.2797L4.28462 76.2689C4.17325 75.5992 4.11475 75.1418 4.10913 74.8965C4.10351 74.6513 4.16346 74.4738 4.28899 74.3643C4.40385 74.2549 4.53568 74.1879 4.68448 74.1632C4.17855 73.5026 3.91691 72.7937 3.89956 72.0366C3.88295 71.3114 4.09125 70.6238 4.52447 69.9737C4.76192 69.6269 5.13959 69.3461 5.65747 69.1315C6.17512 68.9063 6.80717 68.7851 7.55364 68.768C8.97194 68.7355 10.0464 69.063 10.777 69.7504C11.6058 70.5316 12.0347 71.5568 12.0638 72.8258C12.0723 73.199 12.0546 73.5888 12.0106 73.9953L15.7536 73.9095L15.8024 72.548C15.9519 72.5553 16.032 72.5588 16.0427 72.5585L16.136 75.9333ZM5.0044 74.1558L11.6746 74.003C11.7422 73.692 11.7718 73.3552 11.7635 72.9927C11.7396 71.9476 11.3692 71.1506 10.6525 70.6015C9.92478 70.042 8.92645 69.7768 7.65745 69.8059C6.20716 69.8391 5.23801 70.1494 4.75001 70.7367C4.36571 71.1937 4.17991 71.6994 4.19262 72.2539C4.20532 72.8084 4.47592 73.4424 5.0044 74.1558Z" fill="white"/>
<path d="M12.1678 68.6738L11.9453 68.6431L11.8884 67.8055C11.8826 67.7303 11.8326 67.6789 11.7382 67.6513L0.817933 66.9306C0.700855 66.9229 0.640208 66.951 0.635994 67.0148L0.539792 67.9866L0.317332 67.9559C0.265792 67.279 0.2481 66.8182 0.264255 66.5734C0.281113 66.3179 0.362237 66.1416 0.507627 66.0443C0.653719 65.9363 0.806592 65.8876 0.966244 65.8982L11.9663 66.6241L12.1252 65.432C12.1358 65.4327 12.2153 65.4433 12.3636 65.4637L12.1678 68.6738Z" fill="white"/>
<path d="M4.71755 64.0822L4.47815 64.0589L4.81446 61.9251L10.308 62.8328C10.7184 62.9006 11.0858 62.9018 11.4101 62.8365C11.7239 62.7694 11.9605 62.6787 12.1199 62.5645C12.2811 62.4398 12.4142 62.2888 12.5191 62.1115C12.673 61.8343 12.756 61.5939 12.768 61.3905C12.8635 60.7468 12.6529 59.9606 12.136 59.0319L6.02682 58.0226C5.89358 58.0438 5.80513 58.1211 5.76148 58.2544L5.54692 59.0622C5.48204 59.0623 5.40224 59.0546 5.30753 59.0389L5.64384 56.9052L12.8107 58.0893C13.0773 58.1117 13.2227 58.0492 13.2471 57.9019L13.4509 56.9626L13.6851 57.0175C13.6858 57.5365 13.641 58.0697 13.5506 58.6169C13.5192 58.7415 13.4282 58.867 13.2775 58.9935C13.1164 59.1182 12.9358 59.164 12.7359 59.131L12.4517 59.0841C12.9355 60.1478 13.1069 61.1059 12.9661 61.9584C12.907 62.3162 12.748 62.7223 12.4891 63.1769C12.3211 63.4735 12.0637 63.6904 11.7166 63.8277C11.3591 63.9632 10.9383 63.991 10.4542 63.911L5.21323 63.0451C5.16061 63.0364 5.10803 63.0602 5.0555 63.1164C4.99419 63.1603 4.95305 63.213 4.9321 63.2744L4.71755 64.0822Z" fill="white"/>
<path d="M14.2845 55.158C14.3024 55.0966 14.3151 55.0336 14.3227 54.9692C14.467 54.4335 14.4324 53.9403 14.2189 53.4897C13.9951 53.036 13.5708 52.7185 12.9459 52.5372C12.3312 52.3588 11.7459 52.711 11.1899 53.5937C10.9613 53.9605 10.7224 54.3244 10.4733 54.6853C10.2242 55.0461 9.91465 55.3284 9.54458 55.532C9.17749 55.7253 8.76345 55.7551 8.30247 55.6214C7.64684 55.4311 7.19722 55.0286 6.95359 54.4137C6.69972 53.7958 6.68425 53.1027 6.90718 52.3344C7.07364 51.7607 7.34403 51.2116 7.71834 50.6872L7.90616 50.4418L9.67327 50.9545L9.69612 51.2777L8.37216 50.9602C7.72853 51.4176 7.34875 51.8461 7.23282 52.2456C7.06934 52.809 7.10906 53.3037 7.352 53.7296C7.58469 54.1525 7.97763 54.4442 8.53082 54.6047C8.84838 54.6969 9.14462 54.6329 9.41951 54.4128C9.69738 54.1824 9.95062 53.8838 10.1792 53.517C10.4078 53.1502 10.6518 52.7878 10.9112 52.4299C11.1603 52.069 11.4837 51.7964 11.8815 51.6119C12.2721 51.4143 12.7184 51.3883 13.2203 51.5339C13.8964 51.7301 14.3599 52.1423 14.6108 52.7704C14.8545 53.3853 14.841 54.1589 14.5705 55.0911C14.3 56.0233 13.8554 56.7328 13.2365 57.2197L11.4694 56.7069L11.4421 56.3991L12.7705 56.7013C13.0785 56.6351 13.3833 56.4459 13.6849 56.1336C13.9896 55.811 14.1894 55.4859 14.2845 55.158Z" fill="white"/>
<path d="M7.14777 43.2774L6.93893 43.158L9.93371 36.9996L9.96988 37.035L12.0897 37.8345L12.0648 38.1783L10.0536 37.4848L8.15034 41.3986L12.7979 43.6587L14.4703 40.2198C14.5032 40.1765 14.5146 40.1286 14.5045 40.0763C14.4847 40.0192 14.4461 39.9767 14.3886 39.9487L13.4237 39.4084L13.5069 39.1642L15.9674 40.3607C15.9627 40.3703 15.9325 40.4445 15.8768 40.5835L14.856 40.1583L13.0857 43.7986L17.6614 46.0237L18.2017 45.0589C18.2113 45.0636 18.281 45.1033 18.4106 45.1782L17.0185 48.0774L16.8241 47.9651L17.0872 47.1679C17.1243 47.0673 17.0899 46.9794 16.9841 46.9042L7.87597 42.475C7.75153 42.4382 7.66119 42.4655 7.60495 42.5567L7.14777 43.2774Z" fill="white"/>
<path d="M22.0854 37.6815L22.0598 37.7222C21.9284 38.7734 21.6215 39.6828 21.1391 40.4505C20.3843 41.6517 19.5101 41.9905 18.5163 41.4669C18.4474 41.4362 18.3859 41.4038 18.3317 41.3697C17.6363 40.9328 17.4577 40.1844 17.7961 39.1246C18.0192 38.509 18.4921 37.4456 19.2149 35.9345L18.0227 35.1854C17.6434 34.947 17.2898 34.7879 16.9621 34.7079C16.6344 34.628 16.3733 34.6025 16.1788 34.6314C15.9752 34.6547 15.7834 34.7294 15.6033 34.8556C15.3768 35.0156 15.1784 35.2311 15.0081 35.502C14.8435 35.7639 14.7212 36.1091 14.641 36.5374C14.5366 37.1647 14.5204 37.7718 14.5925 38.3588L15.6151 39.077L15.5211 39.3769L13.8819 38.3469L13.9128 38.1774C14.0484 37.28 14.2009 36.6262 14.3704 36.2162C14.5399 35.8062 14.6785 35.5154 14.7863 35.3438C14.8851 35.1665 14.9873 35.0039 15.0928 34.8561C15.204 34.6992 15.3751 34.517 15.6063 34.3095C15.8375 34.102 16.0775 33.9505 16.3265 33.855C16.5721 33.7448 16.8685 33.7042 17.2155 33.7333C17.5625 33.7624 17.9167 33.8905 18.278 34.1175L22.4235 36.7224C22.7035 36.8983 22.8889 36.914 22.9797 36.7695L23.5396 35.9687L23.7343 36.1099C23.4887 36.6611 23.2411 37.1354 22.9914 37.5328C22.9143 37.6355 22.7891 37.7143 22.616 37.7693C22.4339 37.8186 22.257 37.7893 22.0854 37.6815ZM21.0756 40.0704C21.4955 39.4021 21.7062 38.5456 21.7076 37.5008L19.4723 36.0962C18.6662 37.4793 18.2111 38.3839 18.1072 38.8099C17.9999 39.2212 18.0257 39.5712 18.1844 39.8599C18.3398 40.1339 18.5349 40.3447 18.7697 40.4923C18.8148 40.5206 18.86 40.549 18.9052 40.5774C19.3918 40.8454 19.8185 40.9182 20.1851 40.7959C20.5517 40.6735 20.8486 40.4317 21.0756 40.0704Z" fill="white"/>
<path d="M20.3047 28.4411C19.8954 28.9333 19.6213 29.612 19.4822 30.4772L24.5407 34.8277L25.3838 33.97C25.3919 33.977 25.4491 34.0332 25.5553 34.1386L23.4809 36.5752C23.4081 36.5126 23.355 36.4599 23.3215 36.417L23.7791 35.7132C23.8208 35.6647 23.8122 35.601 23.7534 35.5223L18.428 30.9422C18.3574 30.9097 18.3083 30.9097 18.2804 30.942L17.6302 31.649L17.4708 31.4908C17.7736 30.9915 18.0224 30.6286 18.2171 30.4022C18.4119 30.1757 18.5966 30.0673 18.7713 30.0768C18.946 30.0864 19.094 30.1433 19.2153 30.2476L19.3608 30.3728C19.5176 29.3399 19.8198 28.5306 20.2673 27.9447C20.9281 27.1764 21.595 26.8426 22.2682 26.9432C22.469 25.8919 22.8209 25.0409 23.3241 24.3904C23.811 23.8243 24.2969 23.4965 24.7818 23.4071C25.0052 23.36 25.2718 23.3854 25.5817 23.4831C25.8905 23.5657 26.1985 23.7392 26.5059 24.0035L30.7274 27.6341L31.5705 26.7765C31.5786 26.7834 31.6357 26.8396 31.742 26.9451L29.6676 29.3817C29.5948 29.3191 29.5417 29.2664 29.5082 29.2235L29.9658 28.5197C30.0075 28.4711 29.9989 28.4075 29.9401 28.3287L26.131 25.0528C25.8075 24.7746 25.4978 24.5786 25.2018 24.4647C24.8977 24.3439 24.6514 24.2868 24.4628 24.2934C24.2742 24.3 24.089 24.3518 23.9072 24.4486C23.7034 24.5547 23.5215 24.7008 23.3615 24.8868C22.9384 25.3952 22.6589 26.1045 22.5232 27.0148C22.8401 27.1044 23.1522 27.2814 23.4595 27.5457L27.681 31.1763L28.5241 30.3187C28.5322 30.3256 28.5894 30.3818 28.6956 30.4873L26.6107 32.936L26.4513 32.7778L26.9089 32.074C26.9495 32.0104 26.9404 31.9393 26.8815 31.8605L23.0725 28.5846C22.6762 28.2438 22.3075 28.0181 21.9664 27.9076C21.6172 27.7902 21.3256 27.7857 21.0917 27.894C20.7618 28.0323 20.4994 28.2147 20.3047 28.4411Z" fill="white"/>
<path d="M27.8573 21.2536L32.5646 26.4668L33.5088 25.722C33.516 25.7299 33.5656 25.7929 33.6578 25.9109L31.2935 28.0673C31.2291 27.996 31.183 27.937 31.1552 27.8903L31.6977 27.2496C31.7452 27.2067 31.7447 27.1425 31.6962 27.0569L26.9889 21.8437C26.923 21.8026 26.8742 21.7963 26.8425 21.8249L26.1086 22.4445L25.9703 22.2675C26.3335 21.8103 26.6259 21.4816 26.8476 21.2814C27.0693 21.0812 27.2662 20.9969 27.4383 21.0283C27.6104 21.0598 27.75 21.1348 27.8573 21.2536ZM25.577 19.54C25.4187 19.683 25.2531 19.7463 25.0802 19.7299C24.9002 19.7056 24.7387 19.6143 24.5957 19.456C24.4456 19.2897 24.3712 19.1198 24.3725 18.9461C24.3746 18.7574 24.4548 18.5916 24.6131 18.4486C24.7714 18.3057 24.9446 18.2427 25.1325 18.2599C25.3212 18.2619 25.4942 18.3501 25.6515 18.5242C25.8016 18.6905 25.8681 18.8676 25.8509 19.0555C25.8267 19.2355 25.7353 19.397 25.577 19.54Z" fill="white"/>
<path d="M33.9886 25.6278L33.8682 25.4382L34.4703 24.8532C34.5412 24.7876 34.5353 24.699 34.4528 24.5875L30.3313 19.0189C30.2634 18.963 30.2123 18.9477 30.178 18.9731L29.3744 19.528L29.254 19.3384C29.7371 18.8615 30.0729 18.5532 30.2615 18.4136C30.6045 18.1598 30.9084 18.167 31.1734 18.4354L31.1863 18.4259L31.3861 18.696C31.7338 17.6955 32.2197 16.9444 32.8437 16.4428C33.4696 15.9795 34.0374 15.7516 34.5472 15.7591C34.7755 15.7627 35.0342 15.8433 35.3233 16.0009C35.6147 16.1435 35.8809 16.3778 36.1221 16.7036L39.4346 21.1791L40.4467 20.5295C40.453 20.538 40.4963 20.6055 40.5766 20.7319L38.014 22.6485C37.9569 22.5713 37.9168 22.5081 37.8936 22.4589L38.4957 21.8739C38.558 21.8146 38.5478 21.7292 38.4653 21.6177L35.5241 17.6438C35.2703 17.3008 35.0074 17.0442 34.7354 16.874C34.472 16.6974 34.2433 16.5946 34.0493 16.5656C33.8554 16.5366 33.6547 16.5524 33.4474 16.613C33.208 16.684 32.9854 16.7957 32.7797 16.948C32.2716 17.3373 31.842 17.9671 31.4908 18.8374L35.422 24.1489L36.4342 23.4993C36.4405 23.5079 36.4838 23.5753 36.5641 23.7017L33.9886 25.6278Z" fill="white"/>
<path d="M44.4323 18.0707L44.3904 18.0941C43.7713 18.9538 43.0661 19.605 42.2749 20.0476C41.0368 20.7402 40.1071 20.6186 39.4858 19.6828C39.44 19.6229 39.4015 19.5649 39.3703 19.5091C38.9693 18.7923 39.1712 18.0499 39.9761 17.2819C40.4669 16.8484 41.3916 16.1417 42.7501 15.1618L42.0627 13.933C41.8439 13.542 41.6099 13.2329 41.3606 13.0057C41.1113 12.7785 40.8943 12.631 40.7097 12.5632C40.5199 12.486 40.3157 12.4597 40.0972 12.4841C39.8217 12.516 39.5443 12.6101 39.265 12.7663C38.9951 12.9173 38.7223 13.1616 38.4466 13.4991C38.0544 13.9997 37.7493 14.5248 37.5313 15.0745L38.0847 16.1949L37.8584 16.4132L36.9133 14.7236L37.0216 14.5896C37.5707 13.8669 38.0178 13.3662 38.3631 13.0876C38.7083 12.8089 38.9693 12.6201 39.1462 12.5211C39.3179 12.4129 39.4854 12.3191 39.6489 12.2399C39.8217 12.1555 40.0592 12.0776 40.3615 12.0063C40.6638 11.9349 40.9471 11.917 41.2114 11.9525C41.4798 11.9735 41.7594 12.0799 42.05 12.2717C42.3407 12.4636 42.5901 12.7457 42.7984 13.118L45.1887 17.3909C45.3501 17.6795 45.5053 17.7821 45.6543 17.6988L46.5295 17.2642L46.6327 17.4815C46.1531 17.8476 45.7084 18.1452 45.2988 18.3743C45.1819 18.4275 45.0343 18.4367 44.856 18.402C44.6725 18.358 44.5313 18.2476 44.4323 18.0707ZM42.4012 19.6836C43.0901 19.2982 43.6855 18.6474 44.1873 17.7311L42.8985 15.4271C41.5281 16.2548 40.6953 16.8307 40.3999 17.1548C40.1087 17.4644 39.9635 17.7839 39.9645 18.1134C39.9696 18.4283 40.0398 18.7068 40.1752 18.9488C40.2013 18.9954 40.2273 19.0419 40.2533 19.0885C40.552 19.5569 40.8916 19.8253 41.272 19.8936C41.6525 19.9619 42.0289 19.8919 42.4012 19.6836Z" fill="white"/>
<circle cx="56.1389" cy="9.13895" r="4.13895" fill="white"/>
</svg>
