<svg width="53" height="31" viewBox="0 0 53 31" fill="none" xmlns="http://www.w3.org/2000/svg">
<path d="M43.3384 13.8808C43.704 12.7064 45.296 12.7064 45.6616 13.8808L46.8309 17.6366C46.9944 18.1618 47.4633 18.5174 47.9925 18.5174H51.7763C52.9595 18.5174 53.4514 20.0976 52.4942 20.8234L49.433 23.1446C49.005 23.4692 48.8258 24.0446 48.9893 24.5698L50.1586 28.3256C50.5242 29.5 49.2363 30.4766 48.2791 29.7508L45.2179 27.4296C44.7898 27.105 44.2102 27.105 43.7821 27.4296L40.7209 29.7508C39.7637 30.4766 38.4758 29.5 38.8414 28.3256L40.0107 24.5698C40.1742 24.0446 39.995 23.4692 39.567 23.1446L36.5058 20.8234C35.5486 20.0976 36.0405 18.5174 37.2237 18.5174H41.0075C41.5367 18.5174 42.0056 18.1618 42.1691 17.6366L43.3384 13.8808Z" fill="white"/>
<path d="M7.77006 14.8808C8.15719 13.7064 9.84281 13.7064 10.2299 14.8808L11.468 18.6366C11.6411 19.1618 12.1377 19.5174 12.6979 19.5174H16.7043C17.9571 19.5174 18.478 21.0976 17.4644 21.8234L14.2232 24.1446C13.7699 24.4692 13.5803 25.0446 13.7534 25.5698L14.9915 29.3256C15.3786 30.5 14.0149 31.4766 13.0014 30.7508L9.76015 28.4296C9.30688 28.105 8.69312 28.105 8.23985 28.4296L4.99864 30.7508C3.98511 31.4766 2.62142 30.5 3.00855 29.3256L4.24658 25.5698C4.41971 25.0446 4.23005 24.4692 3.77679 24.1446L0.53557 21.8234C-0.477959 21.0976 0.0429292 19.5174 1.29572 19.5174H5.30208C5.86235 19.5174 6.35889 19.1618 6.53202 18.6366L7.77006 14.8808Z" fill="white"/>
<path d="M25.4967 1.08807C25.9699 -0.362693 28.0301 -0.362689 28.5033 1.08807L30.0164 5.72754C30.228 6.37635 30.8349 6.81562 31.5197 6.81562H36.4163C37.9475 6.81562 38.5842 8.76761 37.3454 9.66423L33.3839 12.5316C32.8299 12.9326 32.5981 13.6433 32.8097 14.2921L34.3229 18.9316C34.796 20.3824 33.1293 21.5887 31.8906 20.6921L27.9291 17.8248C27.3751 17.4238 26.6249 17.4238 26.0709 17.8248L22.1094 20.6921C20.8707 21.5887 19.204 20.3823 19.6771 18.9316L21.1903 14.2921C21.4019 13.6433 21.1701 12.9326 20.6161 12.5316L16.6546 9.66422C15.4158 8.7676 16.0525 6.81562 17.5837 6.81562H22.4803C23.1651 6.81562 23.772 6.37635 23.9836 5.72754L25.4967 1.08807Z" fill="white"/>
</svg>
